G75*
G70*
%OFA0B0*%
%FSLAX24Y24*%
%IPPOS*%
%LPD*%
%AMOC8*
5,1,8,0,0,1.08239X$1,22.5*
%
%ADD10C,0.1780*%
%ADD11C,0.1182*%
%ADD12R,0.0730X0.0730*%
%ADD13C,0.1734*%
%ADD14R,0.0680X0.0680*%
%ADD15R,0.1660X0.1660*%
%ADD16C,0.0600*%
%ADD17C,0.1346*%
%ADD18OC8,0.0600*%
%ADD19C,0.0674*%
%ADD20C,0.0740*%
%ADD21C,0.1143*%
%ADD22C,0.1261*%
%ADD23C,0.1270*%
%ADD24C,0.1160*%
%ADD25C,0.1580*%
%ADD26C,0.1080*%
%ADD27C,0.1346*%
%ADD28C,0.1410*%
%ADD29C,0.1280*%
%ADD30C,0.1025*%
%ADD31C,0.1661*%
%ADD32C,0.1307*%
%ADD33C,0.0972*%
%ADD34C,0.1149*%
%ADD35C,0.1208*%
%ADD36C,0.0480*%
%ADD37R,0.0476X0.0476*%
D10*
X001821Y001982D03*
X054191Y022832D03*
X037058Y043674D03*
X022491Y043674D03*
X001821Y043832D03*
X066981Y059392D03*
X093681Y059392D03*
X106591Y043832D03*
X106591Y001982D03*
D11*
X062862Y013066D03*
X043614Y013066D03*
X043614Y035897D03*
X062901Y035897D03*
D12*
X044090Y033984D03*
X043090Y033984D03*
X043090Y032984D03*
X043090Y031984D03*
X044090Y031984D03*
X044090Y032984D03*
X044090Y030984D03*
X043090Y030984D03*
X043090Y029984D03*
X043090Y028984D03*
X044090Y028984D03*
X044090Y029984D03*
X044090Y027984D03*
X043090Y027984D03*
X043090Y026984D03*
X043090Y025984D03*
X044090Y025984D03*
X044090Y026984D03*
X044090Y024984D03*
X043090Y024984D03*
X043090Y023984D03*
X044090Y023984D03*
X044090Y022984D03*
X043090Y022984D03*
X043090Y021984D03*
X043090Y020984D03*
X044090Y020984D03*
X044090Y021984D03*
X044090Y019984D03*
X043090Y019984D03*
X043090Y018984D03*
X043090Y017984D03*
X044090Y017984D03*
X044090Y018984D03*
X044090Y016984D03*
X043090Y016984D03*
X043090Y015984D03*
X044090Y015984D03*
X044090Y014984D03*
X043090Y014984D03*
D13*
X043594Y013070D03*
X062886Y013070D03*
X062886Y035905D03*
X043594Y035905D03*
D14*
X019463Y040398D03*
X018283Y040398D03*
X017103Y040398D03*
X017103Y041578D03*
X018283Y041578D03*
X019463Y041578D03*
D15*
X018283Y043278D03*
D16*
X019997Y023561D02*
X020517Y023561D01*
X020517Y022561D02*
X019997Y022561D01*
X021997Y022561D02*
X022517Y022561D01*
X022517Y023561D02*
X021997Y023561D01*
X024818Y023561D02*
X025338Y023561D01*
X026818Y023561D02*
X027338Y023561D01*
X027338Y022561D02*
X026818Y022561D01*
X025338Y022561D02*
X024818Y022561D01*
X024818Y019561D02*
X025338Y019561D01*
X026818Y019561D02*
X027338Y019561D01*
X022517Y019561D02*
X021997Y019561D01*
X020517Y019561D02*
X019997Y019561D01*
D17*
X029275Y015165D03*
X030775Y015165D03*
X032275Y015165D03*
X033775Y015165D03*
X035275Y015165D03*
X035275Y004165D03*
X032275Y004165D03*
X029275Y004165D03*
D18*
X042350Y043358D03*
X043350Y043358D03*
X045200Y043358D03*
X046200Y043358D03*
X047950Y043258D03*
X048950Y043258D03*
X050903Y043258D03*
X051903Y043258D03*
X069608Y057497D03*
X070608Y057497D03*
X071608Y057497D03*
X072608Y057497D03*
X073608Y057497D03*
X074608Y057497D03*
X075608Y057497D03*
X076608Y057497D03*
X076608Y058497D03*
X075608Y058497D03*
X074608Y058497D03*
X073608Y058497D03*
X072608Y058497D03*
X071608Y058497D03*
X070608Y058497D03*
X069608Y058497D03*
D19*
X022192Y013934D03*
X019192Y013934D03*
X019192Y006934D03*
X020192Y006934D03*
X021192Y006934D03*
X022192Y006934D03*
D20*
X023712Y005470D03*
X023712Y004470D03*
X017712Y004470D03*
X017712Y005470D03*
X017712Y007470D03*
X017712Y008470D03*
X017712Y014470D03*
X017712Y015470D03*
X023712Y015470D03*
X023712Y014470D03*
D21*
X012547Y008246D03*
X010893Y008246D03*
X010893Y006080D03*
X012547Y006080D03*
X011762Y039811D03*
D22*
X011762Y042685D03*
X008454Y042685D03*
X011720Y003206D03*
D23*
X078472Y003393D03*
X081772Y003393D03*
X090213Y003508D03*
D24*
X090213Y006378D03*
X090213Y008548D03*
X081772Y008433D03*
X080122Y008433D03*
X078472Y008433D03*
X078472Y006263D03*
X080122Y006263D03*
X081772Y006263D03*
D25*
X098061Y024778D03*
X104061Y028278D03*
D26*
X103061Y030278D03*
X103061Y026278D03*
D27*
X097061Y031145D02*
X097061Y032411D01*
X094061Y032411D02*
X094061Y031145D01*
D28*
X088881Y052966D03*
X088881Y055132D03*
X081881Y055132D03*
X081881Y052966D03*
D29*
X081881Y058006D03*
X088881Y058006D03*
D30*
X010108Y039811D03*
X008454Y039811D03*
D31*
X026933Y026885D03*
X033901Y026885D03*
D32*
X032051Y027988D03*
X033901Y029208D03*
X026933Y029208D03*
X025083Y027988D03*
D33*
X104059Y008972D03*
X104059Y007476D03*
X104059Y005429D03*
D34*
X106539Y007515D03*
X106933Y008972D03*
D35*
X106933Y005074D03*
D36*
X097161Y010832D03*
X095811Y010582D03*
X095311Y010082D03*
X088211Y012582D03*
X093261Y016632D03*
X101911Y017532D03*
X102011Y014782D03*
X102011Y014282D03*
X074711Y031282D03*
X062561Y028732D03*
X053711Y029882D03*
X046911Y027032D03*
X041811Y023582D03*
X038561Y021082D03*
X037111Y020382D03*
X037061Y021832D03*
X034261Y020382D03*
X031961Y019932D03*
X030811Y019032D03*
X028611Y019932D03*
X030111Y021982D03*
X040711Y027482D03*
X046111Y019982D03*
X025961Y012882D03*
X016211Y018182D03*
X018411Y018732D03*
X018061Y019582D03*
X012811Y014482D03*
X010211Y013432D03*
X013961Y027332D03*
X017011Y030882D03*
X017511Y031232D03*
X018011Y031182D03*
X016761Y032282D03*
X020011Y030882D03*
X020161Y035682D03*
X013611Y037032D03*
X037111Y039732D03*
X037561Y039182D03*
X041311Y036732D03*
X043661Y037982D03*
X043861Y038532D03*
X042211Y039132D03*
X042211Y039632D03*
X045411Y036532D03*
X067961Y047582D03*
X070361Y050282D03*
X072711Y053182D03*
X074511Y053182D03*
D37*
X076172Y040007D03*
X076172Y037957D03*
X076172Y036007D03*
X074022Y036007D03*
X072022Y036007D03*
X069922Y036007D03*
X069922Y037957D03*
X069922Y039957D03*
X082812Y036110D03*
X084962Y036110D03*
X086962Y036110D03*
X089062Y036110D03*
X089062Y034160D03*
X089062Y032160D03*
X082812Y032110D03*
X082812Y034160D03*
X085189Y026242D03*
X087239Y026242D03*
X089189Y026242D03*
X089189Y024092D03*
X089189Y022092D03*
X089189Y019992D03*
X087239Y019992D03*
X085239Y019992D03*
M02*
