G75*
G70*
%OFA0B0*%
%FSLAX24Y24*%
%IPPOS*%
%LPD*%
%AMOC8*
5,1,8,0,0,1.08239X$1,22.5*
%
%ADD10R,0.7400X0.6700*%
%ADD11R,0.6700X0.7400*%
%ADD12R,0.0650X0.0650*%
%ADD13R,0.0600X0.0600*%
%ADD14R,0.1580X0.1580*%
%ADD15C,0.0520*%
%ADD16C,0.1266*%
%ADD17OC8,0.0520*%
%ADD18C,0.0594*%
%ADD19C,0.0660*%
%ADD20C,0.1063*%
%ADD21C,0.1080*%
%ADD22C,0.1500*%
%ADD23C,0.1000*%
%ADD24C,0.1266*%
%ADD25C,0.1330*%
%ADD26C,0.0945*%
%ADD27C,0.1581*%
%ADD28C,0.1227*%
%ADD29C,0.0892*%
%ADD30C,0.1069*%
%ADD31C,0.1128*%
%ADD32C,0.0100*%
%ADD33C,0.0400*%
%ADD34C,0.0320*%
%ADD35R,0.0396X0.0396*%
%ADD36C,0.0160*%
D10*
X073122Y038907D03*
X085862Y033210D03*
D11*
X086289Y023192D03*
D12*
X044090Y022984D03*
X043090Y022984D03*
X043090Y023984D03*
X043090Y024984D03*
X044090Y024984D03*
X044090Y023984D03*
X044090Y025984D03*
X043090Y025984D03*
X043090Y026984D03*
X044090Y026984D03*
X044090Y027984D03*
X043090Y027984D03*
X043090Y028984D03*
X043090Y029984D03*
X044090Y029984D03*
X044090Y028984D03*
X044090Y030984D03*
X043090Y030984D03*
X043090Y031984D03*
X043090Y032984D03*
X044090Y032984D03*
X044090Y031984D03*
X044090Y033984D03*
X043090Y033984D03*
X043090Y021984D03*
X043090Y020984D03*
X044090Y020984D03*
X044090Y021984D03*
X044090Y019984D03*
X043090Y019984D03*
X043090Y018984D03*
X043090Y017984D03*
X044090Y017984D03*
X044090Y018984D03*
X044090Y016984D03*
X043090Y016984D03*
X043090Y015984D03*
X044090Y015984D03*
X044090Y014984D03*
X043090Y014984D03*
D13*
X019463Y040398D03*
X018283Y040398D03*
X017103Y040398D03*
X017103Y041578D03*
X018283Y041578D03*
X019463Y041578D03*
D14*
X018283Y043278D03*
D15*
X019997Y023561D02*
X020517Y023561D01*
X020517Y022561D02*
X019997Y022561D01*
X021997Y022561D02*
X022517Y022561D01*
X022517Y023561D02*
X021997Y023561D01*
X024818Y023561D02*
X025338Y023561D01*
X026818Y023561D02*
X027338Y023561D01*
X027338Y022561D02*
X026818Y022561D01*
X025338Y022561D02*
X024818Y022561D01*
X024818Y019561D02*
X025338Y019561D01*
X026818Y019561D02*
X027338Y019561D01*
X022517Y019561D02*
X021997Y019561D01*
X020517Y019561D02*
X019997Y019561D01*
D16*
X029275Y015165D03*
X030775Y015165D03*
X032275Y015165D03*
X033775Y015165D03*
X035275Y015165D03*
X035275Y004165D03*
X032275Y004165D03*
X029275Y004165D03*
D17*
X042350Y043358D03*
X043350Y043358D03*
X045200Y043358D03*
X046200Y043358D03*
X047950Y043258D03*
X048950Y043258D03*
X050903Y043258D03*
X051903Y043258D03*
X069608Y057497D03*
X070608Y057497D03*
X071608Y057497D03*
X072608Y057497D03*
X073608Y057497D03*
X074608Y057497D03*
X075608Y057497D03*
X076608Y057497D03*
X076608Y058497D03*
X075608Y058497D03*
X074608Y058497D03*
X073608Y058497D03*
X072608Y058497D03*
X071608Y058497D03*
X070608Y058497D03*
X069608Y058497D03*
D18*
X022192Y013934D03*
X019192Y013934D03*
X019192Y006934D03*
X020192Y006934D03*
X021192Y006934D03*
X022192Y006934D03*
D19*
X023712Y005470D03*
X023712Y004470D03*
X017712Y004470D03*
X017712Y005470D03*
X017712Y007470D03*
X017712Y008470D03*
X017712Y014470D03*
X017712Y015470D03*
X023712Y015470D03*
X023712Y014470D03*
D20*
X012547Y008246D03*
X010893Y008246D03*
X010893Y006080D03*
X012547Y006080D03*
X011762Y039811D03*
D21*
X078472Y008433D03*
X080122Y008433D03*
X081772Y008433D03*
X081772Y006263D03*
X080122Y006263D03*
X078472Y006263D03*
X090213Y006378D03*
X090213Y008548D03*
D22*
X098061Y024778D03*
X104061Y028278D03*
D23*
X103061Y030278D03*
X103061Y026278D03*
D24*
X097061Y031145D02*
X097061Y032411D01*
X094061Y032411D02*
X094061Y031145D01*
D25*
X088881Y052966D03*
X088881Y055132D03*
X081881Y055132D03*
X081881Y052966D03*
D26*
X010108Y039811D03*
X008454Y039811D03*
D27*
X026933Y026885D03*
X033901Y026885D03*
D28*
X032051Y027988D03*
X033901Y029208D03*
X026933Y029208D03*
X025083Y027988D03*
D29*
X104059Y008972D03*
X104059Y007476D03*
X104059Y005429D03*
D30*
X106539Y007515D03*
X106933Y008972D03*
D31*
X106933Y005074D03*
D32*
X104059Y008972D02*
X104011Y008982D01*
X102161Y010832D01*
X097161Y010832D01*
X095811Y010582D02*
X095311Y010082D01*
X100011Y016282D02*
X102011Y014282D01*
X102011Y014782D02*
X089011Y027782D01*
X057411Y027782D01*
X054961Y030232D01*
X051761Y030232D01*
X051711Y030282D01*
X044661Y030282D01*
X044461Y030482D01*
X043711Y030482D01*
X043211Y030982D01*
X043111Y030982D01*
X043090Y030984D01*
X042711Y031482D02*
X038811Y027582D01*
X036861Y027582D01*
X030261Y020982D01*
X018061Y020982D01*
X012811Y015732D01*
X012811Y014482D01*
X010211Y013432D02*
X017961Y021182D01*
X030161Y021182D01*
X035111Y026132D01*
X035111Y026982D01*
X042661Y034532D01*
X044861Y034532D01*
X044861Y033782D01*
X044111Y033032D01*
X044090Y032984D01*
X044090Y031984D02*
X044061Y031982D01*
X043561Y031482D01*
X042711Y031482D01*
X042711Y029482D02*
X043461Y029482D01*
X043911Y029032D01*
X044061Y029032D01*
X044090Y028984D01*
X043090Y028984D02*
X043061Y028982D01*
X042711Y028982D01*
X040861Y027132D01*
X038661Y027132D01*
X034411Y022882D01*
X032961Y022882D01*
X032161Y022082D01*
X031961Y022082D01*
X030411Y020532D01*
X024761Y020532D01*
X022811Y018582D01*
X018561Y018582D01*
X018411Y018732D01*
X017712Y015470D02*
X017761Y015432D01*
X018761Y014432D01*
X018736Y014407D01*
X019161Y013982D01*
X019192Y013934D01*
X018736Y014407D02*
X018711Y014432D01*
X017761Y014432D01*
X017712Y014470D01*
X022192Y013934D02*
X022211Y013982D01*
X022661Y014432D01*
X022711Y014432D01*
X023711Y015432D01*
X023712Y015470D01*
X023712Y014470D02*
X023711Y014432D01*
X022711Y014432D01*
X028611Y019932D02*
X028761Y020082D01*
X031811Y020082D01*
X031961Y019932D01*
X034261Y020382D02*
X035361Y021482D01*
X038161Y021482D01*
X042661Y025982D01*
X043061Y025982D01*
X043090Y025984D01*
X043711Y026482D02*
X043211Y026982D01*
X043111Y026982D01*
X043090Y026984D01*
X043461Y027482D02*
X042711Y027482D01*
X037061Y021832D01*
X044090Y019984D02*
X044111Y019982D01*
X046111Y019982D01*
X044461Y026482D02*
X043711Y026482D01*
X044090Y026984D02*
X044111Y027032D01*
X044211Y027132D01*
X044811Y027132D01*
X044811Y027632D01*
X047261Y030082D01*
X051611Y030082D01*
X051661Y030032D01*
X053561Y030032D01*
X053711Y029882D01*
X047061Y027182D02*
X046911Y027032D01*
X047061Y027182D02*
X074411Y027182D01*
X082711Y018882D01*
X090511Y018882D01*
X093111Y016282D01*
X100011Y016282D01*
X093261Y016632D02*
X090811Y019082D01*
X082811Y019082D01*
X074511Y027382D01*
X045361Y027382D01*
X044461Y026482D01*
X043461Y027482D02*
X043961Y027982D01*
X044061Y027982D01*
X044090Y027984D01*
X042711Y029482D02*
X040711Y027482D01*
X033901Y029208D02*
X033861Y029182D01*
X033211Y029182D01*
X032061Y028032D01*
X032051Y027988D01*
X032061Y028082D01*
X031011Y029132D01*
X026911Y029132D01*
X026933Y029208D01*
X026911Y029182D01*
X025761Y028032D01*
X025111Y028032D01*
X025083Y027988D01*
X024011Y026932D02*
X023911Y027032D01*
X023861Y027032D01*
X020011Y030882D01*
X020061Y030532D02*
X017361Y030532D01*
X017011Y030882D01*
X017511Y031232D02*
X017961Y031232D01*
X018011Y031182D01*
X016761Y032282D02*
X020161Y035682D01*
X020661Y039232D02*
X037111Y039232D01*
X037411Y039532D01*
X037711Y039532D01*
X038211Y039032D01*
X042111Y039032D01*
X042211Y039132D01*
X042511Y039432D01*
X047061Y039432D01*
X050861Y043232D01*
X050903Y043258D01*
X047950Y043258D02*
X047911Y043232D01*
X044311Y039632D01*
X042211Y039632D01*
X041061Y039232D02*
X038311Y039232D01*
X037811Y039732D01*
X037111Y039732D01*
X037561Y039182D02*
X037411Y039032D01*
X018461Y039032D01*
X017111Y040382D01*
X017103Y040398D01*
X019463Y040398D02*
X019511Y040382D01*
X020661Y039232D01*
X017061Y044982D02*
X011911Y039832D01*
X011811Y039832D01*
X011762Y039811D01*
X017061Y044982D02*
X055661Y044982D01*
X057361Y043282D01*
X090011Y043282D01*
X103011Y030282D01*
X103061Y030278D01*
X070361Y050282D02*
X067961Y047882D01*
X067961Y047582D01*
X045200Y043358D02*
X045161Y043332D01*
X041061Y039232D01*
X023761Y026832D02*
X020061Y030532D01*
X023761Y026832D02*
X023811Y026832D01*
X027061Y023582D01*
X027078Y023561D01*
X026061Y024232D02*
X024211Y024232D01*
X022561Y022582D01*
X022261Y022582D01*
X022257Y022561D01*
X026061Y022482D02*
X026061Y024232D01*
X026061Y022482D02*
X026661Y021882D01*
X027611Y021882D01*
X028111Y022382D01*
X029711Y022382D01*
X030111Y021982D01*
X026933Y026885D02*
X026911Y026932D01*
X024011Y026932D01*
X020511Y007632D02*
X018011Y007632D01*
X017861Y007482D01*
X017761Y007482D01*
X017712Y007470D01*
X019192Y006934D02*
X019211Y006932D01*
X017761Y005482D01*
X017712Y005470D01*
X020511Y007632D02*
X021161Y006982D01*
X021192Y006934D01*
X106300Y000683D02*
X106361Y000682D01*
X106811Y000682D01*
X106883Y000683D01*
D33*
X095311Y010082D03*
X095811Y010582D03*
X097161Y010832D03*
X102011Y014282D03*
X102011Y014782D03*
X101911Y017532D03*
X093261Y016632D03*
X088211Y012582D03*
X062561Y028732D03*
X053711Y029882D03*
X046911Y027032D03*
X041811Y023582D03*
X038561Y021082D03*
X037111Y020382D03*
X037061Y021832D03*
X034261Y020382D03*
X031961Y019932D03*
X030811Y019032D03*
X028611Y019932D03*
X030111Y021982D03*
X040711Y027482D03*
X046111Y019982D03*
X025961Y012882D03*
X016211Y018182D03*
X018411Y018732D03*
X018061Y019582D03*
X012811Y014482D03*
X010211Y013432D03*
X013961Y027332D03*
X017011Y030882D03*
X017511Y031232D03*
X018011Y031182D03*
X016761Y032282D03*
X020011Y030882D03*
X020161Y035682D03*
X013611Y037032D03*
X037111Y039732D03*
X037561Y039182D03*
X041311Y036732D03*
X043661Y037982D03*
X043861Y038532D03*
X042211Y039132D03*
X042211Y039632D03*
X045411Y036532D03*
X067961Y047582D03*
X070361Y050282D03*
X072711Y053182D03*
X074511Y053182D03*
X074711Y031282D03*
D34*
X072111Y028682D01*
X062611Y028682D01*
X062561Y028732D01*
X057561Y028182D02*
X055111Y030632D01*
X052061Y030632D01*
X044711Y037982D01*
X043661Y037982D01*
X043861Y038532D02*
X043811Y038582D01*
X042061Y038582D01*
X042011Y038632D01*
X017211Y038632D01*
X016911Y038932D01*
X016861Y038932D01*
X016761Y039032D01*
X017011Y039282D01*
X016761Y039032D02*
X014161Y036432D01*
X013611Y036432D01*
X013611Y037032D01*
X013611Y036432D02*
X013611Y028182D01*
X014311Y028182D01*
X014761Y027732D01*
X014761Y027082D01*
X014411Y027082D01*
X014311Y026982D01*
X019661Y021632D01*
X020961Y021632D01*
X021061Y021732D01*
X020261Y022532D01*
X020257Y022561D01*
X021061Y021732D02*
X021161Y021632D01*
X024111Y021632D01*
X025011Y022532D01*
X025061Y022532D01*
X025078Y022561D01*
X022111Y019582D02*
X021461Y020232D01*
X020911Y020232D01*
X020261Y019582D01*
X020257Y019561D01*
X020111Y019582D01*
X018061Y019582D01*
X016211Y018182D02*
X034811Y018182D01*
X036961Y020332D01*
X037111Y020382D01*
X037811Y021082D01*
X038561Y021082D01*
X038061Y019832D02*
X037161Y019832D01*
X035011Y017682D01*
X031611Y017682D01*
X029261Y015332D01*
X029275Y015165D01*
X029261Y015132D01*
X028861Y015132D01*
X026811Y013082D01*
X025961Y013082D01*
X025961Y012882D01*
X025961Y013082D02*
X021061Y013082D01*
X015161Y007182D01*
X012011Y007182D01*
X010911Y006082D01*
X010893Y006080D01*
X027211Y019532D02*
X027761Y018982D01*
X030761Y018982D01*
X030811Y019032D01*
X027211Y019532D02*
X027111Y019532D01*
X027078Y019561D01*
X022257Y019561D02*
X022211Y019582D01*
X022111Y019582D01*
X014311Y026982D02*
X013961Y027332D01*
X038061Y019832D02*
X041811Y023582D01*
X057561Y028182D02*
X091261Y028182D01*
X101911Y017532D01*
X088211Y012582D02*
X088211Y008382D01*
X090211Y006382D01*
X090213Y006378D01*
X045411Y036532D02*
X044511Y037432D01*
X042011Y037432D01*
X041311Y036732D01*
X072711Y053182D02*
X074511Y053182D01*
D35*
X076172Y040007D03*
X076172Y037957D03*
X076172Y036007D03*
X074022Y036007D03*
X072022Y036007D03*
X069922Y036007D03*
X069922Y037957D03*
X069922Y039957D03*
X082812Y036110D03*
X084962Y036110D03*
X086962Y036110D03*
X089062Y036110D03*
X089062Y034160D03*
X089062Y032160D03*
X082812Y032110D03*
X082812Y034160D03*
X085189Y026242D03*
X087239Y026242D03*
X089189Y026242D03*
X089189Y024092D03*
X089189Y022092D03*
X089189Y019992D03*
X087239Y019992D03*
X085239Y019992D03*
D36*
X002335Y000742D02*
X002113Y000683D01*
X106300Y000683D01*
X106078Y000742D01*
X105775Y000918D01*
X105527Y001165D01*
X105352Y001468D01*
X105261Y001807D01*
X105261Y002157D01*
X105352Y002495D01*
X105527Y002798D01*
X105775Y003046D01*
X106078Y003221D01*
X106416Y003312D01*
X106766Y003312D01*
X107105Y003221D01*
X107408Y003046D01*
X107656Y002798D01*
X107702Y002718D01*
X107702Y043096D01*
X107656Y043015D01*
X107408Y042768D01*
X107105Y042592D01*
X106766Y042502D01*
X106416Y042502D01*
X106078Y042592D01*
X105775Y042768D01*
X105527Y043015D01*
X105352Y043318D01*
X105261Y043657D01*
X105261Y044007D01*
X105352Y044345D01*
X105527Y044648D01*
X105677Y044799D01*
X095161Y044799D01*
X095161Y045263D01*
X095104Y045402D01*
X095104Y060529D01*
X094372Y060529D01*
X094498Y060456D01*
X094746Y060208D01*
X094921Y059905D01*
X095011Y059567D01*
X095011Y059217D01*
X094921Y058878D01*
X094746Y058575D01*
X094498Y058328D01*
X094195Y058152D01*
X093856Y058062D01*
X093506Y058062D01*
X093168Y058152D01*
X092865Y058328D01*
X092617Y058575D01*
X092442Y058878D01*
X092351Y059217D01*
X092351Y059567D01*
X092442Y059905D01*
X092617Y060208D01*
X092865Y060456D01*
X092990Y060529D01*
X067672Y060529D01*
X067798Y060456D01*
X068046Y060208D01*
X068221Y059905D01*
X068311Y059567D01*
X068311Y059217D01*
X068221Y058878D01*
X068046Y058575D01*
X067798Y058328D01*
X067495Y058152D01*
X067156Y058062D01*
X066806Y058062D01*
X066468Y058152D01*
X066165Y058328D01*
X065917Y058575D01*
X065849Y058693D01*
X065849Y045613D01*
X065849Y045402D01*
X065791Y045263D01*
X065791Y045035D01*
X065563Y045035D01*
X065424Y044977D01*
X055963Y044977D01*
X057448Y043492D01*
X090098Y043492D01*
X090221Y043369D01*
X102733Y030857D01*
X102930Y030938D01*
X103192Y030938D01*
X103435Y030838D01*
X103621Y030652D01*
X103721Y030409D01*
X103721Y030147D01*
X103621Y029904D01*
X103435Y029719D01*
X103192Y029618D01*
X102930Y029618D01*
X102687Y029719D01*
X102502Y029904D01*
X102401Y030147D01*
X102401Y030409D01*
X102456Y030541D01*
X089924Y043072D01*
X057448Y043072D01*
X057274Y043072D01*
X055574Y044772D01*
X037817Y044772D01*
X037874Y044739D01*
X038122Y044491D01*
X038297Y044188D01*
X038387Y043849D01*
X038387Y043499D01*
X038297Y043161D01*
X038122Y042858D01*
X037874Y042610D01*
X037571Y042435D01*
X037233Y042344D01*
X036882Y042344D01*
X036544Y042435D01*
X036241Y042610D01*
X035993Y042858D01*
X035818Y043161D01*
X035728Y043499D01*
X035728Y043849D01*
X035818Y044188D01*
X035993Y044491D01*
X036241Y044739D01*
X036298Y044772D01*
X023250Y044772D01*
X023307Y044739D01*
X023555Y044491D01*
X023730Y044188D01*
X023821Y043849D01*
X023821Y043499D01*
X023730Y043161D01*
X023555Y042858D01*
X023307Y042610D01*
X023004Y042435D01*
X022666Y042344D01*
X022315Y042344D01*
X021977Y042435D01*
X021674Y042610D01*
X021426Y042858D01*
X021251Y043161D01*
X021161Y043499D01*
X021161Y043849D01*
X021251Y044188D01*
X021426Y044491D01*
X021674Y044739D01*
X021731Y044772D01*
X017148Y044772D01*
X012415Y040039D01*
X012453Y039948D01*
X012453Y039673D01*
X012348Y039419D01*
X012153Y039224D01*
X011899Y039119D01*
X011624Y039119D01*
X011370Y039224D01*
X011175Y039419D01*
X011070Y039673D01*
X011070Y039948D01*
X011175Y040202D01*
X011370Y040397D01*
X011624Y040502D01*
X011899Y040502D01*
X012153Y040397D01*
X012166Y040384D01*
X016760Y044977D01*
X002497Y044977D01*
X002638Y044896D01*
X002886Y044648D01*
X003061Y044345D01*
X003151Y044007D01*
X003151Y043657D01*
X003061Y043318D01*
X002886Y043015D01*
X002638Y042768D01*
X002335Y042592D01*
X001996Y042502D01*
X001646Y042502D01*
X001308Y042592D01*
X001005Y042768D01*
X000757Y043015D01*
X000691Y043130D01*
X000684Y002672D01*
X000757Y002798D01*
X001005Y003046D01*
X001308Y003221D01*
X001646Y003312D01*
X001996Y003312D01*
X002335Y003221D01*
X002638Y003046D01*
X002886Y002798D01*
X003061Y002495D01*
X003151Y002157D01*
X003151Y001807D01*
X003061Y001468D01*
X002886Y001165D01*
X002638Y000918D01*
X002335Y000742D01*
X002204Y000707D02*
X106209Y000707D01*
X105864Y000866D02*
X002549Y000866D01*
X002745Y001025D02*
X105668Y001025D01*
X105517Y001183D02*
X002896Y001183D01*
X002987Y001342D02*
X105425Y001342D01*
X105343Y001500D02*
X003069Y001500D01*
X003112Y001659D02*
X105301Y001659D01*
X105261Y001817D02*
X003151Y001817D01*
X003151Y001976D02*
X105261Y001976D01*
X105261Y002134D02*
X003151Y002134D01*
X003115Y002293D02*
X011161Y002293D01*
X011063Y002349D02*
X011307Y002209D01*
X011579Y002136D01*
X011861Y002136D01*
X012133Y002209D01*
X012377Y002349D01*
X012577Y002549D01*
X012718Y002793D01*
X012791Y003065D01*
X012791Y003347D01*
X012718Y003619D01*
X012577Y003863D01*
X012377Y004063D01*
X012133Y004204D01*
X011861Y004277D01*
X011579Y004277D01*
X011307Y004204D01*
X011063Y004063D01*
X010863Y003863D01*
X010722Y003619D01*
X010649Y003347D01*
X010649Y003065D01*
X010722Y002793D01*
X010863Y002549D01*
X011063Y002349D01*
X010961Y002451D02*
X003072Y002451D01*
X002994Y002610D02*
X010828Y002610D01*
X010736Y002769D02*
X002903Y002769D01*
X002757Y002927D02*
X010686Y002927D01*
X010649Y003086D02*
X002569Y003086D01*
X002249Y003244D02*
X010649Y003244D01*
X010664Y003403D02*
X000684Y003403D01*
X000684Y003561D02*
X010707Y003561D01*
X010780Y003720D02*
X000684Y003720D01*
X000684Y003878D02*
X010878Y003878D01*
X011037Y004037D02*
X000684Y004037D01*
X000684Y004195D02*
X011292Y004195D01*
X012148Y004195D02*
X017295Y004195D01*
X017296Y004192D02*
X017434Y004054D01*
X017614Y003980D01*
X017809Y003980D01*
X017989Y004054D01*
X018127Y004192D01*
X018202Y004372D01*
X018202Y004567D01*
X018127Y004747D01*
X017989Y004885D01*
X017809Y004960D01*
X017614Y004960D01*
X017434Y004885D01*
X017296Y004747D01*
X017222Y004567D01*
X017222Y004372D01*
X017296Y004192D01*
X017229Y004354D02*
X000684Y004354D01*
X000684Y004512D02*
X017222Y004512D01*
X017265Y004671D02*
X000684Y004671D01*
X000684Y004830D02*
X017379Y004830D01*
X017434Y005054D02*
X017296Y005192D01*
X017222Y005372D01*
X017222Y005567D01*
X017296Y005747D01*
X017434Y005885D01*
X017614Y005960D01*
X017809Y005960D01*
X017903Y005921D01*
X018762Y006779D01*
X018735Y006843D01*
X018735Y007025D01*
X018805Y007193D01*
X018933Y007321D01*
X019101Y007391D01*
X019283Y007391D01*
X019451Y007321D01*
X019579Y007193D01*
X019649Y007025D01*
X019649Y006843D01*
X019579Y006675D01*
X019451Y006547D01*
X019283Y006477D01*
X019101Y006477D01*
X019068Y006491D01*
X018185Y005608D01*
X018202Y005567D01*
X018202Y005372D01*
X018127Y005192D01*
X017989Y005054D01*
X017809Y004980D01*
X017614Y004980D01*
X017434Y005054D01*
X017342Y005147D02*
X000684Y005147D01*
X000684Y005305D02*
X017249Y005305D01*
X017222Y005464D02*
X012866Y005464D01*
X012938Y005494D02*
X013133Y005688D01*
X013238Y005943D01*
X013238Y006218D01*
X013133Y006472D01*
X012938Y006666D01*
X012684Y006772D01*
X012409Y006772D01*
X012155Y006666D01*
X011961Y006472D01*
X011855Y006218D01*
X011855Y005943D01*
X011961Y005688D01*
X012155Y005494D01*
X012409Y005389D01*
X012684Y005389D01*
X012938Y005494D01*
X013067Y005622D02*
X017245Y005622D01*
X017330Y005781D02*
X013171Y005781D01*
X013237Y005939D02*
X017565Y005939D01*
X017858Y005939D02*
X017922Y005939D01*
X018080Y006098D02*
X013238Y006098D01*
X013222Y006256D02*
X018239Y006256D01*
X018398Y006415D02*
X013157Y006415D01*
X013031Y006574D02*
X018556Y006574D01*
X018715Y006732D02*
X012780Y006732D01*
X012314Y006732D02*
X012113Y006732D01*
X012173Y006792D02*
X015084Y006792D01*
X015239Y006792D01*
X015382Y006851D01*
X021223Y012692D01*
X025575Y012692D01*
X025597Y012638D01*
X025718Y012517D01*
X025876Y012452D01*
X026047Y012452D01*
X026205Y012517D01*
X026326Y012638D01*
X026348Y012692D01*
X026734Y012692D01*
X026889Y012692D01*
X027032Y012751D01*
X028750Y014469D01*
X028786Y014434D01*
X029103Y014302D01*
X029446Y014302D01*
X029764Y014434D01*
X030006Y014676D01*
X030063Y014812D01*
X030102Y014716D01*
X030325Y014493D01*
X030617Y014372D01*
X030932Y014372D01*
X031224Y014493D01*
X031447Y014716D01*
X031525Y014904D01*
X031602Y014716D01*
X031825Y014493D01*
X032117Y014372D01*
X032432Y014372D01*
X032724Y014493D01*
X032947Y014716D01*
X033025Y014904D01*
X033102Y014716D01*
X033325Y014493D01*
X033617Y014372D01*
X033932Y014372D01*
X034224Y014493D01*
X034447Y014716D01*
X034514Y014877D01*
X034544Y014805D01*
X034597Y014713D01*
X034662Y014628D01*
X034737Y014553D01*
X034822Y014488D01*
X034914Y014434D01*
X035013Y014394D01*
X035116Y014366D01*
X035195Y014356D01*
X035195Y015085D01*
X035355Y015085D01*
X035355Y015245D01*
X036084Y015245D01*
X036074Y015324D01*
X036046Y015427D01*
X036005Y015526D01*
X035952Y015618D01*
X035887Y015702D01*
X035812Y015778D01*
X035727Y015843D01*
X035635Y015896D01*
X035537Y015937D01*
X035434Y015964D01*
X035355Y015975D01*
X035355Y015245D01*
X035195Y015245D01*
X035195Y015975D01*
X035116Y015964D01*
X035013Y015937D01*
X034914Y015896D01*
X034822Y015843D01*
X034737Y015778D01*
X034662Y015702D01*
X034597Y015618D01*
X034544Y015526D01*
X034514Y015453D01*
X034447Y015614D01*
X034224Y015838D01*
X033932Y015958D01*
X033617Y015958D01*
X033325Y015838D01*
X033102Y015614D01*
X033025Y015427D01*
X032947Y015614D01*
X032724Y015838D01*
X032432Y015958D01*
X032117Y015958D01*
X031825Y015838D01*
X031602Y015614D01*
X031525Y015427D01*
X031447Y015614D01*
X031224Y015838D01*
X030932Y015958D01*
X030617Y015958D01*
X030325Y015838D01*
X030102Y015614D01*
X030063Y015518D01*
X030044Y015563D01*
X031773Y017292D01*
X034934Y017292D01*
X035089Y017292D01*
X035232Y017351D01*
X037323Y019442D01*
X037984Y019442D01*
X038139Y019442D01*
X038282Y019501D01*
X041958Y023177D01*
X042055Y023217D01*
X042176Y023338D01*
X042241Y023496D01*
X042241Y023667D01*
X042176Y023825D01*
X042055Y023946D01*
X041897Y024012D01*
X041726Y024012D01*
X041568Y023946D01*
X041447Y023825D01*
X041407Y023729D01*
X038948Y021271D01*
X038926Y021325D01*
X038805Y021446D01*
X038647Y021512D01*
X038488Y021512D01*
X042606Y025629D01*
X042606Y025593D01*
X042699Y025499D01*
X043481Y025499D01*
X043575Y025593D01*
X043575Y026321D01*
X043606Y026291D01*
X043606Y025593D01*
X043699Y025499D01*
X044481Y025499D01*
X044575Y025593D01*
X044575Y026299D01*
X044671Y026395D01*
X045448Y027172D01*
X046580Y027172D01*
X046551Y027103D01*
X046551Y026960D01*
X046606Y026828D01*
X046707Y026727D01*
X046840Y026672D01*
X046983Y026672D01*
X047115Y026727D01*
X047216Y026828D01*
X047271Y026960D01*
X047271Y026972D01*
X074324Y026972D01*
X082624Y018672D01*
X082798Y018672D01*
X090424Y018672D01*
X093024Y016072D01*
X093198Y016072D01*
X099924Y016072D01*
X101651Y014345D01*
X101651Y014210D01*
X101706Y014078D01*
X101807Y013977D01*
X101940Y013922D01*
X102083Y013922D01*
X102215Y013977D01*
X102316Y014078D01*
X102371Y014210D01*
X102371Y014353D01*
X102316Y014486D01*
X102270Y014532D01*
X102316Y014578D01*
X102371Y014710D01*
X102371Y014853D01*
X102316Y014986D01*
X102215Y015087D01*
X102083Y015142D01*
X101948Y015142D01*
X089298Y027792D01*
X091100Y027792D01*
X101507Y017385D01*
X101547Y017288D01*
X101668Y017167D01*
X101826Y017102D01*
X101997Y017102D01*
X102155Y017167D01*
X102276Y017288D01*
X102341Y017446D01*
X102341Y017617D01*
X102276Y017775D01*
X102155Y017896D01*
X102058Y017936D01*
X091592Y028403D01*
X091482Y028512D01*
X091339Y028572D01*
X072553Y028572D01*
X074858Y030877D01*
X074955Y030917D01*
X075076Y031038D01*
X075141Y031196D01*
X075141Y031367D01*
X075076Y031525D01*
X074955Y031646D01*
X074797Y031712D01*
X074626Y031712D01*
X074468Y031646D01*
X074347Y031525D01*
X074307Y031429D01*
X071950Y029072D01*
X062829Y029072D01*
X062805Y029096D01*
X062647Y029162D01*
X062476Y029162D01*
X062318Y029096D01*
X062197Y028975D01*
X062131Y028817D01*
X062131Y028646D01*
X062162Y028572D01*
X057723Y028572D01*
X055442Y030853D01*
X055332Y030962D01*
X055189Y031022D01*
X052223Y031022D01*
X045042Y038203D01*
X044932Y038312D01*
X044789Y038372D01*
X044260Y038372D01*
X044291Y038446D01*
X044291Y038617D01*
X044226Y038775D01*
X044105Y038896D01*
X043947Y038962D01*
X043913Y038962D01*
X043889Y038972D01*
X042535Y038972D01*
X042571Y039060D01*
X042571Y039195D01*
X042598Y039222D01*
X047148Y039222D01*
X047271Y039345D01*
X050764Y042838D01*
X051077Y042838D01*
X051323Y043084D01*
X051323Y043432D01*
X051077Y043678D01*
X050729Y043678D01*
X050483Y043432D01*
X050483Y043151D01*
X046974Y039642D01*
X044618Y039642D01*
X047814Y042838D01*
X048124Y042838D01*
X048370Y043084D01*
X048370Y043432D01*
X048124Y043678D01*
X047776Y043678D01*
X047530Y043432D01*
X047530Y043148D01*
X044224Y039842D01*
X042510Y039842D01*
X042415Y039937D01*
X042283Y039992D01*
X042140Y039992D01*
X042103Y039977D01*
X045064Y042938D01*
X045374Y042938D01*
X045620Y043184D01*
X045620Y043532D01*
X045374Y043778D01*
X045026Y043778D01*
X044780Y043532D01*
X044780Y043248D01*
X040974Y039442D01*
X038398Y039442D01*
X038021Y039819D01*
X037898Y039942D01*
X037410Y039942D01*
X037315Y040037D01*
X037183Y040092D01*
X037040Y040092D01*
X036907Y040037D01*
X036806Y039936D01*
X036751Y039803D01*
X036751Y039660D01*
X036806Y039528D01*
X036892Y039442D01*
X020748Y039442D01*
X019922Y040268D01*
X019922Y040765D01*
X019829Y040858D01*
X019096Y040858D01*
X019003Y040765D01*
X019003Y040032D01*
X019096Y039938D01*
X019658Y039938D01*
X020354Y039242D01*
X018548Y039242D01*
X017562Y040227D01*
X017562Y040765D01*
X017469Y040858D01*
X016736Y040858D01*
X016643Y040765D01*
X016643Y040032D01*
X016736Y039938D01*
X017258Y039938D01*
X018174Y039022D01*
X017373Y039022D01*
X017338Y039057D01*
X017342Y039061D01*
X017401Y039204D01*
X017401Y039359D01*
X017342Y039503D01*
X017232Y039612D01*
X017089Y039672D01*
X016934Y039672D01*
X016790Y039612D01*
X016540Y039362D01*
X016431Y039253D01*
X016431Y039253D01*
X014001Y036823D01*
X014001Y036850D01*
X014041Y036946D01*
X014041Y037117D01*
X013976Y037275D01*
X013855Y037396D01*
X013697Y037462D01*
X013526Y037462D01*
X013368Y037396D01*
X013247Y037275D01*
X013181Y037117D01*
X013181Y036946D01*
X013221Y036850D01*
X013221Y036509D01*
X013221Y036354D01*
X013221Y028259D01*
X013221Y028104D01*
X013281Y027961D01*
X013390Y027851D01*
X013534Y027792D01*
X014150Y027792D01*
X014371Y027570D01*
X014371Y027473D01*
X014366Y027479D01*
X014326Y027575D01*
X014205Y027696D01*
X014047Y027762D01*
X013876Y027762D01*
X013718Y027696D01*
X013597Y027575D01*
X013531Y027417D01*
X013531Y027246D01*
X013597Y027088D01*
X013718Y026967D01*
X013814Y026927D01*
X013981Y026761D01*
X019331Y021411D01*
X019350Y021392D01*
X018048Y021392D01*
X017874Y021392D01*
X010274Y013792D01*
X010140Y013792D01*
X010007Y013737D01*
X009906Y013636D01*
X009851Y013503D01*
X009851Y013360D01*
X009906Y013228D01*
X010007Y013127D01*
X010140Y013072D01*
X010283Y013072D01*
X010415Y013127D01*
X010516Y013228D01*
X010571Y013360D01*
X010571Y013495D01*
X012601Y015525D01*
X012601Y014781D01*
X012506Y014686D01*
X012451Y014553D01*
X012451Y014410D01*
X012506Y014278D01*
X012607Y014177D01*
X012740Y014122D01*
X012883Y014122D01*
X013015Y014177D01*
X013116Y014278D01*
X013171Y014410D01*
X013171Y014553D01*
X013116Y014686D01*
X013021Y014781D01*
X013021Y015645D01*
X018148Y020772D01*
X030174Y020772D01*
X030348Y020772D01*
X036948Y027372D01*
X038898Y027372D01*
X039021Y027495D01*
X042606Y031079D01*
X042606Y030593D01*
X042699Y030499D01*
X043397Y030499D01*
X043428Y030469D01*
X042699Y030469D01*
X042606Y030375D01*
X042606Y029673D01*
X042501Y029569D01*
X040774Y027842D01*
X040640Y027842D01*
X040507Y027787D01*
X040406Y027686D01*
X040351Y027553D01*
X040351Y027410D01*
X040380Y027342D01*
X038574Y027342D01*
X038451Y027219D01*
X034324Y023092D01*
X032874Y023092D01*
X032751Y022969D01*
X032074Y022292D01*
X031874Y022292D01*
X031751Y022169D01*
X030324Y020742D01*
X024674Y020742D01*
X024551Y020619D01*
X022724Y018792D01*
X018771Y018792D01*
X018771Y018803D01*
X018716Y018936D01*
X018615Y019037D01*
X018483Y019092D01*
X018340Y019092D01*
X018207Y019037D01*
X018106Y018936D01*
X018051Y018803D01*
X018051Y018660D01*
X018088Y018572D01*
X016393Y018572D01*
X016297Y018612D01*
X016126Y018612D01*
X015968Y018546D01*
X015847Y018425D01*
X015781Y018267D01*
X015781Y018096D01*
X015847Y017938D01*
X015968Y017817D01*
X016126Y017752D01*
X016297Y017752D01*
X016393Y017792D01*
X031170Y017792D01*
X029406Y016028D01*
X029103Y016028D01*
X028786Y015897D01*
X028543Y015654D01*
X028412Y015337D01*
X028412Y015234D01*
X026650Y013472D01*
X026039Y013472D01*
X025884Y013472D01*
X020984Y013472D01*
X020840Y013412D01*
X020731Y013303D01*
X015000Y007572D01*
X012727Y007572D01*
X012938Y007659D01*
X013133Y007854D01*
X013238Y008108D01*
X013238Y008383D01*
X013133Y008637D01*
X012938Y008832D01*
X012684Y008937D01*
X012409Y008937D01*
X012155Y008832D01*
X011961Y008637D01*
X011855Y008383D01*
X011855Y008108D01*
X011961Y007854D01*
X012155Y007659D01*
X012366Y007572D01*
X011934Y007572D01*
X011790Y007512D01*
X011681Y007403D01*
X011098Y006820D01*
X011045Y006842D01*
X010742Y006842D01*
X010462Y006726D01*
X010248Y006511D01*
X010132Y006232D01*
X010132Y005929D01*
X010248Y005649D01*
X010462Y005435D01*
X010742Y005319D01*
X011045Y005319D01*
X011325Y005435D01*
X011539Y005649D01*
X011655Y005929D01*
X011655Y006232D01*
X011642Y006261D01*
X012173Y006792D01*
X012062Y006574D02*
X011954Y006574D01*
X011937Y006415D02*
X011796Y006415D01*
X011871Y006256D02*
X011644Y006256D01*
X011655Y006098D02*
X011855Y006098D01*
X011857Y005939D02*
X011655Y005939D01*
X011593Y005781D02*
X011922Y005781D01*
X012027Y005622D02*
X011512Y005622D01*
X011354Y005464D02*
X012228Y005464D01*
X012403Y004037D02*
X017476Y004037D01*
X017947Y004037D02*
X023440Y004037D01*
X023444Y004033D02*
X023516Y003997D01*
X023592Y003972D01*
X023671Y003960D01*
X023711Y003960D01*
X023711Y004469D01*
X023202Y004469D01*
X023202Y004429D01*
X023214Y004350D01*
X023239Y004274D01*
X023275Y004202D01*
X023323Y004137D01*
X023379Y004081D01*
X023444Y004033D01*
X023280Y004195D02*
X018128Y004195D01*
X018194Y004354D02*
X023214Y004354D01*
X023202Y004470D02*
X023711Y004470D01*
X023711Y004469D01*
X023712Y004469D01*
X023712Y003960D01*
X023752Y003960D01*
X023831Y003972D01*
X023907Y003997D01*
X023979Y004033D01*
X024044Y004081D01*
X024101Y004137D01*
X024148Y004202D01*
X024184Y004274D01*
X024209Y004350D01*
X024222Y004429D01*
X024222Y004469D01*
X023712Y004469D01*
X023712Y004470D01*
X023711Y004470D01*
X023711Y004960D01*
X023711Y005469D01*
X023202Y005469D01*
X023202Y005429D01*
X023214Y005350D01*
X023239Y005274D01*
X023275Y005202D01*
X023323Y005137D01*
X023379Y005081D01*
X023444Y005033D01*
X023516Y004997D01*
X023592Y004972D01*
X023609Y004970D01*
X023592Y004967D01*
X023516Y004942D01*
X023444Y004906D01*
X023379Y004859D01*
X023323Y004802D01*
X023275Y004737D01*
X023239Y004665D01*
X023214Y004589D01*
X023202Y004510D01*
X023202Y004470D01*
X023202Y004512D02*
X018202Y004512D01*
X018159Y004671D02*
X023242Y004671D01*
X023350Y004830D02*
X018045Y004830D01*
X017830Y004988D02*
X023543Y004988D01*
X023711Y004988D02*
X023712Y004988D01*
X023712Y004960D02*
X023712Y005469D01*
X023711Y005469D01*
X023711Y005470D01*
X023202Y005470D01*
X023202Y005510D01*
X023214Y005589D01*
X023239Y005665D01*
X023275Y005737D01*
X023323Y005802D01*
X023379Y005859D01*
X023444Y005906D01*
X023516Y005942D01*
X023592Y005967D01*
X023671Y005980D01*
X023711Y005980D01*
X023711Y005470D01*
X023712Y005470D01*
X023712Y005980D01*
X023752Y005980D01*
X023831Y005967D01*
X023907Y005942D01*
X023979Y005906D01*
X024044Y005859D01*
X024101Y005802D01*
X024148Y005737D01*
X024184Y005665D01*
X024209Y005589D01*
X024222Y005510D01*
X024222Y005470D01*
X023712Y005470D01*
X023712Y005469D01*
X024222Y005469D01*
X024222Y005429D01*
X024209Y005350D01*
X024184Y005274D01*
X024148Y005202D01*
X024101Y005137D01*
X024044Y005081D01*
X023979Y005033D01*
X023907Y004997D01*
X023831Y004972D01*
X023815Y004970D01*
X023831Y004967D01*
X023907Y004942D01*
X023979Y004906D01*
X024044Y004859D01*
X024101Y004802D01*
X024148Y004737D01*
X024184Y004665D01*
X024209Y004589D01*
X024222Y004510D01*
X024222Y004470D01*
X023712Y004470D01*
X023712Y004960D01*
X023711Y004830D02*
X023712Y004830D01*
X023711Y004671D02*
X023712Y004671D01*
X023711Y004512D02*
X023712Y004512D01*
X023711Y004354D02*
X023712Y004354D01*
X023711Y004195D02*
X023712Y004195D01*
X023711Y004037D02*
X023712Y004037D01*
X023984Y004037D02*
X028412Y004037D01*
X028412Y003994D02*
X028543Y003676D01*
X028786Y003434D01*
X029103Y003302D01*
X029446Y003302D01*
X029764Y003434D01*
X030006Y003676D01*
X030138Y003994D01*
X030138Y004337D01*
X030006Y004654D01*
X029764Y004897D01*
X029446Y005028D01*
X029103Y005028D01*
X028786Y004897D01*
X028543Y004654D01*
X028412Y004337D01*
X028412Y003994D01*
X028459Y003878D02*
X012562Y003878D01*
X012660Y003720D02*
X028525Y003720D01*
X028658Y003561D02*
X012733Y003561D01*
X012776Y003403D02*
X028860Y003403D01*
X029689Y003403D02*
X031991Y003403D01*
X032013Y003394D02*
X032116Y003366D01*
X032195Y003356D01*
X032195Y004085D01*
X032355Y004085D01*
X032355Y004245D01*
X033084Y004245D01*
X033074Y004324D01*
X033046Y004427D01*
X033005Y004526D01*
X032952Y004618D01*
X032887Y004702D01*
X032812Y004778D01*
X032727Y004843D01*
X032635Y004896D01*
X032537Y004937D01*
X032434Y004964D01*
X032355Y004975D01*
X032355Y004245D01*
X032195Y004245D01*
X032194Y004245D02*
X032194Y004085D01*
X031465Y004085D01*
X031475Y004006D01*
X031503Y003903D01*
X031544Y003805D01*
X031597Y003713D01*
X031662Y003628D01*
X031737Y003553D01*
X031822Y003488D01*
X031914Y003434D01*
X032013Y003394D01*
X032195Y003403D02*
X032355Y003403D01*
X032355Y003356D02*
X032434Y003366D01*
X032537Y003394D01*
X032635Y003434D01*
X032727Y003488D01*
X032812Y003553D01*
X032887Y003628D01*
X032952Y003713D01*
X033005Y003805D01*
X033046Y003903D01*
X033074Y004006D01*
X033084Y004085D01*
X032355Y004085D01*
X032355Y003356D01*
X032355Y003561D02*
X032195Y003561D01*
X032195Y003720D02*
X032355Y003720D01*
X032355Y003878D02*
X032195Y003878D01*
X032195Y004037D02*
X032355Y004037D01*
X032355Y004195D02*
X035194Y004195D01*
X035194Y004245D02*
X035194Y004085D01*
X034465Y004085D01*
X034475Y004006D01*
X034503Y003903D01*
X034544Y003805D01*
X034597Y003713D01*
X034662Y003628D01*
X034737Y003553D01*
X034822Y003488D01*
X034914Y003434D01*
X035013Y003394D01*
X035116Y003366D01*
X035195Y003356D01*
X035195Y004085D01*
X035355Y004085D01*
X035355Y004245D01*
X036084Y004245D01*
X036074Y004324D01*
X036046Y004427D01*
X036005Y004526D01*
X035952Y004618D01*
X035887Y004702D01*
X035812Y004778D01*
X035727Y004843D01*
X035635Y004896D01*
X035537Y004937D01*
X035434Y004964D01*
X035355Y004975D01*
X035355Y004245D01*
X035195Y004245D01*
X035194Y004245D02*
X034465Y004245D01*
X034475Y004324D01*
X034503Y004427D01*
X034544Y004526D01*
X034597Y004618D01*
X034662Y004702D01*
X034737Y004778D01*
X034822Y004843D01*
X034914Y004896D01*
X035013Y004937D01*
X035116Y004964D01*
X035195Y004975D01*
X035195Y004245D01*
X035195Y004354D02*
X035355Y004354D01*
X035355Y004512D02*
X035195Y004512D01*
X035195Y004671D02*
X035355Y004671D01*
X035355Y004830D02*
X035195Y004830D01*
X034805Y004830D02*
X032745Y004830D01*
X032911Y004671D02*
X034638Y004671D01*
X034538Y004512D02*
X033011Y004512D01*
X033066Y004354D02*
X034483Y004354D01*
X034471Y004037D02*
X033078Y004037D01*
X033036Y003878D02*
X034513Y003878D01*
X034593Y003720D02*
X032956Y003720D01*
X032820Y003561D02*
X034729Y003561D01*
X034991Y003403D02*
X032558Y003403D01*
X031729Y003561D02*
X029891Y003561D01*
X030024Y003720D02*
X031593Y003720D01*
X031513Y003878D02*
X030090Y003878D01*
X030138Y004037D02*
X031471Y004037D01*
X031465Y004245D02*
X032194Y004245D01*
X032195Y004245D02*
X032195Y004975D01*
X032116Y004964D01*
X032013Y004937D01*
X031914Y004896D01*
X031822Y004843D01*
X031737Y004778D01*
X031662Y004702D01*
X031597Y004618D01*
X031544Y004526D01*
X031503Y004427D01*
X031475Y004324D01*
X031465Y004245D01*
X031483Y004354D02*
X030131Y004354D01*
X030138Y004195D02*
X032194Y004195D01*
X032195Y004354D02*
X032355Y004354D01*
X032355Y004512D02*
X032195Y004512D01*
X032195Y004671D02*
X032355Y004671D01*
X032355Y004830D02*
X032195Y004830D01*
X031805Y004830D02*
X029831Y004830D01*
X029989Y004671D02*
X031638Y004671D01*
X031538Y004512D02*
X030065Y004512D01*
X029543Y004988D02*
X103614Y004988D01*
X103582Y005021D02*
X103651Y004951D01*
X103731Y004893D01*
X103819Y004849D01*
X103912Y004818D01*
X103990Y004806D01*
X103990Y005360D01*
X103436Y005360D01*
X103449Y005282D01*
X103479Y005188D01*
X103524Y005101D01*
X103582Y005021D01*
X103500Y005147D02*
X024107Y005147D01*
X024194Y005305D02*
X103445Y005305D01*
X103436Y005497D02*
X103990Y005497D01*
X103990Y005360D01*
X104128Y005360D01*
X104128Y005497D01*
X104682Y005497D01*
X104669Y005575D01*
X104639Y005669D01*
X104594Y005757D01*
X104536Y005836D01*
X104467Y005906D01*
X104387Y005964D01*
X104299Y006009D01*
X104206Y006039D01*
X104128Y006051D01*
X104128Y005498D01*
X103990Y005498D01*
X103990Y006051D01*
X103912Y006039D01*
X103819Y006009D01*
X103731Y005964D01*
X103651Y005906D01*
X103582Y005836D01*
X103524Y005757D01*
X103479Y005669D01*
X103449Y005575D01*
X103436Y005497D01*
X103464Y005622D02*
X090400Y005622D01*
X090366Y005608D02*
X090649Y005725D01*
X090865Y005942D01*
X090982Y006225D01*
X090982Y006531D01*
X090865Y006814D01*
X090649Y007031D01*
X090366Y007148D01*
X090059Y007148D01*
X090015Y007130D01*
X088601Y008543D01*
X088601Y012400D01*
X088641Y012496D01*
X088641Y012667D01*
X088576Y012825D01*
X088455Y012946D01*
X088297Y013012D01*
X088126Y013012D01*
X087968Y012946D01*
X087847Y012825D01*
X087781Y012667D01*
X087781Y012496D01*
X087821Y012400D01*
X087821Y008304D01*
X087881Y008161D01*
X087990Y008051D01*
X089462Y006579D01*
X089443Y006531D01*
X089443Y006225D01*
X089560Y005942D01*
X089776Y005725D01*
X090059Y005608D01*
X090366Y005608D01*
X090025Y005622D02*
X082102Y005622D01*
X082091Y005616D02*
X082172Y005663D01*
X082247Y005720D01*
X082314Y005787D01*
X082371Y005862D01*
X082419Y005944D01*
X082455Y006031D01*
X082479Y006122D01*
X082487Y006183D01*
X081852Y006183D01*
X081852Y006343D01*
X082487Y006343D01*
X082479Y006404D01*
X082455Y006495D01*
X082419Y006582D01*
X082371Y006664D01*
X082314Y006739D01*
X082247Y006805D01*
X082172Y006863D01*
X082091Y006910D01*
X082003Y006946D01*
X081912Y006971D01*
X081851Y006979D01*
X081851Y006343D01*
X081692Y006343D01*
X081692Y006979D01*
X081631Y006971D01*
X081540Y006946D01*
X081452Y006910D01*
X081371Y006863D01*
X081296Y006805D01*
X081229Y006739D01*
X081172Y006664D01*
X081124Y006582D01*
X081088Y006495D01*
X081064Y006404D01*
X081056Y006343D01*
X081691Y006343D01*
X081691Y006183D01*
X081056Y006183D01*
X081064Y006122D01*
X081088Y006031D01*
X081124Y005944D01*
X081172Y005862D01*
X081229Y005787D01*
X081296Y005720D01*
X081371Y005663D01*
X081452Y005616D01*
X081540Y005580D01*
X081631Y005555D01*
X081692Y005547D01*
X081692Y006183D01*
X081851Y006183D01*
X081851Y005547D01*
X081912Y005555D01*
X082003Y005580D01*
X082091Y005616D01*
X081851Y005622D02*
X081692Y005622D01*
X081692Y005781D02*
X081851Y005781D01*
X081851Y005939D02*
X081692Y005939D01*
X081692Y006098D02*
X081851Y006098D01*
X081852Y006256D02*
X089443Y006256D01*
X089443Y006415D02*
X082476Y006415D01*
X082422Y006574D02*
X089460Y006574D01*
X089309Y006732D02*
X082319Y006732D01*
X082124Y006891D02*
X089151Y006891D01*
X088992Y007049D02*
X022656Y007049D01*
X022657Y007046D02*
X022634Y007117D01*
X022600Y007184D01*
X022556Y007245D01*
X022503Y007298D01*
X022442Y007342D01*
X022375Y007376D01*
X022304Y007399D01*
X022229Y007411D01*
X022210Y007411D01*
X022210Y006953D01*
X022173Y006953D01*
X022173Y006916D01*
X021715Y006916D01*
X021715Y006897D01*
X021727Y006822D01*
X021750Y006751D01*
X021784Y006684D01*
X021828Y006624D01*
X021881Y006570D01*
X021942Y006526D01*
X022009Y006492D01*
X022080Y006469D01*
X022154Y006457D01*
X022173Y006457D01*
X022173Y006915D01*
X022210Y006915D01*
X022210Y006457D01*
X022229Y006457D01*
X022304Y006469D01*
X022375Y006492D01*
X022442Y006526D01*
X022503Y006570D01*
X022556Y006624D01*
X022600Y006684D01*
X022634Y006751D01*
X022657Y006822D01*
X022669Y006897D01*
X022669Y006916D01*
X022211Y006916D01*
X022211Y006953D01*
X022669Y006953D01*
X022669Y006972D01*
X022657Y007046D01*
X022668Y006891D02*
X078119Y006891D01*
X078152Y006910D02*
X078071Y006863D01*
X077996Y006805D01*
X077929Y006739D01*
X077872Y006664D01*
X077824Y006582D01*
X077788Y006495D01*
X077764Y006404D01*
X077756Y006343D01*
X078391Y006343D01*
X078391Y006183D01*
X077756Y006183D01*
X077764Y006122D01*
X077788Y006031D01*
X077824Y005944D01*
X077872Y005862D01*
X077929Y005787D01*
X077996Y005720D01*
X078071Y005663D01*
X078152Y005616D01*
X078240Y005580D01*
X078331Y005555D01*
X078392Y005547D01*
X078392Y006183D01*
X078551Y006183D01*
X078551Y005547D01*
X078612Y005555D01*
X078703Y005580D01*
X078791Y005616D01*
X078872Y005663D01*
X078947Y005720D01*
X079014Y005787D01*
X079071Y005862D01*
X079119Y005944D01*
X079155Y006031D01*
X079179Y006122D01*
X079187Y006183D01*
X078552Y006183D01*
X078552Y006343D01*
X079187Y006343D01*
X079179Y006404D01*
X079155Y006495D01*
X079119Y006582D01*
X079071Y006664D01*
X079014Y006739D01*
X078947Y006805D01*
X078872Y006863D01*
X078791Y006910D01*
X078703Y006946D01*
X078612Y006971D01*
X078551Y006979D01*
X078551Y006343D01*
X078392Y006343D01*
X078392Y006979D01*
X078331Y006971D01*
X078240Y006946D01*
X078152Y006910D01*
X078392Y006891D02*
X078551Y006891D01*
X078551Y006732D02*
X078392Y006732D01*
X078392Y006574D02*
X078551Y006574D01*
X078551Y006415D02*
X078392Y006415D01*
X078391Y006256D02*
X018833Y006256D01*
X018674Y006098D02*
X077770Y006098D01*
X077827Y005939D02*
X023913Y005939D01*
X023712Y005939D02*
X023711Y005939D01*
X023711Y005781D02*
X023712Y005781D01*
X023711Y005622D02*
X023712Y005622D01*
X023711Y005464D02*
X023712Y005464D01*
X023711Y005305D02*
X023712Y005305D01*
X023711Y005147D02*
X023712Y005147D01*
X023880Y004988D02*
X029006Y004988D01*
X028718Y004830D02*
X024073Y004830D01*
X024181Y004671D02*
X028560Y004671D01*
X028484Y004512D02*
X024221Y004512D01*
X024210Y004354D02*
X028419Y004354D01*
X028412Y004195D02*
X024143Y004195D01*
X023316Y005147D02*
X018082Y005147D01*
X018174Y005305D02*
X023229Y005305D01*
X023202Y005464D02*
X018202Y005464D01*
X018199Y005622D02*
X023225Y005622D01*
X023307Y005781D02*
X018357Y005781D01*
X018516Y005939D02*
X023510Y005939D01*
X024116Y005781D02*
X077935Y005781D01*
X078141Y005622D02*
X024198Y005622D01*
X024222Y005464D02*
X103990Y005464D01*
X104128Y005464D02*
X106299Y005464D01*
X106313Y005489D02*
X106264Y005404D01*
X106227Y005314D01*
X106202Y005220D01*
X106193Y005154D01*
X106853Y005154D01*
X106853Y004994D01*
X107013Y004994D01*
X107013Y004334D01*
X107078Y004343D01*
X107173Y004368D01*
X107263Y004406D01*
X107347Y004454D01*
X107425Y004514D01*
X107494Y004583D01*
X107553Y004660D01*
X107602Y004745D01*
X107639Y004835D01*
X107664Y004929D01*
X107673Y004994D01*
X107013Y004994D01*
X107013Y005154D01*
X107673Y005154D01*
X107664Y005220D01*
X107639Y005314D01*
X107602Y005404D01*
X107553Y005489D01*
X107494Y005566D01*
X107425Y005635D01*
X107347Y005694D01*
X107263Y005743D01*
X107173Y005780D01*
X107078Y005806D01*
X107013Y005814D01*
X107013Y005154D01*
X106853Y005154D01*
X106853Y005814D01*
X106788Y005806D01*
X106693Y005780D01*
X106603Y005743D01*
X106519Y005694D01*
X106441Y005635D01*
X106372Y005566D01*
X106313Y005489D01*
X106429Y005622D02*
X104654Y005622D01*
X104577Y005781D02*
X106695Y005781D01*
X106853Y005781D02*
X107013Y005781D01*
X107171Y005781D02*
X107702Y005781D01*
X107702Y005939D02*
X104421Y005939D01*
X104128Y005939D02*
X103990Y005939D01*
X103990Y005781D02*
X104128Y005781D01*
X104128Y005622D02*
X103990Y005622D01*
X104128Y005360D02*
X104682Y005360D01*
X104669Y005282D01*
X104639Y005188D01*
X104594Y005101D01*
X104536Y005021D01*
X104467Y004951D01*
X104387Y004893D01*
X104299Y004849D01*
X104206Y004818D01*
X104128Y004806D01*
X104128Y005360D01*
X104128Y005305D02*
X103990Y005305D01*
X103990Y005147D02*
X104128Y005147D01*
X104128Y004988D02*
X103990Y004988D01*
X103990Y004830D02*
X104128Y004830D01*
X104240Y004830D02*
X106229Y004830D01*
X106227Y004835D02*
X106264Y004745D01*
X106313Y004660D01*
X106372Y004583D01*
X106441Y004514D01*
X106519Y004454D01*
X106603Y004406D01*
X106693Y004368D01*
X106788Y004343D01*
X106853Y004334D01*
X106853Y004994D01*
X106193Y004994D01*
X106202Y004929D01*
X106227Y004835D01*
X106194Y004988D02*
X104504Y004988D01*
X104618Y005147D02*
X106853Y005147D01*
X106853Y005305D02*
X107013Y005305D01*
X107013Y005147D02*
X107702Y005147D01*
X107702Y005305D02*
X107641Y005305D01*
X107702Y005464D02*
X107567Y005464D01*
X107437Y005622D02*
X107702Y005622D01*
X107702Y006098D02*
X090930Y006098D01*
X090982Y006256D02*
X107702Y006256D01*
X107702Y006415D02*
X090982Y006415D01*
X090965Y006574D02*
X107702Y006574D01*
X107702Y006732D02*
X090899Y006732D01*
X090789Y006891D02*
X103835Y006891D01*
X103819Y006896D02*
X103912Y006865D01*
X103990Y006853D01*
X103990Y007407D01*
X103436Y007407D01*
X103449Y007329D01*
X103479Y007236D01*
X103524Y007148D01*
X103582Y007068D01*
X103651Y006999D01*
X103731Y006941D01*
X103819Y006896D01*
X103990Y006891D02*
X104128Y006891D01*
X104128Y006853D02*
X104206Y006865D01*
X104299Y006896D01*
X104387Y006941D01*
X104467Y006999D01*
X104536Y007068D01*
X104594Y007148D01*
X104639Y007236D01*
X104669Y007329D01*
X104682Y007407D01*
X104128Y007407D01*
X104128Y007545D01*
X103990Y007545D01*
X103990Y008099D01*
X103912Y008086D01*
X103819Y008056D01*
X103731Y008011D01*
X103651Y007953D01*
X103582Y007884D01*
X103524Y007804D01*
X103479Y007716D01*
X103449Y007622D01*
X103436Y007545D01*
X103990Y007545D01*
X103990Y007407D01*
X104128Y007407D01*
X104128Y006853D01*
X104283Y006891D02*
X106192Y006891D01*
X106223Y006873D02*
X106309Y006837D01*
X106400Y006813D01*
X106459Y006805D01*
X106459Y007435D01*
X105829Y007435D01*
X105837Y007376D01*
X105861Y007285D01*
X105897Y007199D01*
X105944Y007117D01*
X106001Y007043D01*
X106067Y006977D01*
X106141Y006920D01*
X106223Y006873D01*
X106459Y006891D02*
X106619Y006891D01*
X106619Y006805D02*
X106679Y006813D01*
X106769Y006837D01*
X106856Y006873D01*
X106937Y006920D01*
X107011Y006977D01*
X107078Y007043D01*
X107135Y007117D01*
X107181Y007199D01*
X107217Y007285D01*
X107241Y007376D01*
X107249Y007435D01*
X106619Y007435D01*
X106619Y006805D01*
X106619Y007049D02*
X106459Y007049D01*
X106459Y007208D02*
X106619Y007208D01*
X106619Y007366D02*
X106459Y007366D01*
X106459Y007435D02*
X106619Y007435D01*
X106619Y007595D01*
X106459Y007595D01*
X106459Y007435D01*
X106459Y007525D02*
X104128Y007525D01*
X104128Y007545D02*
X104682Y007545D01*
X104669Y007622D01*
X104639Y007716D01*
X104594Y007804D01*
X104536Y007884D01*
X104467Y007953D01*
X104387Y008011D01*
X104299Y008056D01*
X104206Y008086D01*
X104128Y008099D01*
X104128Y007545D01*
X104128Y007683D02*
X103990Y007683D01*
X103990Y007525D02*
X089620Y007525D01*
X089778Y007366D02*
X103443Y007366D01*
X103493Y007208D02*
X089937Y007208D01*
X090072Y007840D02*
X089981Y007865D01*
X089893Y007901D01*
X089812Y007948D01*
X089737Y008005D01*
X089670Y008072D01*
X089613Y008147D01*
X089565Y008229D01*
X089529Y008316D01*
X089505Y008407D01*
X089497Y008468D01*
X090132Y008468D01*
X090132Y008628D01*
X089497Y008628D01*
X089505Y008689D01*
X089529Y008780D01*
X089565Y008867D01*
X089613Y008949D01*
X089670Y009024D01*
X089737Y009090D01*
X089812Y009148D01*
X089893Y009195D01*
X089981Y009231D01*
X090072Y009256D01*
X090133Y009264D01*
X090133Y008628D01*
X090292Y008628D01*
X090292Y009264D01*
X090353Y009256D01*
X090444Y009231D01*
X090532Y009195D01*
X090613Y009148D01*
X090688Y009090D01*
X090755Y009024D01*
X090812Y008949D01*
X090860Y008867D01*
X090896Y008780D01*
X090920Y008689D01*
X090928Y008628D01*
X090293Y008628D01*
X090293Y008468D01*
X090928Y008468D01*
X090920Y008407D01*
X090896Y008316D01*
X090860Y008229D01*
X090812Y008147D01*
X090755Y008072D01*
X090688Y008005D01*
X090613Y007948D01*
X090532Y007901D01*
X090444Y007865D01*
X090353Y007840D01*
X090292Y007832D01*
X090292Y008468D01*
X090133Y008468D01*
X090133Y007832D01*
X090072Y007840D01*
X090066Y007842D02*
X089303Y007842D01*
X089461Y007683D02*
X103468Y007683D01*
X103551Y007842D02*
X090359Y007842D01*
X090292Y007842D02*
X090133Y007842D01*
X090133Y008000D02*
X090292Y008000D01*
X090292Y008159D02*
X090133Y008159D01*
X090133Y008318D02*
X090292Y008318D01*
X090293Y008476D02*
X103698Y008476D01*
X103716Y008458D02*
X103938Y008366D01*
X104179Y008366D01*
X104402Y008458D01*
X104573Y008629D01*
X104665Y008851D01*
X104665Y009092D01*
X104573Y009315D01*
X104402Y009486D01*
X104179Y009578D01*
X103938Y009578D01*
X103778Y009511D01*
X102371Y010919D01*
X102248Y011042D01*
X097460Y011042D01*
X097365Y011137D01*
X097233Y011192D01*
X097090Y011192D01*
X096957Y011137D01*
X096856Y011036D01*
X096801Y010903D01*
X096801Y010760D01*
X096856Y010628D01*
X096957Y010527D01*
X097090Y010472D01*
X097233Y010472D01*
X097365Y010527D01*
X097460Y010622D01*
X102074Y010622D01*
X103497Y009199D01*
X103453Y009092D01*
X103453Y008851D01*
X103545Y008629D01*
X103716Y008458D01*
X103543Y008635D02*
X090927Y008635D01*
X090890Y008793D02*
X103477Y008793D01*
X103453Y008952D02*
X090810Y008952D01*
X090662Y009110D02*
X103460Y009110D01*
X103427Y009269D02*
X088601Y009269D01*
X088601Y009427D02*
X103269Y009427D01*
X103110Y009586D02*
X088601Y009586D01*
X088601Y009744D02*
X095185Y009744D01*
X095240Y009722D02*
X095383Y009722D01*
X095515Y009777D01*
X095616Y009878D01*
X095671Y010010D01*
X095671Y010145D01*
X095748Y010222D01*
X095883Y010222D01*
X096015Y010277D01*
X096116Y010378D01*
X096171Y010510D01*
X096171Y010653D01*
X096116Y010786D01*
X096015Y010887D01*
X095883Y010942D01*
X095740Y010942D01*
X095607Y010887D01*
X095506Y010786D01*
X095451Y010653D01*
X095451Y010519D01*
X095374Y010442D01*
X095240Y010442D01*
X095107Y010387D01*
X095006Y010286D01*
X094951Y010153D01*
X094951Y010010D01*
X095006Y009878D01*
X095107Y009777D01*
X095240Y009722D01*
X095437Y009744D02*
X102952Y009744D01*
X102793Y009903D02*
X095627Y009903D01*
X095671Y010061D02*
X102635Y010061D01*
X102476Y010220D02*
X095746Y010220D01*
X096117Y010379D02*
X102317Y010379D01*
X102159Y010537D02*
X097376Y010537D01*
X096947Y010537D02*
X096171Y010537D01*
X096154Y010696D02*
X096828Y010696D01*
X096801Y010854D02*
X096048Y010854D01*
X095575Y010854D02*
X088601Y010854D01*
X088601Y010696D02*
X095469Y010696D01*
X095451Y010537D02*
X088601Y010537D01*
X088601Y010379D02*
X095099Y010379D01*
X094979Y010220D02*
X088601Y010220D01*
X088601Y010061D02*
X094951Y010061D01*
X094996Y009903D02*
X088601Y009903D01*
X087821Y009903D02*
X018434Y009903D01*
X018592Y010061D02*
X087821Y010061D01*
X087821Y010220D02*
X018751Y010220D01*
X018910Y010379D02*
X087821Y010379D01*
X087821Y010537D02*
X019068Y010537D01*
X019227Y010696D02*
X087821Y010696D01*
X087821Y010854D02*
X019385Y010854D01*
X019544Y011013D02*
X087821Y011013D01*
X087821Y011171D02*
X019702Y011171D01*
X019861Y011330D02*
X087821Y011330D01*
X087821Y011488D02*
X020019Y011488D01*
X020178Y011647D02*
X087821Y011647D01*
X087821Y011805D02*
X063214Y011805D01*
X063058Y011764D02*
X063390Y011853D01*
X063688Y012025D01*
X063931Y012268D01*
X064103Y012566D01*
X064192Y012898D01*
X064192Y013242D01*
X064103Y013575D01*
X063931Y013873D01*
X063688Y014116D01*
X063390Y014288D01*
X063058Y014377D01*
X062714Y014377D01*
X062381Y014288D01*
X062083Y014116D01*
X061840Y013873D01*
X061668Y013575D01*
X061579Y013242D01*
X061579Y012898D01*
X061668Y012566D01*
X061840Y012268D01*
X062083Y012025D01*
X062381Y011853D01*
X062714Y011764D01*
X063058Y011764D01*
X062557Y011805D02*
X043923Y011805D01*
X043766Y011764D02*
X044099Y011853D01*
X044397Y012025D01*
X044640Y012268D01*
X044812Y012566D01*
X044901Y012898D01*
X044901Y013242D01*
X044812Y013575D01*
X044640Y013873D01*
X044397Y014116D01*
X044099Y014288D01*
X043766Y014377D01*
X043422Y014377D01*
X043090Y014288D01*
X042792Y014116D01*
X042549Y013873D01*
X042377Y013575D01*
X042288Y013242D01*
X042288Y012898D01*
X042377Y012566D01*
X042549Y012268D01*
X042792Y012025D01*
X043090Y011853D01*
X043422Y011764D01*
X043766Y011764D01*
X043266Y011805D02*
X020336Y011805D01*
X020495Y011964D02*
X042897Y011964D01*
X042694Y012123D02*
X020654Y012123D01*
X020812Y012281D02*
X042541Y012281D01*
X042450Y012440D02*
X020971Y012440D01*
X021129Y012598D02*
X025637Y012598D01*
X026286Y012598D02*
X042368Y012598D01*
X042325Y012757D02*
X027038Y012757D01*
X027196Y012915D02*
X042288Y012915D01*
X042288Y013074D02*
X027355Y013074D01*
X027513Y013232D02*
X042288Y013232D01*
X042327Y013391D02*
X027672Y013391D01*
X027830Y013549D02*
X042370Y013549D01*
X042454Y013708D02*
X027989Y013708D01*
X028147Y013867D02*
X042545Y013867D01*
X042701Y014025D02*
X028306Y014025D01*
X028465Y014184D02*
X042909Y014184D01*
X042699Y014499D02*
X043481Y014499D01*
X043575Y014593D01*
X043575Y015375D01*
X043481Y015469D01*
X042699Y015469D01*
X042606Y015375D01*
X042606Y014593D01*
X042699Y014499D01*
X042698Y014501D02*
X035744Y014501D01*
X035727Y014488D02*
X035812Y014553D01*
X035887Y014628D01*
X035952Y014713D01*
X036005Y014805D01*
X036046Y014903D01*
X036074Y015006D01*
X036084Y015085D01*
X035355Y015085D01*
X035355Y014356D01*
X035434Y014366D01*
X035537Y014394D01*
X035635Y014434D01*
X035727Y014488D01*
X035911Y014659D02*
X042606Y014659D01*
X042606Y014818D02*
X036011Y014818D01*
X036066Y014976D02*
X042606Y014976D01*
X042606Y015135D02*
X035355Y015135D01*
X035355Y015293D02*
X035195Y015293D01*
X035195Y015452D02*
X035355Y015452D01*
X035355Y015611D02*
X035195Y015611D01*
X035195Y015769D02*
X035355Y015769D01*
X035355Y015928D02*
X035195Y015928D01*
X034991Y015928D02*
X034007Y015928D01*
X034292Y015769D02*
X034729Y015769D01*
X034593Y015611D02*
X034449Y015611D01*
X034489Y014818D02*
X034539Y014818D01*
X034638Y014659D02*
X034390Y014659D01*
X034232Y014501D02*
X034805Y014501D01*
X035195Y014501D02*
X035355Y014501D01*
X035355Y014659D02*
X035195Y014659D01*
X035195Y014818D02*
X035355Y014818D01*
X035355Y014976D02*
X035195Y014976D01*
X036078Y015293D02*
X042606Y015293D01*
X042683Y015452D02*
X036036Y015452D01*
X035956Y015611D02*
X042606Y015611D01*
X042606Y015593D02*
X042699Y015499D01*
X043481Y015499D01*
X043575Y015593D01*
X043575Y016375D01*
X043481Y016469D01*
X042699Y016469D01*
X042606Y016375D01*
X042606Y015593D01*
X042606Y015769D02*
X035821Y015769D01*
X035559Y015928D02*
X042606Y015928D01*
X042606Y016086D02*
X030567Y016086D01*
X030543Y015928D02*
X030409Y015928D01*
X030257Y015769D02*
X030250Y015769D01*
X030101Y015611D02*
X030091Y015611D01*
X029464Y016086D02*
X013463Y016086D01*
X013621Y016245D02*
X029623Y016245D01*
X029781Y016403D02*
X013780Y016403D01*
X013938Y016562D02*
X029940Y016562D01*
X030098Y016720D02*
X014097Y016720D01*
X014255Y016879D02*
X030257Y016879D01*
X030415Y017037D02*
X014414Y017037D01*
X014572Y017196D02*
X030574Y017196D01*
X030732Y017354D02*
X014731Y017354D01*
X014889Y017513D02*
X030891Y017513D01*
X031050Y017672D02*
X015048Y017672D01*
X015206Y017830D02*
X015955Y017830D01*
X015826Y017989D02*
X015365Y017989D01*
X015524Y018147D02*
X015781Y018147D01*
X015797Y018306D02*
X015682Y018306D01*
X015841Y018464D02*
X015886Y018464D01*
X015999Y018623D02*
X018067Y018623D01*
X018051Y018781D02*
X016158Y018781D01*
X016316Y018940D02*
X018110Y018940D01*
X018147Y019152D02*
X018243Y019192D01*
X019673Y019192D01*
X019719Y019146D01*
X019899Y019071D01*
X020614Y019071D01*
X020794Y019146D01*
X020932Y019283D01*
X021006Y019463D01*
X021006Y019658D01*
X020972Y019741D01*
X021073Y019842D01*
X021300Y019842D01*
X021507Y019635D01*
X021507Y019463D01*
X021581Y019283D01*
X021719Y019146D01*
X021899Y019071D01*
X022614Y019071D01*
X022794Y019146D01*
X022932Y019283D01*
X023006Y019463D01*
X023006Y019658D01*
X022932Y019839D01*
X022794Y019976D01*
X022614Y020051D01*
X022194Y020051D01*
X021682Y020562D01*
X021539Y020622D01*
X021384Y020622D01*
X020834Y020622D01*
X020690Y020562D01*
X020581Y020453D01*
X020179Y020051D01*
X019899Y020051D01*
X019719Y019976D01*
X019714Y019972D01*
X018243Y019972D01*
X018147Y020012D01*
X017976Y020012D01*
X017818Y019946D01*
X017697Y019825D01*
X017631Y019667D01*
X017631Y019496D01*
X017697Y019338D01*
X017818Y019217D01*
X017976Y019152D01*
X018147Y019152D01*
X017778Y019257D02*
X016633Y019257D01*
X016475Y019098D02*
X019833Y019098D01*
X020680Y019098D02*
X021833Y019098D01*
X021607Y019257D02*
X020906Y019257D01*
X020987Y019416D02*
X021526Y019416D01*
X021507Y019574D02*
X021006Y019574D01*
X020976Y019733D02*
X021409Y019733D01*
X022036Y020208D02*
X024141Y020208D01*
X023982Y020050D02*
X022617Y020050D01*
X022879Y019891D02*
X023824Y019891D01*
X023665Y019733D02*
X022976Y019733D01*
X023006Y019574D02*
X023507Y019574D01*
X023348Y019416D02*
X022987Y019416D01*
X022906Y019257D02*
X023189Y019257D01*
X023031Y019098D02*
X022680Y019098D01*
X022872Y018940D02*
X018712Y018940D01*
X017665Y019416D02*
X016792Y019416D01*
X016950Y019574D02*
X017631Y019574D01*
X017658Y019733D02*
X017109Y019733D01*
X017268Y019891D02*
X017763Y019891D01*
X017585Y020208D02*
X020336Y020208D01*
X020495Y020367D02*
X017743Y020367D01*
X017902Y020525D02*
X020653Y020525D01*
X019896Y020050D02*
X017426Y020050D01*
X017008Y020525D02*
X000687Y020525D01*
X000687Y020367D02*
X016849Y020367D01*
X016691Y020208D02*
X000687Y020208D01*
X000687Y020050D02*
X016532Y020050D01*
X016374Y019891D02*
X000687Y019891D01*
X000687Y019733D02*
X016215Y019733D01*
X016057Y019574D02*
X000687Y019574D01*
X000687Y019416D02*
X015898Y019416D01*
X015740Y019257D02*
X000687Y019257D01*
X000687Y019098D02*
X015581Y019098D01*
X015422Y018940D02*
X000687Y018940D01*
X000687Y018781D02*
X015264Y018781D01*
X015105Y018623D02*
X000687Y018623D01*
X000686Y018464D02*
X014947Y018464D01*
X014788Y018306D02*
X000686Y018306D01*
X000686Y018147D02*
X014630Y018147D01*
X014471Y017989D02*
X000686Y017989D01*
X000686Y017830D02*
X014313Y017830D01*
X014154Y017672D02*
X000686Y017672D01*
X000686Y017513D02*
X013996Y017513D01*
X013837Y017354D02*
X000686Y017354D01*
X000686Y017196D02*
X013678Y017196D01*
X013520Y017037D02*
X000686Y017037D01*
X000686Y016879D02*
X013361Y016879D01*
X013203Y016720D02*
X000686Y016720D01*
X000686Y016562D02*
X013044Y016562D01*
X012886Y016403D02*
X000686Y016403D01*
X000686Y016245D02*
X012727Y016245D01*
X012569Y016086D02*
X000686Y016086D01*
X000686Y015928D02*
X012410Y015928D01*
X012252Y015769D02*
X000686Y015769D01*
X000686Y015611D02*
X012093Y015611D01*
X011934Y015452D02*
X000686Y015452D01*
X000686Y015293D02*
X011776Y015293D01*
X011617Y015135D02*
X000686Y015135D01*
X000686Y014976D02*
X011459Y014976D01*
X011300Y014818D02*
X000686Y014818D01*
X000686Y014659D02*
X011142Y014659D01*
X010983Y014501D02*
X000686Y014501D01*
X000686Y014342D02*
X010825Y014342D01*
X010666Y014184D02*
X000686Y014184D01*
X000686Y014025D02*
X010508Y014025D01*
X010349Y013867D02*
X000686Y013867D01*
X000686Y013708D02*
X009978Y013708D01*
X009870Y013549D02*
X000686Y013549D01*
X000686Y013391D02*
X009851Y013391D01*
X009904Y013232D02*
X000686Y013232D01*
X000686Y013074D02*
X010135Y013074D01*
X010288Y013074D02*
X020502Y013074D01*
X020660Y013232D02*
X010518Y013232D01*
X010571Y013391D02*
X020819Y013391D01*
X020343Y012915D02*
X000686Y012915D01*
X000686Y012757D02*
X020185Y012757D01*
X020026Y012598D02*
X000685Y012598D01*
X000685Y012440D02*
X019868Y012440D01*
X019709Y012281D02*
X000685Y012281D01*
X000685Y012123D02*
X019550Y012123D01*
X019392Y011964D02*
X000685Y011964D01*
X000685Y011805D02*
X019233Y011805D01*
X019075Y011647D02*
X000685Y011647D01*
X000685Y011488D02*
X018916Y011488D01*
X018758Y011330D02*
X000685Y011330D01*
X000685Y011171D02*
X018599Y011171D01*
X018441Y011013D02*
X000685Y011013D01*
X000685Y010854D02*
X018282Y010854D01*
X018124Y010696D02*
X000685Y010696D01*
X000685Y010537D02*
X017965Y010537D01*
X017806Y010379D02*
X000685Y010379D01*
X000685Y010220D02*
X017648Y010220D01*
X017489Y010061D02*
X000685Y010061D01*
X000685Y009903D02*
X017331Y009903D01*
X017172Y009744D02*
X000685Y009744D01*
X000685Y009586D02*
X017014Y009586D01*
X016855Y009427D02*
X000685Y009427D01*
X000685Y009269D02*
X016697Y009269D01*
X016538Y009110D02*
X000685Y009110D01*
X000685Y008952D02*
X010807Y008952D01*
X010813Y008952D02*
X010973Y008952D01*
X010973Y008953D02*
X011032Y008945D01*
X011122Y008921D01*
X011209Y008885D01*
X011289Y008838D01*
X011363Y008782D01*
X011429Y008716D01*
X011486Y008642D01*
X011533Y008561D01*
X011568Y008475D01*
X011593Y008385D01*
X011600Y008325D01*
X010973Y008325D01*
X010973Y008166D01*
X011600Y008166D01*
X011593Y008106D01*
X011568Y008016D01*
X011533Y007930D01*
X011486Y007849D01*
X011429Y007775D01*
X011363Y007709D01*
X011289Y007653D01*
X011209Y007606D01*
X011122Y007570D01*
X011032Y007546D01*
X010973Y007538D01*
X010973Y008165D01*
X010813Y008165D01*
X010813Y007538D01*
X010754Y007546D01*
X010664Y007570D01*
X010578Y007606D01*
X010497Y007653D01*
X010423Y007709D01*
X010357Y007775D01*
X010300Y007849D01*
X010254Y007930D01*
X010218Y008016D01*
X010194Y008106D01*
X010186Y008166D01*
X010813Y008166D01*
X010813Y008325D01*
X010186Y008325D01*
X010194Y008385D01*
X010218Y008475D01*
X010254Y008561D01*
X010300Y008642D01*
X010357Y008716D01*
X010423Y008782D01*
X010497Y008838D01*
X010578Y008885D01*
X010664Y008921D01*
X010754Y008945D01*
X010813Y008953D01*
X010813Y008326D01*
X010973Y008326D01*
X010973Y008953D01*
X010980Y008952D02*
X016380Y008952D01*
X016221Y008793D02*
X012977Y008793D01*
X013134Y008635D02*
X016063Y008635D01*
X015904Y008476D02*
X013200Y008476D01*
X013238Y008318D02*
X015745Y008318D01*
X015587Y008159D02*
X013238Y008159D01*
X013194Y008000D02*
X015428Y008000D01*
X015270Y007842D02*
X013121Y007842D01*
X012963Y007683D02*
X015111Y007683D01*
X015739Y007208D02*
X017290Y007208D01*
X017296Y007192D02*
X017434Y007054D01*
X017614Y006980D01*
X017809Y006980D01*
X017989Y007054D01*
X018127Y007192D01*
X018202Y007372D01*
X018202Y007422D01*
X020424Y007422D01*
X020760Y007086D01*
X020735Y007025D01*
X020735Y006843D01*
X020805Y006675D01*
X020933Y006547D01*
X021101Y006477D01*
X021283Y006477D01*
X021451Y006547D01*
X021579Y006675D01*
X021649Y006843D01*
X021649Y007025D01*
X021579Y007193D01*
X021451Y007321D01*
X021283Y007391D01*
X021101Y007391D01*
X021064Y007376D01*
X020721Y007719D01*
X020598Y007842D01*
X018098Y007842D01*
X018032Y007842D01*
X078073Y007842D01*
X078075Y007839D02*
X078332Y007733D01*
X078611Y007733D01*
X078868Y007839D01*
X079065Y008036D01*
X079171Y008294D01*
X079171Y008572D01*
X079065Y008829D01*
X078868Y009026D01*
X078611Y009133D01*
X078332Y009133D01*
X078075Y009026D01*
X077878Y008829D01*
X077772Y008572D01*
X077772Y008294D01*
X077878Y008036D01*
X078075Y007839D01*
X077914Y008000D02*
X017859Y008000D01*
X017809Y007980D02*
X017989Y008054D01*
X018127Y008192D01*
X018202Y008372D01*
X018202Y008567D01*
X018127Y008747D01*
X017989Y008885D01*
X017809Y008960D01*
X017614Y008960D01*
X017434Y008885D01*
X017296Y008747D01*
X017222Y008567D01*
X017222Y008372D01*
X017296Y008192D01*
X017434Y008054D01*
X017614Y007980D01*
X017809Y007980D01*
X017809Y007960D02*
X017614Y007960D01*
X017434Y007885D01*
X017296Y007747D01*
X017222Y007567D01*
X017222Y007372D01*
X017296Y007192D01*
X017224Y007366D02*
X015897Y007366D01*
X016056Y007525D02*
X017222Y007525D01*
X017270Y007683D02*
X016214Y007683D01*
X016373Y007842D02*
X017391Y007842D01*
X017564Y008000D02*
X016531Y008000D01*
X016690Y008159D02*
X017329Y008159D01*
X017244Y008318D02*
X016849Y008318D01*
X017007Y008476D02*
X017222Y008476D01*
X017250Y008635D02*
X017166Y008635D01*
X017324Y008793D02*
X017342Y008793D01*
X017483Y008952D02*
X017595Y008952D01*
X017641Y009110D02*
X078278Y009110D01*
X078000Y008952D02*
X017828Y008952D01*
X018081Y008793D02*
X077863Y008793D01*
X077797Y008635D02*
X018174Y008635D01*
X018202Y008476D02*
X077772Y008476D01*
X077772Y008318D02*
X018179Y008318D01*
X018094Y008159D02*
X077827Y008159D01*
X078870Y007842D02*
X079723Y007842D01*
X079725Y007839D02*
X079982Y007733D01*
X080261Y007733D01*
X080518Y007839D01*
X080715Y008036D01*
X080821Y008294D01*
X080821Y008572D01*
X080715Y008829D01*
X080518Y009026D01*
X080261Y009133D01*
X079982Y009133D01*
X079725Y009026D01*
X079528Y008829D01*
X079422Y008572D01*
X079422Y008294D01*
X079528Y008036D01*
X079725Y007839D01*
X079564Y008000D02*
X079029Y008000D01*
X079116Y008159D02*
X079477Y008159D01*
X079422Y008318D02*
X079171Y008318D01*
X079171Y008476D02*
X079422Y008476D01*
X079447Y008635D02*
X079146Y008635D01*
X079080Y008793D02*
X079513Y008793D01*
X079650Y008952D02*
X078943Y008952D01*
X078665Y009110D02*
X079928Y009110D01*
X080315Y009110D02*
X081578Y009110D01*
X081632Y009133D02*
X081375Y009026D01*
X081178Y008829D01*
X081072Y008572D01*
X081072Y008294D01*
X081178Y008036D01*
X081375Y007839D01*
X081632Y007733D01*
X081911Y007733D01*
X082168Y007839D01*
X082365Y008036D01*
X082471Y008294D01*
X082471Y008572D01*
X082365Y008829D01*
X082168Y009026D01*
X081911Y009133D01*
X081632Y009133D01*
X081965Y009110D02*
X087821Y009110D01*
X087821Y008952D02*
X082243Y008952D01*
X082380Y008793D02*
X087821Y008793D01*
X087821Y008635D02*
X082446Y008635D01*
X082471Y008476D02*
X087821Y008476D01*
X087821Y008318D02*
X082471Y008318D01*
X082416Y008159D02*
X087883Y008159D01*
X088041Y008000D02*
X082329Y008000D01*
X082170Y007842D02*
X088200Y007842D01*
X088358Y007683D02*
X020757Y007683D01*
X020915Y007525D02*
X088517Y007525D01*
X088675Y007366D02*
X022394Y007366D01*
X022210Y007366D02*
X022173Y007366D01*
X022173Y007411D02*
X022154Y007411D01*
X022080Y007399D01*
X022009Y007376D01*
X021942Y007342D01*
X021881Y007298D01*
X021828Y007245D01*
X021784Y007184D01*
X021750Y007117D01*
X021727Y007046D01*
X021715Y006972D01*
X021715Y006953D01*
X022173Y006953D01*
X022173Y007411D01*
X021990Y007366D02*
X021343Y007366D01*
X021564Y007208D02*
X021801Y007208D01*
X021728Y007049D02*
X021639Y007049D01*
X021649Y006891D02*
X021716Y006891D01*
X021760Y006732D02*
X021603Y006732D01*
X021477Y006574D02*
X021878Y006574D01*
X022173Y006574D02*
X022210Y006574D01*
X022210Y006732D02*
X022173Y006732D01*
X022173Y006891D02*
X022210Y006891D01*
X022210Y007049D02*
X022173Y007049D01*
X022173Y007208D02*
X022210Y007208D01*
X022583Y007208D02*
X088834Y007208D01*
X089144Y008000D02*
X089743Y008000D01*
X089606Y008159D02*
X088986Y008159D01*
X088827Y008318D02*
X089529Y008318D01*
X089498Y008635D02*
X088601Y008635D01*
X088601Y008793D02*
X089535Y008793D01*
X089615Y008952D02*
X088601Y008952D01*
X088601Y009110D02*
X089763Y009110D01*
X090133Y009110D02*
X090292Y009110D01*
X090292Y008952D02*
X090133Y008952D01*
X090133Y008793D02*
X090292Y008793D01*
X090292Y008635D02*
X090133Y008635D01*
X090132Y008476D02*
X088669Y008476D01*
X087821Y009269D02*
X017800Y009269D01*
X017958Y009427D02*
X087821Y009427D01*
X087821Y009586D02*
X018117Y009586D01*
X018275Y009744D02*
X087821Y009744D01*
X088601Y011013D02*
X096847Y011013D01*
X097040Y011171D02*
X088601Y011171D01*
X088601Y011330D02*
X107702Y011330D01*
X107702Y011488D02*
X088601Y011488D01*
X088601Y011647D02*
X107702Y011647D01*
X107702Y011805D02*
X088601Y011805D01*
X088601Y011964D02*
X107702Y011964D01*
X107702Y012123D02*
X088601Y012123D01*
X088601Y012281D02*
X107702Y012281D01*
X107702Y012440D02*
X088618Y012440D01*
X088641Y012598D02*
X107702Y012598D01*
X107702Y012757D02*
X088604Y012757D01*
X088486Y012915D02*
X107702Y012915D01*
X107702Y013074D02*
X064192Y013074D01*
X064192Y013232D02*
X107702Y013232D01*
X107702Y013391D02*
X064153Y013391D01*
X064110Y013549D02*
X107702Y013549D01*
X107702Y013708D02*
X064026Y013708D01*
X063935Y013867D02*
X107702Y013867D01*
X107702Y014025D02*
X102264Y014025D01*
X102360Y014184D02*
X107702Y014184D01*
X107702Y014342D02*
X102371Y014342D01*
X102301Y014501D02*
X107702Y014501D01*
X107702Y014659D02*
X102350Y014659D01*
X102371Y014818D02*
X107702Y014818D01*
X107702Y014976D02*
X102320Y014976D01*
X102100Y015135D02*
X107702Y015135D01*
X107702Y015293D02*
X101797Y015293D01*
X101638Y015452D02*
X107702Y015452D01*
X107702Y015611D02*
X101479Y015611D01*
X101321Y015769D02*
X107702Y015769D01*
X107702Y015928D02*
X101162Y015928D01*
X101004Y016086D02*
X107702Y016086D01*
X107702Y016245D02*
X100845Y016245D01*
X100687Y016403D02*
X107702Y016403D01*
X107702Y016562D02*
X100528Y016562D01*
X100370Y016720D02*
X107702Y016720D01*
X107702Y016879D02*
X100211Y016879D01*
X100053Y017037D02*
X107702Y017037D01*
X107702Y017196D02*
X102183Y017196D01*
X102303Y017354D02*
X107702Y017354D01*
X107702Y017513D02*
X102341Y017513D01*
X102319Y017672D02*
X107702Y017672D01*
X107702Y017830D02*
X102221Y017830D01*
X102006Y017989D02*
X107702Y017989D01*
X107702Y018147D02*
X101847Y018147D01*
X101689Y018306D02*
X107702Y018306D01*
X107702Y018464D02*
X101530Y018464D01*
X101372Y018623D02*
X107702Y018623D01*
X107702Y018781D02*
X101213Y018781D01*
X101055Y018940D02*
X107702Y018940D01*
X107702Y019098D02*
X100896Y019098D01*
X100738Y019257D02*
X107702Y019257D01*
X107702Y019416D02*
X100579Y019416D01*
X100420Y019574D02*
X107702Y019574D01*
X107702Y019733D02*
X100262Y019733D01*
X100103Y019891D02*
X107702Y019891D01*
X107702Y020050D02*
X099945Y020050D01*
X099786Y020208D02*
X107702Y020208D01*
X107702Y020367D02*
X099628Y020367D01*
X099469Y020525D02*
X107702Y020525D01*
X107702Y020684D02*
X099311Y020684D01*
X099152Y020842D02*
X107702Y020842D01*
X107702Y021001D02*
X098994Y021001D01*
X098835Y021160D02*
X107702Y021160D01*
X107702Y021318D02*
X098676Y021318D01*
X098518Y021477D02*
X107702Y021477D01*
X107702Y021635D02*
X098359Y021635D01*
X098201Y021794D02*
X107702Y021794D01*
X107702Y021952D02*
X098042Y021952D01*
X097884Y022111D02*
X107702Y022111D01*
X107702Y022269D02*
X097725Y022269D01*
X097567Y022428D02*
X107702Y022428D01*
X107702Y022586D02*
X097408Y022586D01*
X097250Y022745D02*
X107702Y022745D01*
X107702Y022904D02*
X097091Y022904D01*
X096933Y023062D02*
X107702Y023062D01*
X107702Y023221D02*
X096774Y023221D01*
X096615Y023379D02*
X107702Y023379D01*
X107702Y023538D02*
X096457Y023538D01*
X096298Y023696D02*
X107702Y023696D01*
X107702Y023855D02*
X098522Y023855D01*
X098459Y023818D02*
X098694Y023954D01*
X098885Y024146D01*
X099021Y024380D01*
X099091Y024642D01*
X099091Y024914D01*
X099021Y025176D01*
X098885Y025410D01*
X098694Y025602D01*
X098459Y025738D01*
X098197Y025808D01*
X097925Y025808D01*
X097664Y025738D01*
X097429Y025602D01*
X097237Y025410D01*
X097101Y025176D01*
X097031Y024914D01*
X097031Y024642D01*
X097101Y024380D01*
X097237Y024146D01*
X097429Y023954D01*
X097664Y023818D01*
X097925Y023748D01*
X098197Y023748D01*
X098459Y023818D01*
X098753Y024013D02*
X107702Y024013D01*
X107702Y024172D02*
X098900Y024172D01*
X098992Y024330D02*
X107702Y024330D01*
X107702Y024489D02*
X099050Y024489D01*
X099091Y024647D02*
X107702Y024647D01*
X107702Y024806D02*
X099091Y024806D01*
X099077Y024965D02*
X107702Y024965D01*
X107702Y025123D02*
X099035Y025123D01*
X098960Y025282D02*
X107702Y025282D01*
X107702Y025440D02*
X098856Y025440D01*
X098697Y025599D02*
X102663Y025599D01*
X102619Y025617D02*
X102906Y025498D01*
X103216Y025498D01*
X103503Y025617D01*
X103722Y025836D01*
X103841Y026123D01*
X103841Y026433D01*
X103722Y026720D01*
X103503Y026939D01*
X103216Y027058D01*
X102906Y027058D01*
X102619Y026939D01*
X102400Y026720D01*
X102281Y026433D01*
X102281Y026123D01*
X102400Y025836D01*
X102619Y025617D01*
X102479Y025757D02*
X098386Y025757D01*
X097736Y025757D02*
X094237Y025757D01*
X094396Y025599D02*
X097425Y025599D01*
X097267Y025440D02*
X094554Y025440D01*
X094713Y025282D02*
X097163Y025282D01*
X097087Y025123D02*
X094871Y025123D01*
X095030Y024965D02*
X097045Y024965D01*
X097031Y024806D02*
X095189Y024806D01*
X095347Y024647D02*
X097031Y024647D01*
X097072Y024489D02*
X095506Y024489D01*
X095664Y024330D02*
X097130Y024330D01*
X097222Y024172D02*
X095823Y024172D01*
X095981Y024013D02*
X097369Y024013D01*
X097600Y023855D02*
X096140Y023855D01*
X095512Y023379D02*
X093711Y023379D01*
X093869Y023221D02*
X095671Y023221D01*
X095829Y023062D02*
X094028Y023062D01*
X094186Y022904D02*
X095988Y022904D01*
X096147Y022745D02*
X094345Y022745D01*
X094504Y022586D02*
X096305Y022586D01*
X096464Y022428D02*
X094662Y022428D01*
X094821Y022269D02*
X096622Y022269D01*
X096781Y022111D02*
X094979Y022111D01*
X095138Y021952D02*
X096939Y021952D01*
X097098Y021794D02*
X095296Y021794D01*
X095455Y021635D02*
X097256Y021635D01*
X097415Y021477D02*
X095613Y021477D01*
X095772Y021318D02*
X097573Y021318D01*
X097732Y021160D02*
X095930Y021160D01*
X096089Y021001D02*
X097891Y021001D01*
X098049Y020842D02*
X096248Y020842D01*
X096406Y020684D02*
X098208Y020684D01*
X098366Y020525D02*
X096565Y020525D01*
X096723Y020367D02*
X098525Y020367D01*
X098683Y020208D02*
X096882Y020208D01*
X097040Y020050D02*
X098842Y020050D01*
X099000Y019891D02*
X097199Y019891D01*
X097357Y019733D02*
X099159Y019733D01*
X099317Y019574D02*
X097516Y019574D01*
X097674Y019416D02*
X099476Y019416D01*
X099634Y019257D02*
X097833Y019257D01*
X097991Y019098D02*
X099793Y019098D01*
X099952Y018940D02*
X098150Y018940D01*
X098309Y018781D02*
X100110Y018781D01*
X100269Y018623D02*
X098467Y018623D01*
X098626Y018464D02*
X100427Y018464D01*
X100586Y018306D02*
X098784Y018306D01*
X098943Y018147D02*
X100744Y018147D01*
X100903Y017989D02*
X099101Y017989D01*
X099260Y017830D02*
X101061Y017830D01*
X101220Y017672D02*
X099418Y017672D01*
X099577Y017513D02*
X101378Y017513D01*
X101519Y017354D02*
X099735Y017354D01*
X099894Y017196D02*
X101639Y017196D01*
X100227Y015769D02*
X044575Y015769D01*
X044575Y015611D02*
X100386Y015611D01*
X100544Y015452D02*
X044526Y015452D01*
X044526Y015453D02*
X044485Y015476D01*
X044439Y015489D01*
X044119Y015489D01*
X044119Y015012D01*
X044595Y015012D01*
X044595Y015332D01*
X044583Y015378D01*
X044559Y015419D01*
X044526Y015453D01*
X044481Y015499D02*
X044575Y015593D01*
X044575Y016375D01*
X044481Y016469D01*
X043699Y016469D01*
X043606Y016375D01*
X043606Y015593D01*
X043699Y015499D01*
X044481Y015499D01*
X044595Y015293D02*
X100703Y015293D01*
X100861Y015135D02*
X044595Y015135D01*
X044595Y014955D02*
X044119Y014955D01*
X044119Y014479D01*
X044439Y014479D01*
X044485Y014491D01*
X044526Y014515D01*
X044559Y014548D01*
X044583Y014589D01*
X044595Y014635D01*
X044595Y014955D01*
X044595Y014818D02*
X101178Y014818D01*
X101020Y014976D02*
X044119Y014976D01*
X044119Y014955D02*
X044119Y015012D01*
X044062Y015012D01*
X044062Y014955D01*
X044119Y014955D01*
X044062Y014955D02*
X044062Y014479D01*
X043742Y014479D01*
X043696Y014491D01*
X043655Y014515D01*
X043622Y014548D01*
X043598Y014589D01*
X043586Y014635D01*
X043586Y014955D01*
X044062Y014955D01*
X044062Y014976D02*
X043575Y014976D01*
X043586Y015012D02*
X043586Y015332D01*
X043598Y015378D01*
X043622Y015419D01*
X043655Y015453D01*
X043696Y015476D01*
X043742Y015489D01*
X044062Y015489D01*
X044062Y015012D01*
X043586Y015012D01*
X043575Y015135D02*
X043586Y015135D01*
X043575Y015293D02*
X043586Y015293D01*
X043654Y015452D02*
X043498Y015452D01*
X043575Y015611D02*
X043606Y015611D01*
X043606Y015769D02*
X043575Y015769D01*
X043575Y015928D02*
X043606Y015928D01*
X043606Y016086D02*
X043575Y016086D01*
X043575Y016245D02*
X043606Y016245D01*
X043634Y016403D02*
X043547Y016403D01*
X043481Y016499D02*
X043575Y016593D01*
X043575Y017375D01*
X043481Y017469D01*
X042699Y017469D01*
X042606Y017375D01*
X042606Y016593D01*
X042699Y016499D01*
X043481Y016499D01*
X043544Y016562D02*
X043636Y016562D01*
X043606Y016593D02*
X043699Y016499D01*
X044481Y016499D01*
X044575Y016593D01*
X044575Y017375D01*
X044481Y017469D01*
X043699Y017469D01*
X043606Y017375D01*
X043606Y016593D01*
X043606Y016720D02*
X043575Y016720D01*
X043575Y016879D02*
X043606Y016879D01*
X043606Y017037D02*
X043575Y017037D01*
X043575Y017196D02*
X043606Y017196D01*
X043606Y017354D02*
X043575Y017354D01*
X043485Y017491D02*
X043526Y017515D01*
X043559Y017548D01*
X043583Y017589D01*
X043595Y017635D01*
X043595Y017955D01*
X043119Y017955D01*
X043119Y017479D01*
X043439Y017479D01*
X043485Y017491D01*
X043522Y017513D02*
X043685Y017513D01*
X043699Y017499D02*
X044481Y017499D01*
X044575Y017593D01*
X044575Y018375D01*
X044481Y018469D01*
X043699Y018469D01*
X043606Y018375D01*
X043606Y017593D01*
X043699Y017499D01*
X043606Y017672D02*
X043595Y017672D01*
X043595Y017830D02*
X043606Y017830D01*
X043606Y017989D02*
X043119Y017989D01*
X043119Y018012D02*
X043595Y018012D01*
X043595Y018332D01*
X043583Y018378D01*
X043559Y018419D01*
X043526Y018453D01*
X043485Y018476D01*
X043439Y018489D01*
X043119Y018489D01*
X043119Y018012D01*
X043119Y017955D01*
X043062Y017955D01*
X043062Y017479D01*
X042742Y017479D01*
X042696Y017491D01*
X042655Y017515D01*
X042622Y017548D01*
X042598Y017589D01*
X042586Y017635D01*
X042586Y017955D01*
X043062Y017955D01*
X043062Y018012D01*
X042586Y018012D01*
X042586Y018332D01*
X042598Y018378D01*
X042622Y018419D01*
X042655Y018453D01*
X042696Y018476D01*
X042742Y018489D01*
X043062Y018489D01*
X043062Y018012D01*
X043119Y018012D01*
X043062Y017989D02*
X035870Y017989D01*
X036028Y018147D02*
X042586Y018147D01*
X042586Y018306D02*
X036187Y018306D01*
X036345Y018464D02*
X042675Y018464D01*
X042699Y018499D02*
X043481Y018499D01*
X043575Y018593D01*
X043575Y019375D01*
X043481Y019469D01*
X042699Y019469D01*
X042606Y019375D01*
X042606Y018593D01*
X042699Y018499D01*
X042606Y018623D02*
X036504Y018623D01*
X036662Y018781D02*
X042606Y018781D01*
X042606Y018940D02*
X036821Y018940D01*
X036979Y019098D02*
X042606Y019098D01*
X042606Y019257D02*
X037138Y019257D01*
X037297Y019416D02*
X042646Y019416D01*
X042696Y019491D02*
X042742Y019479D01*
X043062Y019479D01*
X043062Y019955D01*
X043119Y019955D01*
X043119Y019479D01*
X043439Y019479D01*
X043485Y019491D01*
X043526Y019515D01*
X043559Y019548D01*
X043583Y019589D01*
X043595Y019635D01*
X043595Y019955D01*
X043119Y019955D01*
X043119Y020012D01*
X043595Y020012D01*
X043595Y020332D01*
X043583Y020378D01*
X043559Y020419D01*
X043526Y020453D01*
X043485Y020476D01*
X043439Y020489D01*
X043119Y020489D01*
X043119Y020012D01*
X043062Y020012D01*
X043062Y019955D01*
X042586Y019955D01*
X042586Y019635D01*
X042598Y019589D01*
X042622Y019548D01*
X042655Y019515D01*
X042696Y019491D01*
X042607Y019574D02*
X038355Y019574D01*
X038514Y019733D02*
X042586Y019733D01*
X042586Y019891D02*
X038672Y019891D01*
X038831Y020050D02*
X042586Y020050D01*
X042586Y020012D02*
X042586Y020332D01*
X042598Y020378D01*
X042622Y020419D01*
X042655Y020453D01*
X042696Y020476D01*
X042742Y020489D01*
X043062Y020489D01*
X043062Y020012D01*
X042586Y020012D01*
X042586Y020208D02*
X038989Y020208D01*
X039148Y020367D02*
X042595Y020367D01*
X042699Y020499D02*
X043481Y020499D01*
X043575Y020593D01*
X043575Y021375D01*
X043481Y021469D01*
X042699Y021469D01*
X042606Y021375D01*
X042606Y020593D01*
X042699Y020499D01*
X042673Y020525D02*
X039306Y020525D01*
X039465Y020684D02*
X042606Y020684D01*
X042606Y020842D02*
X039623Y020842D01*
X039782Y021001D02*
X042606Y021001D01*
X042606Y021160D02*
X039940Y021160D01*
X040099Y021318D02*
X042606Y021318D01*
X042699Y021499D02*
X043481Y021499D01*
X043575Y021593D01*
X043575Y022375D01*
X043481Y022469D01*
X042699Y022469D01*
X042606Y022375D01*
X042606Y021593D01*
X042699Y021499D01*
X042606Y021635D02*
X040416Y021635D01*
X040258Y021477D02*
X079819Y021477D01*
X079661Y021635D02*
X054779Y021635D01*
X054705Y021592D02*
X055008Y021768D01*
X055256Y022015D01*
X055431Y022318D01*
X055521Y022657D01*
X055521Y023007D01*
X055431Y023345D01*
X055256Y023648D01*
X055008Y023896D01*
X054705Y024071D01*
X054366Y024162D01*
X054016Y024162D01*
X053678Y024071D01*
X053375Y023896D01*
X053127Y023648D01*
X052952Y023345D01*
X052861Y023007D01*
X052861Y022657D01*
X052952Y022318D01*
X053127Y022015D01*
X053375Y021768D01*
X053678Y021592D01*
X054016Y021502D01*
X054366Y021502D01*
X054705Y021592D01*
X055034Y021794D02*
X079502Y021794D01*
X079344Y021952D02*
X055193Y021952D01*
X055311Y022111D02*
X079185Y022111D01*
X079027Y022269D02*
X055402Y022269D01*
X055460Y022428D02*
X078868Y022428D01*
X078710Y022586D02*
X055502Y022586D01*
X055521Y022745D02*
X078551Y022745D01*
X078393Y022904D02*
X055521Y022904D01*
X055506Y023062D02*
X078234Y023062D01*
X078075Y023221D02*
X055464Y023221D01*
X055411Y023379D02*
X077917Y023379D01*
X077758Y023538D02*
X055319Y023538D01*
X055208Y023696D02*
X077600Y023696D01*
X077441Y023855D02*
X055049Y023855D01*
X054805Y024013D02*
X077283Y024013D01*
X077124Y024172D02*
X044575Y024172D01*
X044575Y024330D02*
X076966Y024330D01*
X076807Y024489D02*
X043476Y024489D01*
X043485Y024491D02*
X043526Y024515D01*
X043559Y024548D01*
X043583Y024589D01*
X043595Y024635D01*
X043595Y024955D01*
X043119Y024955D01*
X043119Y024479D01*
X043439Y024479D01*
X043485Y024491D01*
X043481Y024469D02*
X043575Y024375D01*
X043575Y023593D01*
X043481Y023499D01*
X042699Y023499D01*
X042606Y023593D01*
X042606Y024375D01*
X042699Y024469D01*
X043481Y024469D01*
X043606Y024375D02*
X043606Y023593D01*
X043699Y023499D01*
X044481Y023499D01*
X044575Y023593D01*
X044575Y024375D01*
X044481Y024469D01*
X043699Y024469D01*
X043606Y024375D01*
X043606Y024330D02*
X043575Y024330D01*
X043575Y024172D02*
X043606Y024172D01*
X043606Y024013D02*
X043575Y024013D01*
X043575Y023855D02*
X043606Y023855D01*
X043606Y023696D02*
X043575Y023696D01*
X043520Y023538D02*
X043661Y023538D01*
X043699Y023469D02*
X043606Y023375D01*
X043606Y022593D01*
X043699Y022499D01*
X044481Y022499D01*
X044575Y022593D01*
X044575Y023375D01*
X044481Y023469D01*
X043699Y023469D01*
X043610Y023379D02*
X043571Y023379D01*
X043575Y023375D02*
X043481Y023469D01*
X042699Y023469D01*
X042606Y023375D01*
X042606Y022593D01*
X042699Y022499D01*
X043481Y022499D01*
X043575Y022593D01*
X043575Y023375D01*
X043575Y023221D02*
X043606Y023221D01*
X043606Y023062D02*
X043575Y023062D01*
X043575Y022904D02*
X043606Y022904D01*
X043606Y022745D02*
X043575Y022745D01*
X043569Y022586D02*
X043612Y022586D01*
X043696Y022476D02*
X043655Y022453D01*
X043622Y022419D01*
X043598Y022378D01*
X043586Y022332D01*
X043586Y022012D01*
X044062Y022012D01*
X044062Y021955D01*
X044119Y021955D01*
X044119Y021479D01*
X044439Y021479D01*
X044485Y021491D01*
X044526Y021515D01*
X044559Y021548D01*
X044583Y021589D01*
X044595Y021635D01*
X053604Y021635D01*
X053348Y021794D02*
X044595Y021794D01*
X044595Y021952D02*
X053190Y021952D01*
X053072Y022111D02*
X044595Y022111D01*
X044595Y022012D02*
X044595Y022332D01*
X044583Y022378D01*
X044559Y022419D01*
X044526Y022453D01*
X044485Y022476D01*
X044439Y022489D01*
X044119Y022489D01*
X044119Y022012D01*
X044595Y022012D01*
X044595Y021955D02*
X044119Y021955D01*
X044119Y022012D01*
X044062Y022012D01*
X044062Y022489D01*
X043742Y022489D01*
X043696Y022476D01*
X043630Y022428D02*
X043522Y022428D01*
X043575Y022269D02*
X043586Y022269D01*
X043575Y022111D02*
X043586Y022111D01*
X043586Y021955D02*
X043586Y021635D01*
X043575Y021635D01*
X043586Y021635D02*
X043598Y021589D01*
X043622Y021548D01*
X043655Y021515D01*
X043696Y021491D01*
X043742Y021479D01*
X044062Y021479D01*
X044062Y021955D01*
X043586Y021955D01*
X043586Y021952D02*
X043575Y021952D01*
X043575Y021794D02*
X043586Y021794D01*
X043699Y021469D02*
X043606Y021375D01*
X043606Y020593D01*
X043699Y020499D01*
X044481Y020499D01*
X044575Y020593D01*
X044575Y021375D01*
X044481Y021469D01*
X043699Y021469D01*
X043606Y021318D02*
X043575Y021318D01*
X043575Y021160D02*
X043606Y021160D01*
X043606Y021001D02*
X043575Y021001D01*
X043575Y020842D02*
X043606Y020842D01*
X043606Y020684D02*
X043575Y020684D01*
X043508Y020525D02*
X043673Y020525D01*
X043699Y020469D02*
X043606Y020375D01*
X043606Y019593D01*
X043699Y019499D01*
X044481Y019499D01*
X044575Y019593D01*
X044575Y019772D01*
X045812Y019772D01*
X045907Y019677D01*
X046040Y019622D01*
X046183Y019622D01*
X046315Y019677D01*
X046416Y019778D01*
X046471Y019910D01*
X046471Y020053D01*
X046416Y020186D01*
X046315Y020287D01*
X046183Y020342D01*
X046040Y020342D01*
X045907Y020287D01*
X045812Y020192D01*
X044575Y020192D01*
X044575Y020375D01*
X044481Y020469D01*
X043699Y020469D01*
X043606Y020367D02*
X043586Y020367D01*
X043595Y020208D02*
X043606Y020208D01*
X043595Y020050D02*
X043606Y020050D01*
X043595Y019891D02*
X043606Y019891D01*
X043595Y019733D02*
X043606Y019733D01*
X043624Y019574D02*
X043574Y019574D01*
X043534Y019416D02*
X043646Y019416D01*
X043606Y019375D02*
X043606Y018593D01*
X043699Y018499D01*
X044481Y018499D01*
X044575Y018593D01*
X044575Y019375D01*
X044481Y019469D01*
X043699Y019469D01*
X043606Y019375D01*
X043606Y019257D02*
X043575Y019257D01*
X043575Y019098D02*
X043606Y019098D01*
X043606Y018940D02*
X043575Y018940D01*
X043575Y018781D02*
X043606Y018781D01*
X043606Y018623D02*
X043575Y018623D01*
X043505Y018464D02*
X043695Y018464D01*
X043606Y018306D02*
X043595Y018306D01*
X043595Y018147D02*
X043606Y018147D01*
X043119Y018147D02*
X043062Y018147D01*
X043062Y018306D02*
X043119Y018306D01*
X043119Y018464D02*
X043062Y018464D01*
X043062Y017830D02*
X043119Y017830D01*
X043119Y017672D02*
X043062Y017672D01*
X043062Y017513D02*
X043119Y017513D01*
X042658Y017513D02*
X035394Y017513D01*
X035235Y017354D02*
X042606Y017354D01*
X042606Y017196D02*
X031677Y017196D01*
X031518Y017037D02*
X042606Y017037D01*
X042606Y016879D02*
X031360Y016879D01*
X031201Y016720D02*
X042606Y016720D01*
X042636Y016562D02*
X031043Y016562D01*
X030884Y016403D02*
X042634Y016403D01*
X042606Y016245D02*
X030726Y016245D01*
X031007Y015928D02*
X032043Y015928D01*
X031757Y015769D02*
X031292Y015769D01*
X031449Y015611D02*
X031601Y015611D01*
X031535Y015452D02*
X031514Y015452D01*
X031489Y014818D02*
X031560Y014818D01*
X031659Y014659D02*
X031390Y014659D01*
X031232Y014501D02*
X031818Y014501D01*
X032732Y014501D02*
X033318Y014501D01*
X033159Y014659D02*
X032890Y014659D01*
X032989Y014818D02*
X033060Y014818D01*
X033035Y015452D02*
X033014Y015452D01*
X032949Y015611D02*
X033101Y015611D01*
X033257Y015769D02*
X032792Y015769D01*
X032507Y015928D02*
X033543Y015928D01*
X035553Y017672D02*
X042586Y017672D01*
X042586Y017830D02*
X035711Y017830D01*
X034859Y018781D02*
X031169Y018781D01*
X031176Y018788D02*
X031241Y018946D01*
X031241Y019117D01*
X031176Y019275D01*
X031055Y019396D01*
X030897Y019462D01*
X030726Y019462D01*
X030568Y019396D01*
X030543Y019372D01*
X027923Y019372D01*
X027828Y019466D01*
X027828Y019658D01*
X027754Y019839D01*
X027616Y019976D01*
X027436Y020051D01*
X026721Y020051D01*
X026541Y019976D01*
X026403Y019839D01*
X026328Y019658D01*
X026328Y019463D01*
X026403Y019283D01*
X026541Y019146D01*
X026721Y019071D01*
X027121Y019071D01*
X027540Y018651D01*
X027684Y018592D01*
X027839Y018592D01*
X030839Y018592D01*
X030863Y018602D01*
X030897Y018602D01*
X031055Y018667D01*
X031176Y018788D01*
X031239Y018940D02*
X035018Y018940D01*
X035176Y019098D02*
X031241Y019098D01*
X031183Y019257D02*
X035335Y019257D01*
X035494Y019416D02*
X031008Y019416D01*
X030614Y019416D02*
X027879Y019416D01*
X027828Y019574D02*
X028534Y019574D01*
X028540Y019572D02*
X028683Y019572D01*
X028815Y019627D01*
X028916Y019728D01*
X028971Y019860D01*
X028971Y019872D01*
X031601Y019872D01*
X031601Y019860D01*
X031656Y019728D01*
X031757Y019627D01*
X031890Y019572D01*
X032033Y019572D01*
X032165Y019627D01*
X032266Y019728D01*
X032321Y019860D01*
X032321Y020003D01*
X032266Y020136D01*
X032165Y020237D01*
X032033Y020292D01*
X031890Y020292D01*
X031724Y020292D01*
X028683Y020292D01*
X028540Y020292D01*
X028407Y020237D01*
X028306Y020136D01*
X028251Y020003D01*
X028251Y019860D01*
X028306Y019728D01*
X028407Y019627D01*
X028540Y019572D01*
X028688Y019574D02*
X031884Y019574D01*
X032038Y019574D02*
X035652Y019574D01*
X035811Y019733D02*
X032268Y019733D01*
X032321Y019891D02*
X035969Y019891D01*
X036128Y020050D02*
X034400Y020050D01*
X034465Y020077D02*
X034566Y020178D01*
X034621Y020310D01*
X034621Y020445D01*
X035448Y021272D01*
X037450Y021272D01*
X036964Y020786D01*
X036868Y020746D01*
X036816Y020694D01*
X036764Y020677D01*
X036754Y020668D01*
X036740Y020662D01*
X036695Y020617D01*
X036647Y020576D01*
X036641Y020563D01*
X034650Y018572D01*
X023098Y018572D01*
X024848Y020322D01*
X030324Y020322D01*
X030498Y020322D01*
X032048Y021872D01*
X032074Y021872D01*
X032248Y021872D01*
X033048Y022672D01*
X034324Y022672D01*
X034498Y022672D01*
X038748Y026922D01*
X040774Y026922D01*
X040948Y026922D01*
X042612Y028586D01*
X042699Y028499D01*
X043481Y028499D01*
X043575Y028593D01*
X043575Y029071D01*
X043606Y029041D01*
X043606Y028593D01*
X043699Y028499D01*
X044481Y028499D01*
X044575Y028593D01*
X044575Y029375D01*
X044481Y029469D01*
X043771Y029469D01*
X043761Y029479D01*
X044062Y029479D01*
X044062Y029955D01*
X044119Y029955D01*
X044119Y029479D01*
X044439Y029479D01*
X044485Y029491D01*
X044526Y029515D01*
X044559Y029548D01*
X044583Y029589D01*
X044595Y029635D01*
X044595Y029955D01*
X044119Y029955D01*
X044119Y030012D01*
X044595Y030012D01*
X044595Y030072D01*
X044748Y030072D01*
X046954Y030072D01*
X044724Y027842D01*
X044601Y027719D01*
X044601Y027342D01*
X044575Y027342D01*
X044575Y027375D01*
X044481Y027469D01*
X043745Y027469D01*
X043775Y027499D01*
X044481Y027499D01*
X044575Y027593D01*
X044575Y028375D01*
X044481Y028469D01*
X043699Y028469D01*
X043606Y028375D01*
X043606Y027923D01*
X043595Y027913D01*
X043595Y027955D01*
X043119Y027955D01*
X043119Y028012D01*
X043595Y028012D01*
X043595Y028332D01*
X043583Y028378D01*
X043559Y028419D01*
X043526Y028453D01*
X043485Y028476D01*
X043439Y028489D01*
X043119Y028489D01*
X043119Y028012D01*
X043062Y028012D01*
X043062Y027955D01*
X042586Y027955D01*
X042586Y027653D01*
X042501Y027569D01*
X037124Y022192D01*
X036990Y022192D01*
X036857Y022137D01*
X036756Y022036D01*
X036701Y021903D01*
X036701Y021760D01*
X036730Y021692D01*
X035274Y021692D01*
X035151Y021569D01*
X034324Y020742D01*
X034190Y020742D01*
X034057Y020687D01*
X033956Y020586D01*
X033901Y020453D01*
X033901Y020310D01*
X033956Y020178D01*
X034057Y020077D01*
X034190Y020022D01*
X034333Y020022D01*
X034465Y020077D01*
X034579Y020208D02*
X036286Y020208D01*
X036445Y020367D02*
X034621Y020367D01*
X034702Y020525D02*
X036603Y020525D01*
X036784Y020684D02*
X034860Y020684D01*
X035019Y020842D02*
X037020Y020842D01*
X037179Y021001D02*
X035177Y021001D01*
X035336Y021160D02*
X037337Y021160D01*
X036701Y021794D02*
X031970Y021794D01*
X031812Y021635D02*
X035218Y021635D01*
X035059Y021477D02*
X031653Y021477D01*
X031494Y021318D02*
X034901Y021318D01*
X034742Y021160D02*
X031336Y021160D01*
X031177Y021001D02*
X034584Y021001D01*
X034425Y020842D02*
X031019Y020842D01*
X030860Y020684D02*
X034054Y020684D01*
X033931Y020525D02*
X030702Y020525D01*
X030543Y020367D02*
X033901Y020367D01*
X033943Y020208D02*
X032194Y020208D01*
X032302Y020050D02*
X034122Y020050D01*
X034701Y018623D02*
X030947Y018623D01*
X031654Y019733D02*
X028918Y019733D01*
X028304Y019733D02*
X027797Y019733D01*
X027701Y019891D02*
X028251Y019891D01*
X028270Y020050D02*
X027439Y020050D01*
X026718Y020050D02*
X025439Y020050D01*
X025436Y020051D02*
X025616Y019976D01*
X025754Y019839D01*
X025828Y019658D01*
X025828Y019463D01*
X025754Y019283D01*
X025616Y019146D01*
X025436Y019071D01*
X024721Y019071D01*
X024541Y019146D01*
X024403Y019283D01*
X024328Y019463D01*
X024328Y019658D01*
X024403Y019839D01*
X024541Y019976D01*
X024721Y020051D01*
X025436Y020051D01*
X025701Y019891D02*
X026455Y019891D01*
X026359Y019733D02*
X025797Y019733D01*
X025828Y019574D02*
X026328Y019574D01*
X026348Y019416D02*
X025808Y019416D01*
X025727Y019257D02*
X026429Y019257D01*
X026654Y019098D02*
X025502Y019098D01*
X024654Y019098D02*
X023625Y019098D01*
X023466Y018940D02*
X027252Y018940D01*
X027410Y018781D02*
X023308Y018781D01*
X023149Y018623D02*
X027609Y018623D01*
X028379Y020208D02*
X024735Y020208D01*
X024718Y020050D02*
X024576Y020050D01*
X024455Y019891D02*
X024418Y019891D01*
X024359Y019733D02*
X024259Y019733D01*
X024328Y019574D02*
X024100Y019574D01*
X023942Y019416D02*
X024348Y019416D01*
X024429Y019257D02*
X023783Y019257D01*
X024299Y020367D02*
X021878Y020367D01*
X021719Y020525D02*
X024458Y020525D01*
X024616Y020684D02*
X018060Y020684D01*
X017642Y021160D02*
X000687Y021160D01*
X000687Y021318D02*
X017801Y021318D01*
X017484Y021001D02*
X000687Y021001D01*
X000687Y020842D02*
X017325Y020842D01*
X017166Y020684D02*
X000687Y020684D01*
X000687Y021477D02*
X019265Y021477D01*
X019106Y021635D02*
X000687Y021635D01*
X000687Y021794D02*
X018948Y021794D01*
X018789Y021952D02*
X000687Y021952D01*
X000687Y022111D02*
X018631Y022111D01*
X018472Y022269D02*
X000687Y022269D01*
X000687Y022428D02*
X018314Y022428D01*
X018155Y022586D02*
X000687Y022586D01*
X000687Y022745D02*
X017997Y022745D01*
X017838Y022904D02*
X000687Y022904D01*
X000687Y023062D02*
X017679Y023062D01*
X017521Y023221D02*
X000687Y023221D01*
X000687Y023379D02*
X017362Y023379D01*
X017204Y023538D02*
X000687Y023538D01*
X000687Y023696D02*
X017045Y023696D01*
X016887Y023855D02*
X000687Y023855D01*
X000687Y024013D02*
X016728Y024013D01*
X016570Y024172D02*
X000687Y024172D01*
X000688Y024330D02*
X016411Y024330D01*
X016253Y024489D02*
X000688Y024489D01*
X000688Y024647D02*
X016094Y024647D01*
X015935Y024806D02*
X000688Y024806D01*
X000688Y024965D02*
X015777Y024965D01*
X015618Y025123D02*
X000688Y025123D01*
X000688Y025282D02*
X015460Y025282D01*
X015301Y025440D02*
X000688Y025440D01*
X000688Y025599D02*
X015143Y025599D01*
X014984Y025757D02*
X000688Y025757D01*
X000688Y025916D02*
X014826Y025916D01*
X014667Y026074D02*
X000688Y026074D01*
X000688Y026233D02*
X014509Y026233D01*
X014350Y026391D02*
X000688Y026391D01*
X000688Y026550D02*
X014191Y026550D01*
X014033Y026709D02*
X000688Y026709D01*
X000688Y026867D02*
X013874Y026867D01*
X013659Y027026D02*
X000688Y027026D01*
X000688Y027184D02*
X013557Y027184D01*
X013531Y027343D02*
X000688Y027343D01*
X000688Y027501D02*
X013566Y027501D01*
X013681Y027660D02*
X000688Y027660D01*
X000688Y027818D02*
X013470Y027818D01*
X013274Y027977D02*
X000688Y027977D01*
X000688Y028135D02*
X013221Y028135D01*
X013221Y028294D02*
X000688Y028294D01*
X000688Y028453D02*
X013221Y028453D01*
X013221Y028611D02*
X000688Y028611D01*
X000688Y028770D02*
X013221Y028770D01*
X013221Y028928D02*
X000688Y028928D01*
X000688Y029087D02*
X013221Y029087D01*
X013221Y029245D02*
X000688Y029245D01*
X000688Y029404D02*
X013221Y029404D01*
X013221Y029562D02*
X000688Y029562D01*
X000688Y029721D02*
X013221Y029721D01*
X013221Y029879D02*
X000688Y029879D01*
X000689Y030038D02*
X013221Y030038D01*
X013221Y030196D02*
X000689Y030196D01*
X000689Y030355D02*
X013221Y030355D01*
X013221Y030514D02*
X000689Y030514D01*
X000689Y030672D02*
X013221Y030672D01*
X013221Y030831D02*
X000689Y030831D01*
X000689Y030989D02*
X013221Y030989D01*
X013221Y031148D02*
X000689Y031148D01*
X000689Y031306D02*
X013221Y031306D01*
X013221Y031465D02*
X000689Y031465D01*
X000689Y031623D02*
X013221Y031623D01*
X013221Y031782D02*
X000689Y031782D01*
X000689Y031940D02*
X013221Y031940D01*
X013221Y032099D02*
X000689Y032099D01*
X000689Y032258D02*
X013221Y032258D01*
X013221Y032416D02*
X000689Y032416D01*
X000689Y032575D02*
X013221Y032575D01*
X013221Y032733D02*
X000689Y032733D01*
X000689Y032892D02*
X013221Y032892D01*
X013221Y033050D02*
X000689Y033050D01*
X000689Y033209D02*
X013221Y033209D01*
X013221Y033367D02*
X000689Y033367D01*
X000689Y033526D02*
X013221Y033526D01*
X013221Y033684D02*
X000689Y033684D01*
X000689Y033843D02*
X013221Y033843D01*
X013221Y034002D02*
X000689Y034002D01*
X000689Y034160D02*
X013221Y034160D01*
X013221Y034319D02*
X000689Y034319D01*
X000689Y034477D02*
X013221Y034477D01*
X013221Y034636D02*
X000689Y034636D01*
X000689Y034794D02*
X013221Y034794D01*
X013221Y034953D02*
X000689Y034953D01*
X000689Y035111D02*
X013221Y035111D01*
X013221Y035270D02*
X000689Y035270D01*
X000689Y035428D02*
X013221Y035428D01*
X013221Y035587D02*
X000689Y035587D01*
X000689Y035746D02*
X013221Y035746D01*
X013221Y035904D02*
X000690Y035904D01*
X000690Y036063D02*
X013221Y036063D01*
X013221Y036221D02*
X000690Y036221D01*
X000690Y036380D02*
X013221Y036380D01*
X013221Y036538D02*
X000690Y036538D01*
X000690Y036697D02*
X013221Y036697D01*
X013219Y036855D02*
X000690Y036855D01*
X000690Y037014D02*
X013181Y037014D01*
X013204Y037172D02*
X000690Y037172D01*
X000690Y037331D02*
X013302Y037331D01*
X013920Y037331D02*
X014509Y037331D01*
X014667Y037489D02*
X000690Y037489D01*
X000690Y037648D02*
X014826Y037648D01*
X014985Y037807D02*
X000690Y037807D01*
X000690Y037965D02*
X015143Y037965D01*
X015302Y038124D02*
X000690Y038124D01*
X000690Y038282D02*
X015460Y038282D01*
X015619Y038441D02*
X000690Y038441D01*
X000690Y038599D02*
X015777Y038599D01*
X015936Y038758D02*
X000690Y038758D01*
X000690Y038916D02*
X016094Y038916D01*
X016253Y039075D02*
X000690Y039075D01*
X000690Y039233D02*
X008038Y039233D01*
X008057Y039215D02*
X008315Y039108D01*
X008594Y039108D01*
X008852Y039215D01*
X009050Y039413D01*
X009157Y039671D01*
X009157Y039950D01*
X009050Y040209D01*
X008852Y040406D01*
X008594Y040513D01*
X008315Y040513D01*
X008057Y040406D01*
X007859Y040209D01*
X007752Y039950D01*
X007752Y039671D01*
X007859Y039413D01*
X008057Y039215D01*
X007880Y039392D02*
X000690Y039392D01*
X000690Y039551D02*
X007802Y039551D01*
X007752Y039709D02*
X000690Y039709D01*
X000690Y039868D02*
X007752Y039868D01*
X007783Y040026D02*
X000690Y040026D01*
X000690Y040185D02*
X007849Y040185D01*
X007994Y040343D02*
X000690Y040343D01*
X000690Y040502D02*
X008288Y040502D01*
X008621Y040502D02*
X011623Y040502D01*
X011900Y040502D02*
X012284Y040502D01*
X012443Y040660D02*
X000690Y040660D01*
X000690Y040819D02*
X012601Y040819D01*
X012760Y040977D02*
X000690Y040977D01*
X000690Y041136D02*
X012919Y041136D01*
X013077Y041295D02*
X000690Y041295D01*
X000690Y041453D02*
X013236Y041453D01*
X013394Y041612D02*
X000691Y041612D01*
X000691Y041770D02*
X007897Y041770D01*
X007797Y041828D02*
X008041Y041687D01*
X008314Y041614D01*
X008595Y041614D01*
X008868Y041687D01*
X009112Y041828D01*
X009311Y042027D01*
X009452Y042271D01*
X009525Y042544D01*
X009525Y042826D01*
X009452Y043098D01*
X009311Y043342D01*
X009112Y043541D01*
X008868Y043682D01*
X008595Y043755D01*
X008314Y043755D01*
X008041Y043682D01*
X007797Y043541D01*
X007598Y043342D01*
X007457Y043098D01*
X007384Y042826D01*
X007384Y042544D01*
X007457Y042271D01*
X007598Y042027D01*
X007797Y041828D01*
X007696Y041929D02*
X000691Y041929D01*
X000691Y042087D02*
X007563Y042087D01*
X007472Y042246D02*
X000691Y042246D01*
X000691Y042404D02*
X007421Y042404D01*
X007384Y042563D02*
X002224Y042563D01*
X002558Y042721D02*
X007384Y042721D01*
X007399Y042880D02*
X002750Y042880D01*
X002899Y043039D02*
X007441Y043039D01*
X007514Y043197D02*
X002991Y043197D01*
X003071Y043356D02*
X007611Y043356D01*
X007770Y043514D02*
X003113Y043514D01*
X003151Y043673D02*
X008025Y043673D01*
X008884Y043673D02*
X011332Y043673D01*
X011348Y043682D02*
X011104Y043541D01*
X010905Y043342D01*
X010764Y043098D01*
X010691Y042826D01*
X010691Y042544D01*
X010764Y042271D01*
X010905Y042027D01*
X011104Y041828D01*
X011348Y041687D01*
X011621Y041614D01*
X011903Y041614D01*
X012175Y041687D01*
X012419Y041828D01*
X012618Y042027D01*
X012759Y042271D01*
X012832Y042544D01*
X012832Y042826D01*
X012759Y043098D01*
X012618Y043342D01*
X012419Y043541D01*
X012175Y043682D01*
X011903Y043755D01*
X011621Y043755D01*
X011348Y043682D01*
X011077Y043514D02*
X009139Y043514D01*
X009297Y043356D02*
X010919Y043356D01*
X010821Y043197D02*
X009395Y043197D01*
X009468Y043039D02*
X010748Y043039D01*
X010706Y042880D02*
X009510Y042880D01*
X009525Y042721D02*
X010691Y042721D01*
X010691Y042563D02*
X009525Y042563D01*
X009488Y042404D02*
X010728Y042404D01*
X010779Y042246D02*
X009437Y042246D01*
X009346Y042087D02*
X010870Y042087D01*
X011004Y041929D02*
X009213Y041929D01*
X009012Y041770D02*
X011204Y041770D01*
X012319Y041770D02*
X013553Y041770D01*
X013711Y041929D02*
X012520Y041929D01*
X012653Y042087D02*
X013870Y042087D01*
X014028Y042246D02*
X012744Y042246D01*
X012795Y042404D02*
X014187Y042404D01*
X014345Y042563D02*
X012832Y042563D01*
X012832Y042721D02*
X014504Y042721D01*
X014662Y042880D02*
X012818Y042880D01*
X012775Y043039D02*
X014821Y043039D01*
X014980Y043197D02*
X012702Y043197D01*
X012605Y043356D02*
X015138Y043356D01*
X015297Y043514D02*
X012446Y043514D01*
X012191Y043673D02*
X015455Y043673D01*
X015614Y043831D02*
X003151Y043831D01*
X003151Y043990D02*
X015772Y043990D01*
X015931Y044148D02*
X003113Y044148D01*
X003071Y044307D02*
X016089Y044307D01*
X016248Y044465D02*
X002991Y044465D01*
X002900Y044624D02*
X016406Y044624D01*
X016565Y044782D02*
X002751Y044782D01*
X002560Y044941D02*
X016724Y044941D01*
X017000Y044624D02*
X021559Y044624D01*
X021412Y044465D02*
X016842Y044465D01*
X016683Y044307D02*
X021320Y044307D01*
X021241Y044148D02*
X019219Y044148D01*
X019232Y044135D02*
X019139Y044228D01*
X017426Y044228D01*
X017333Y044135D01*
X017333Y042422D01*
X017426Y042328D01*
X019139Y042328D01*
X019232Y042422D01*
X019232Y044135D01*
X019232Y043990D02*
X021198Y043990D01*
X021161Y043831D02*
X019232Y043831D01*
X019232Y043673D02*
X021161Y043673D01*
X021161Y043514D02*
X019232Y043514D01*
X019232Y043356D02*
X021199Y043356D01*
X021241Y043197D02*
X019232Y043197D01*
X019232Y043039D02*
X021322Y043039D01*
X021413Y042880D02*
X019232Y042880D01*
X019232Y042721D02*
X021563Y042721D01*
X021756Y042563D02*
X019232Y042563D01*
X019215Y042404D02*
X022091Y042404D01*
X022890Y042404D02*
X036658Y042404D01*
X036323Y042563D02*
X023225Y042563D01*
X023419Y042721D02*
X036129Y042721D01*
X035980Y042880D02*
X023568Y042880D01*
X023659Y043039D02*
X035889Y043039D01*
X035808Y043197D02*
X023740Y043197D01*
X023782Y043356D02*
X035766Y043356D01*
X035728Y043514D02*
X023821Y043514D01*
X023821Y043673D02*
X035728Y043673D01*
X035728Y043831D02*
X023821Y043831D01*
X023783Y043990D02*
X035765Y043990D01*
X035808Y044148D02*
X023740Y044148D01*
X023661Y044307D02*
X035887Y044307D01*
X035979Y044465D02*
X023570Y044465D01*
X023422Y044624D02*
X036126Y044624D01*
X037989Y044624D02*
X055722Y044624D01*
X055881Y044465D02*
X038137Y044465D01*
X038228Y044307D02*
X056039Y044307D01*
X056198Y044148D02*
X038307Y044148D01*
X038350Y043990D02*
X056356Y043990D01*
X056515Y043831D02*
X038387Y043831D01*
X038387Y043673D02*
X042043Y043673D01*
X042168Y043798D02*
X041910Y043540D01*
X041910Y043358D01*
X042350Y043358D01*
X042350Y043357D01*
X042351Y043357D01*
X042351Y043358D01*
X042790Y043358D01*
X042790Y043540D01*
X042533Y043798D01*
X042351Y043798D01*
X042351Y043358D01*
X042350Y043358D01*
X042350Y043798D01*
X042168Y043798D01*
X042350Y043673D02*
X042351Y043673D01*
X042350Y043514D02*
X042351Y043514D01*
X042351Y043357D02*
X042790Y043357D01*
X042790Y043175D01*
X042533Y042918D01*
X042351Y042918D01*
X042351Y043357D01*
X042350Y043357D02*
X042350Y042918D01*
X042168Y042918D01*
X041910Y043175D01*
X041910Y043357D01*
X042350Y043357D01*
X042350Y043356D02*
X042351Y043356D01*
X042350Y043197D02*
X042351Y043197D01*
X042350Y043039D02*
X042351Y043039D01*
X042654Y043039D02*
X043076Y043039D01*
X043176Y042938D02*
X042930Y043184D01*
X042930Y043532D01*
X043176Y043778D01*
X043524Y043778D01*
X043770Y043532D01*
X043770Y043184D01*
X043524Y042938D01*
X043176Y042938D01*
X042930Y043197D02*
X042790Y043197D01*
X042790Y043356D02*
X042930Y043356D01*
X042930Y043514D02*
X042790Y043514D01*
X042658Y043673D02*
X043072Y043673D01*
X043629Y043673D02*
X044922Y043673D01*
X044780Y043514D02*
X043770Y043514D01*
X043770Y043356D02*
X044780Y043356D01*
X044730Y043197D02*
X043770Y043197D01*
X043625Y043039D02*
X044571Y043039D01*
X044412Y042880D02*
X038135Y042880D01*
X038226Y043039D02*
X042047Y043039D01*
X041910Y043197D02*
X038306Y043197D01*
X038349Y043356D02*
X041910Y043356D01*
X041910Y043514D02*
X038387Y043514D01*
X037986Y042721D02*
X044254Y042721D01*
X044095Y042563D02*
X037792Y042563D01*
X037457Y042404D02*
X043937Y042404D01*
X043778Y042246D02*
X014622Y042246D01*
X014464Y042087D02*
X017866Y042087D01*
X017887Y042108D02*
X017753Y041974D01*
X017753Y041183D01*
X017887Y041048D01*
X018678Y041048D01*
X018812Y041183D01*
X018812Y041974D01*
X018678Y042108D01*
X017887Y042108D01*
X017753Y041929D02*
X017575Y041929D01*
X017570Y041948D02*
X017547Y041989D01*
X017513Y042022D01*
X017472Y042046D01*
X017426Y042058D01*
X017123Y042058D01*
X017123Y041599D01*
X017082Y041599D01*
X017082Y042058D01*
X016779Y042058D01*
X016733Y042046D01*
X016692Y042022D01*
X016658Y041989D01*
X016635Y041948D01*
X016623Y041902D01*
X016623Y041598D01*
X017082Y041598D01*
X017082Y041558D01*
X016623Y041558D01*
X016623Y041255D01*
X016635Y041209D01*
X016658Y041168D01*
X016692Y041134D01*
X016733Y041111D01*
X016779Y041098D01*
X017082Y041098D01*
X017082Y041558D01*
X017123Y041558D01*
X017123Y041598D01*
X017582Y041598D01*
X017582Y041902D01*
X017570Y041948D01*
X017582Y041770D02*
X017753Y041770D01*
X017753Y041612D02*
X017582Y041612D01*
X017582Y041558D02*
X017123Y041558D01*
X017123Y041098D01*
X017426Y041098D01*
X017472Y041111D01*
X017513Y041134D01*
X017547Y041168D01*
X017570Y041209D01*
X017582Y041255D01*
X017582Y041558D01*
X017582Y041453D02*
X017753Y041453D01*
X017753Y041295D02*
X017582Y041295D01*
X017515Y041136D02*
X017800Y041136D01*
X017913Y040866D02*
X017872Y040842D01*
X017838Y040809D01*
X017815Y040768D01*
X017803Y040722D01*
X017803Y040418D01*
X018262Y040418D01*
X018262Y040378D01*
X017803Y040378D01*
X017803Y040075D01*
X017815Y040029D01*
X017838Y039988D01*
X017872Y039954D01*
X017913Y039931D01*
X017959Y039918D01*
X018262Y039918D01*
X018262Y040378D01*
X018303Y040378D01*
X018303Y040418D01*
X018762Y040418D01*
X018762Y040722D01*
X018750Y040768D01*
X018727Y040809D01*
X018693Y040842D01*
X018652Y040866D01*
X018606Y040878D01*
X018303Y040878D01*
X018303Y040419D01*
X018262Y040419D01*
X018262Y040878D01*
X017959Y040878D01*
X017913Y040866D01*
X017849Y040819D02*
X017508Y040819D01*
X017562Y040660D02*
X017803Y040660D01*
X017803Y040502D02*
X017562Y040502D01*
X017562Y040343D02*
X017803Y040343D01*
X017803Y040185D02*
X017605Y040185D01*
X017764Y040026D02*
X017816Y040026D01*
X017922Y039868D02*
X019728Y039868D01*
X019887Y039709D02*
X018081Y039709D01*
X018239Y039551D02*
X020046Y039551D01*
X020204Y039392D02*
X018398Y039392D01*
X018121Y039075D02*
X017348Y039075D01*
X017401Y039233D02*
X017963Y039233D01*
X017804Y039392D02*
X017388Y039392D01*
X017294Y039551D02*
X017646Y039551D01*
X017487Y039709D02*
X012453Y039709D01*
X012453Y039868D02*
X017328Y039868D01*
X016729Y039551D02*
X012402Y039551D01*
X012321Y039392D02*
X016570Y039392D01*
X016540Y039362D02*
X016540Y039362D01*
X016411Y039233D02*
X012162Y039233D01*
X011361Y039233D02*
X010413Y039233D01*
X010397Y039224D02*
X010471Y039267D01*
X010539Y039319D01*
X010600Y039380D01*
X010652Y039447D01*
X010694Y039521D01*
X010727Y039600D01*
X010749Y039683D01*
X010756Y039733D01*
X010186Y039733D01*
X010186Y039888D01*
X010756Y039888D01*
X010749Y039938D01*
X010727Y040021D01*
X010694Y040100D01*
X010652Y040174D01*
X010600Y040242D01*
X010539Y040302D01*
X010471Y040354D01*
X010397Y040397D01*
X010318Y040430D01*
X010236Y040452D01*
X010186Y040458D01*
X010186Y039888D01*
X010030Y039888D01*
X010030Y039733D01*
X009460Y039733D01*
X009467Y039683D01*
X009489Y039600D01*
X009522Y039521D01*
X009564Y039447D01*
X009616Y039380D01*
X009677Y039319D01*
X009745Y039267D01*
X009819Y039224D01*
X009898Y039191D01*
X009980Y039169D01*
X010030Y039163D01*
X010030Y039733D01*
X010186Y039733D01*
X010186Y039163D01*
X010236Y039169D01*
X010318Y039191D01*
X010397Y039224D01*
X010186Y039233D02*
X010030Y039233D01*
X010030Y039392D02*
X010186Y039392D01*
X010186Y039551D02*
X010030Y039551D01*
X010030Y039709D02*
X010186Y039709D01*
X010186Y039868D02*
X011070Y039868D01*
X011070Y039709D02*
X010753Y039709D01*
X010706Y039551D02*
X011121Y039551D01*
X011202Y039392D02*
X010609Y039392D01*
X010725Y040026D02*
X011102Y040026D01*
X011168Y040185D02*
X010643Y040185D01*
X010486Y040343D02*
X011316Y040343D01*
X010186Y040343D02*
X010030Y040343D01*
X010030Y040458D02*
X009980Y040452D01*
X009898Y040430D01*
X009819Y040397D01*
X009745Y040354D01*
X009677Y040302D01*
X009616Y040242D01*
X009564Y040174D01*
X009522Y040100D01*
X009489Y040021D01*
X009467Y039938D01*
X009460Y039888D01*
X010030Y039888D01*
X010030Y040458D01*
X010030Y040185D02*
X010186Y040185D01*
X010186Y040026D02*
X010030Y040026D01*
X010030Y039868D02*
X009157Y039868D01*
X009157Y039709D02*
X009463Y039709D01*
X009510Y039551D02*
X009107Y039551D01*
X009029Y039392D02*
X009607Y039392D01*
X009803Y039233D02*
X008871Y039233D01*
X009126Y040026D02*
X009491Y040026D01*
X009573Y040185D02*
X009060Y040185D01*
X008915Y040343D02*
X009730Y040343D01*
X012421Y040026D02*
X016648Y040026D01*
X016643Y040185D02*
X012561Y040185D01*
X012720Y040343D02*
X016643Y040343D01*
X016643Y040502D02*
X012878Y040502D01*
X013037Y040660D02*
X016643Y040660D01*
X016697Y040819D02*
X013195Y040819D01*
X013354Y040977D02*
X042510Y040977D01*
X042351Y040819D02*
X019868Y040819D01*
X019922Y040660D02*
X042193Y040660D01*
X042034Y040502D02*
X019922Y040502D01*
X019922Y040343D02*
X041876Y040343D01*
X041717Y040185D02*
X020005Y040185D01*
X020164Y040026D02*
X036897Y040026D01*
X036778Y039868D02*
X020322Y039868D01*
X020481Y039709D02*
X036751Y039709D01*
X036797Y039551D02*
X020639Y039551D01*
X019008Y040026D02*
X018749Y040026D01*
X018750Y040029D02*
X018762Y040075D01*
X018762Y040378D01*
X018303Y040378D01*
X018303Y039918D01*
X018606Y039918D01*
X018652Y039931D01*
X018693Y039954D01*
X018727Y039988D01*
X018750Y040029D01*
X018762Y040185D02*
X019003Y040185D01*
X019003Y040343D02*
X018762Y040343D01*
X018762Y040502D02*
X019003Y040502D01*
X019003Y040660D02*
X018762Y040660D01*
X018716Y040819D02*
X019057Y040819D01*
X019096Y041118D02*
X019829Y041118D01*
X019922Y041212D01*
X019922Y041945D01*
X019829Y042038D01*
X019096Y042038D01*
X019003Y041945D01*
X019003Y041212D01*
X019096Y041118D01*
X019079Y041136D02*
X018765Y041136D01*
X018812Y041295D02*
X019003Y041295D01*
X019003Y041453D02*
X018812Y041453D01*
X018812Y041612D02*
X019003Y041612D01*
X019003Y041770D02*
X018812Y041770D01*
X018812Y041929D02*
X019003Y041929D01*
X018699Y042087D02*
X043620Y042087D01*
X043461Y041929D02*
X019922Y041929D01*
X019922Y041770D02*
X043303Y041770D01*
X043144Y041612D02*
X019922Y041612D01*
X019922Y041453D02*
X042986Y041453D01*
X042827Y041295D02*
X019922Y041295D01*
X019846Y041136D02*
X042668Y041136D01*
X042945Y040819D02*
X045201Y040819D01*
X045043Y040660D02*
X042787Y040660D01*
X042628Y040502D02*
X044884Y040502D01*
X044726Y040343D02*
X042470Y040343D01*
X042311Y040185D02*
X044567Y040185D01*
X044409Y040026D02*
X042153Y040026D01*
X042484Y039868D02*
X044250Y039868D01*
X044685Y039709D02*
X047042Y039709D01*
X047200Y039868D02*
X044844Y039868D01*
X045003Y040026D02*
X047359Y040026D01*
X047517Y040185D02*
X045161Y040185D01*
X045320Y040343D02*
X047676Y040343D01*
X047834Y040502D02*
X045478Y040502D01*
X045637Y040660D02*
X047993Y040660D01*
X048151Y040819D02*
X045795Y040819D01*
X045954Y040977D02*
X048310Y040977D01*
X048468Y041136D02*
X046112Y041136D01*
X046271Y041295D02*
X048627Y041295D01*
X048786Y041453D02*
X046429Y041453D01*
X046588Y041612D02*
X048944Y041612D01*
X049103Y041770D02*
X046747Y041770D01*
X046905Y041929D02*
X049261Y041929D01*
X049420Y042087D02*
X047064Y042087D01*
X047222Y042246D02*
X049578Y042246D01*
X049737Y042404D02*
X047381Y042404D01*
X047539Y042563D02*
X049895Y042563D01*
X050054Y042721D02*
X047698Y042721D01*
X047421Y043039D02*
X046475Y043039D01*
X046374Y042938D02*
X046620Y043184D01*
X046620Y043532D01*
X046374Y043778D01*
X046026Y043778D01*
X045780Y043532D01*
X045780Y043184D01*
X046026Y042938D01*
X046374Y042938D01*
X046620Y043197D02*
X047530Y043197D01*
X047530Y043356D02*
X046620Y043356D01*
X046620Y043514D02*
X047613Y043514D01*
X047772Y043673D02*
X046479Y043673D01*
X045922Y043673D02*
X045479Y043673D01*
X045620Y043514D02*
X045780Y043514D01*
X045780Y043356D02*
X045620Y043356D01*
X045620Y043197D02*
X045780Y043197D01*
X045926Y043039D02*
X045475Y043039D01*
X045006Y042880D02*
X047262Y042880D01*
X047104Y042721D02*
X044848Y042721D01*
X044689Y042563D02*
X046945Y042563D01*
X046787Y042404D02*
X044531Y042404D01*
X044372Y042246D02*
X046628Y042246D01*
X046470Y042087D02*
X044214Y042087D01*
X044055Y041929D02*
X046311Y041929D01*
X046153Y041770D02*
X043897Y041770D01*
X043738Y041612D02*
X045994Y041612D01*
X045836Y041453D02*
X043579Y041453D01*
X043421Y041295D02*
X045677Y041295D01*
X045518Y041136D02*
X043262Y041136D01*
X043104Y040977D02*
X045360Y040977D01*
X047318Y039392D02*
X069262Y039392D01*
X069262Y039551D02*
X047477Y039551D01*
X047636Y039709D02*
X069262Y039709D01*
X069262Y039868D02*
X047794Y039868D01*
X047953Y040026D02*
X069262Y040026D01*
X069262Y040185D02*
X048111Y040185D01*
X048270Y040343D02*
X069262Y040343D01*
X069262Y040502D02*
X048428Y040502D01*
X048587Y040660D02*
X069262Y040660D01*
X069262Y040819D02*
X048745Y040819D01*
X048904Y040977D02*
X069262Y040977D01*
X069262Y041136D02*
X049062Y041136D01*
X049221Y041295D02*
X069262Y041295D01*
X069262Y041453D02*
X049379Y041453D01*
X049538Y041612D02*
X069262Y041612D01*
X069262Y041770D02*
X049697Y041770D01*
X049855Y041929D02*
X069262Y041929D01*
X069262Y042087D02*
X050014Y042087D01*
X050172Y042246D02*
X069262Y042246D01*
X069262Y042323D02*
X069262Y035490D01*
X069356Y035397D01*
X076888Y035397D01*
X076982Y035490D01*
X076982Y042323D01*
X076888Y042417D01*
X069356Y042417D01*
X069262Y042323D01*
X069343Y042404D02*
X050331Y042404D01*
X050489Y042563D02*
X090433Y042563D01*
X090275Y042721D02*
X050648Y042721D01*
X050371Y043039D02*
X049325Y043039D01*
X049370Y043084D02*
X049124Y042838D01*
X048776Y042838D01*
X048530Y043084D01*
X048530Y043432D01*
X048776Y043678D01*
X049124Y043678D01*
X049370Y043432D01*
X049370Y043084D01*
X049370Y043197D02*
X050483Y043197D01*
X050483Y043356D02*
X049370Y043356D01*
X049288Y043514D02*
X050566Y043514D01*
X050724Y043673D02*
X049129Y043673D01*
X048772Y043673D02*
X048129Y043673D01*
X048288Y043514D02*
X048613Y043514D01*
X048530Y043356D02*
X048370Y043356D01*
X048370Y043197D02*
X048530Y043197D01*
X048576Y043039D02*
X048325Y043039D01*
X048167Y042880D02*
X048734Y042880D01*
X049167Y042880D02*
X050212Y042880D01*
X051119Y042880D02*
X051687Y042880D01*
X051729Y042838D02*
X052077Y042838D01*
X052323Y043084D01*
X052323Y043432D01*
X052077Y043678D01*
X051729Y043678D01*
X051483Y043432D01*
X051483Y043084D01*
X051729Y042838D01*
X051528Y043039D02*
X051278Y043039D01*
X051323Y043197D02*
X051483Y043197D01*
X051483Y043356D02*
X051323Y043356D01*
X051241Y043514D02*
X051566Y043514D01*
X051724Y043673D02*
X051082Y043673D01*
X052082Y043673D02*
X056673Y043673D01*
X056832Y043514D02*
X052241Y043514D01*
X052323Y043356D02*
X056990Y043356D01*
X057149Y043197D02*
X052323Y043197D01*
X052278Y043039D02*
X089958Y043039D01*
X090116Y042880D02*
X052119Y042880D01*
X055999Y044941D02*
X095161Y044941D01*
X095161Y045100D02*
X065791Y045100D01*
X065791Y045258D02*
X095161Y045258D01*
X095104Y045417D02*
X065849Y045417D01*
X065849Y045575D02*
X095104Y045575D01*
X095104Y045734D02*
X065849Y045734D01*
X065849Y045892D02*
X095104Y045892D01*
X095104Y046051D02*
X065849Y046051D01*
X065849Y046209D02*
X095104Y046209D01*
X095104Y046368D02*
X065849Y046368D01*
X065849Y046526D02*
X095104Y046526D01*
X095104Y046685D02*
X065849Y046685D01*
X065849Y046844D02*
X095104Y046844D01*
X095104Y047002D02*
X065849Y047002D01*
X065849Y047161D02*
X095104Y047161D01*
X095104Y047319D02*
X068208Y047319D01*
X068165Y047277D02*
X068266Y047378D01*
X068321Y047510D01*
X068321Y047653D01*
X068266Y047786D01*
X068214Y047838D01*
X070298Y049922D01*
X070433Y049922D01*
X070565Y049977D01*
X070666Y050078D01*
X070721Y050210D01*
X070721Y050353D01*
X070666Y050486D01*
X070565Y050587D01*
X070433Y050642D01*
X070290Y050642D01*
X070157Y050587D01*
X070056Y050486D01*
X070001Y050353D01*
X070001Y050219D01*
X067751Y047969D01*
X067751Y047881D01*
X067656Y047786D01*
X067601Y047653D01*
X067601Y047510D01*
X067656Y047378D01*
X067757Y047277D01*
X067890Y047222D01*
X068033Y047222D01*
X068165Y047277D01*
X068308Y047478D02*
X095104Y047478D01*
X095104Y047636D02*
X068321Y047636D01*
X068257Y047795D02*
X095104Y047795D01*
X095104Y047953D02*
X068330Y047953D01*
X068488Y048112D02*
X095104Y048112D01*
X095104Y048270D02*
X068647Y048270D01*
X068805Y048429D02*
X095104Y048429D01*
X095104Y048588D02*
X068964Y048588D01*
X069122Y048746D02*
X095104Y048746D01*
X095104Y048905D02*
X069281Y048905D01*
X069440Y049063D02*
X095104Y049063D01*
X095104Y049222D02*
X069598Y049222D01*
X069757Y049380D02*
X095104Y049380D01*
X095104Y049539D02*
X069915Y049539D01*
X070074Y049697D02*
X095104Y049697D01*
X095104Y049856D02*
X070232Y049856D01*
X070603Y050014D02*
X095104Y050014D01*
X095104Y050173D02*
X070706Y050173D01*
X070721Y050331D02*
X095104Y050331D01*
X095104Y050490D02*
X070662Y050490D01*
X070060Y050490D02*
X065849Y050490D01*
X065849Y050331D02*
X070001Y050331D01*
X069955Y050173D02*
X065849Y050173D01*
X065849Y050014D02*
X069797Y050014D01*
X069638Y049856D02*
X065849Y049856D01*
X065849Y049697D02*
X069480Y049697D01*
X069321Y049539D02*
X065849Y049539D01*
X065849Y049380D02*
X069163Y049380D01*
X069004Y049222D02*
X065849Y049222D01*
X065849Y049063D02*
X068846Y049063D01*
X068687Y048905D02*
X065849Y048905D01*
X065849Y048746D02*
X068529Y048746D01*
X068370Y048588D02*
X065849Y048588D01*
X065849Y048429D02*
X068211Y048429D01*
X068053Y048270D02*
X065849Y048270D01*
X065849Y048112D02*
X067894Y048112D01*
X067751Y047953D02*
X065849Y047953D01*
X065849Y047795D02*
X067665Y047795D01*
X067601Y047636D02*
X065849Y047636D01*
X065849Y047478D02*
X067615Y047478D01*
X067715Y047319D02*
X065849Y047319D01*
X065849Y050649D02*
X095104Y050649D01*
X095104Y050807D02*
X065849Y050807D01*
X065849Y050966D02*
X095104Y050966D01*
X095104Y051124D02*
X065849Y051124D01*
X065849Y051283D02*
X095104Y051283D01*
X095104Y051441D02*
X065849Y051441D01*
X065849Y051600D02*
X095104Y051600D01*
X095104Y051758D02*
X065849Y051758D01*
X065849Y051917D02*
X095104Y051917D01*
X095104Y052075D02*
X065849Y052075D01*
X065849Y052234D02*
X081494Y052234D01*
X081414Y052267D02*
X081717Y052141D01*
X082045Y052141D01*
X082349Y052267D01*
X082581Y052499D01*
X082706Y052802D01*
X082706Y053131D01*
X082581Y053434D01*
X082349Y053666D01*
X082045Y053791D01*
X081717Y053791D01*
X081414Y053666D01*
X081182Y053434D01*
X081056Y053131D01*
X081056Y052802D01*
X081182Y052499D01*
X081414Y052267D01*
X081288Y052393D02*
X065849Y052393D01*
X065849Y052551D02*
X081160Y052551D01*
X081095Y052710D02*
X065849Y052710D01*
X065849Y052868D02*
X072417Y052868D01*
X072468Y052817D02*
X072626Y052752D01*
X072797Y052752D01*
X072893Y052792D01*
X074329Y052792D01*
X074426Y052752D01*
X074597Y052752D01*
X074755Y052817D01*
X074876Y052938D01*
X074941Y053096D01*
X074941Y053267D01*
X074876Y053425D01*
X074755Y053546D01*
X074597Y053612D01*
X074426Y053612D01*
X074329Y053572D01*
X072893Y053572D01*
X072797Y053612D01*
X072626Y053612D01*
X072468Y053546D01*
X072347Y053425D01*
X072281Y053267D01*
X072281Y053096D01*
X072347Y052938D01*
X072468Y052817D01*
X072310Y053027D02*
X065849Y053027D01*
X065849Y053185D02*
X072281Y053185D01*
X072313Y053344D02*
X065849Y053344D01*
X065849Y053502D02*
X072424Y053502D01*
X074799Y053502D02*
X081250Y053502D01*
X081145Y053344D02*
X074910Y053344D01*
X074941Y053185D02*
X081079Y053185D01*
X081056Y053027D02*
X074912Y053027D01*
X074806Y052868D02*
X081056Y052868D01*
X081409Y053661D02*
X065849Y053661D01*
X065849Y053819D02*
X095104Y053819D01*
X095104Y053661D02*
X089353Y053661D01*
X089349Y053666D02*
X089045Y053791D01*
X088717Y053791D01*
X088414Y053666D01*
X088182Y053434D01*
X088056Y053131D01*
X088056Y052802D01*
X088182Y052499D01*
X088414Y052267D01*
X088717Y052141D01*
X089045Y052141D01*
X089349Y052267D01*
X089581Y052499D01*
X089706Y052802D01*
X089706Y053131D01*
X089581Y053434D01*
X089349Y053666D01*
X089512Y053502D02*
X095104Y053502D01*
X095104Y053344D02*
X089618Y053344D01*
X089684Y053185D02*
X095104Y053185D01*
X095104Y053027D02*
X089706Y053027D01*
X089706Y052868D02*
X095104Y052868D01*
X095104Y052710D02*
X089668Y052710D01*
X089602Y052551D02*
X095104Y052551D01*
X095104Y052393D02*
X089474Y052393D01*
X089269Y052234D02*
X095104Y052234D01*
X095104Y053978D02*
X065849Y053978D01*
X065849Y054137D02*
X095104Y054137D01*
X095104Y054295D02*
X088999Y054295D01*
X088961Y054295D02*
X088801Y054295D01*
X088801Y054290D02*
X088801Y055052D01*
X088039Y055052D01*
X088051Y054967D01*
X088079Y054860D01*
X088122Y054757D01*
X088177Y054661D01*
X088245Y054573D01*
X088323Y054495D01*
X088411Y054428D01*
X088507Y054372D01*
X088609Y054330D01*
X088716Y054301D01*
X088801Y054290D01*
X088763Y054295D02*
X081999Y054295D01*
X081961Y054295D02*
X081801Y054295D01*
X081801Y054290D02*
X081801Y055052D01*
X081039Y055052D01*
X081051Y054967D01*
X081079Y054860D01*
X081122Y054757D01*
X081177Y054661D01*
X081245Y054573D01*
X081323Y054495D01*
X081411Y054428D01*
X081507Y054372D01*
X081609Y054330D01*
X081716Y054301D01*
X081801Y054290D01*
X081763Y054295D02*
X065849Y054295D01*
X065849Y054454D02*
X081377Y054454D01*
X081215Y054612D02*
X065849Y054612D01*
X065849Y054771D02*
X081116Y054771D01*
X081061Y054929D02*
X065849Y054929D01*
X065849Y055088D02*
X081801Y055088D01*
X081801Y055052D02*
X081801Y055212D01*
X081039Y055212D01*
X081051Y055297D01*
X081079Y055404D01*
X081122Y055506D01*
X081177Y055602D01*
X081245Y055690D01*
X081323Y055768D01*
X081411Y055836D01*
X081507Y055891D01*
X081609Y055934D01*
X081716Y055962D01*
X081801Y055974D01*
X081801Y055212D01*
X081961Y055212D01*
X081961Y055974D01*
X082046Y055962D01*
X082153Y055934D01*
X082256Y055891D01*
X082352Y055836D01*
X082440Y055768D01*
X082518Y055690D01*
X082585Y055602D01*
X082641Y055506D01*
X082683Y055404D01*
X082712Y055297D01*
X082723Y055212D01*
X081961Y055212D01*
X081961Y055052D01*
X081961Y054290D01*
X082046Y054301D01*
X082153Y054330D01*
X082256Y054372D01*
X082352Y054428D01*
X082440Y054495D01*
X082518Y054573D01*
X082585Y054661D01*
X082641Y054757D01*
X082683Y054860D01*
X082712Y054967D01*
X082723Y055052D01*
X081961Y055052D01*
X081801Y055052D01*
X081801Y054929D02*
X081961Y054929D01*
X081961Y054771D02*
X081801Y054771D01*
X081801Y054612D02*
X081961Y054612D01*
X081961Y054454D02*
X081801Y054454D01*
X082385Y054454D02*
X088377Y054454D01*
X088215Y054612D02*
X082548Y054612D01*
X082646Y054771D02*
X088116Y054771D01*
X088061Y054929D02*
X082702Y054929D01*
X082718Y055246D02*
X088044Y055246D01*
X088039Y055212D02*
X088051Y055297D01*
X088079Y055404D01*
X088122Y055506D01*
X088177Y055602D01*
X088245Y055690D01*
X088323Y055768D01*
X088411Y055836D01*
X088507Y055891D01*
X088609Y055934D01*
X088716Y055962D01*
X088801Y055974D01*
X088801Y055212D01*
X088801Y055052D01*
X088961Y055052D01*
X088961Y054290D01*
X089046Y054301D01*
X089153Y054330D01*
X089256Y054372D01*
X089352Y054428D01*
X089440Y054495D01*
X089518Y054573D01*
X089585Y054661D01*
X089641Y054757D01*
X089683Y054860D01*
X089712Y054967D01*
X089723Y055052D01*
X088961Y055052D01*
X088961Y055212D01*
X088801Y055212D01*
X088039Y055212D01*
X088080Y055405D02*
X082683Y055405D01*
X082608Y055563D02*
X088155Y055563D01*
X088276Y055722D02*
X082486Y055722D01*
X082274Y055881D02*
X088488Y055881D01*
X088801Y055881D02*
X088961Y055881D01*
X088961Y055974D02*
X089046Y055962D01*
X089153Y055934D01*
X089256Y055891D01*
X089352Y055836D01*
X089440Y055768D01*
X089518Y055690D01*
X089585Y055602D01*
X089641Y055506D01*
X089683Y055404D01*
X089712Y055297D01*
X089723Y055212D01*
X088961Y055212D01*
X088961Y055974D01*
X088961Y055722D02*
X088801Y055722D01*
X088801Y055563D02*
X088961Y055563D01*
X088961Y055405D02*
X088801Y055405D01*
X088801Y055246D02*
X088961Y055246D01*
X088961Y055088D02*
X095104Y055088D01*
X095104Y055246D02*
X089718Y055246D01*
X089683Y055405D02*
X095104Y055405D01*
X095104Y055563D02*
X089608Y055563D01*
X089486Y055722D02*
X095104Y055722D01*
X095104Y055881D02*
X089274Y055881D01*
X089023Y056926D02*
X089298Y056999D01*
X089544Y057142D01*
X089745Y057343D01*
X089888Y057589D01*
X089961Y057864D01*
X089961Y058148D01*
X089888Y058423D01*
X089745Y058669D01*
X089544Y058870D01*
X089298Y059012D01*
X089023Y059086D01*
X088739Y059086D01*
X088464Y059012D01*
X088218Y058870D01*
X088017Y058669D01*
X087875Y058423D01*
X087801Y058148D01*
X087801Y057864D01*
X087875Y057589D01*
X088017Y057343D01*
X088218Y057142D01*
X088464Y056999D01*
X088739Y056926D01*
X089023Y056926D01*
X089264Y056990D02*
X095104Y056990D01*
X095104Y056832D02*
X065849Y056832D01*
X065849Y056990D02*
X081498Y056990D01*
X081464Y056999D02*
X081739Y056926D01*
X082023Y056926D01*
X082298Y056999D01*
X082544Y057142D01*
X082745Y057343D01*
X082888Y057589D01*
X082961Y057864D01*
X082961Y058148D01*
X082888Y058423D01*
X082745Y058669D01*
X082544Y058870D01*
X082298Y059012D01*
X082023Y059086D01*
X081739Y059086D01*
X081464Y059012D01*
X081218Y058870D01*
X081017Y058669D01*
X080875Y058423D01*
X080801Y058148D01*
X080801Y057864D01*
X080875Y057589D01*
X081017Y057343D01*
X081218Y057142D01*
X081464Y056999D01*
X081211Y057149D02*
X076853Y057149D01*
X076782Y057077D02*
X077028Y057324D01*
X077028Y057671D01*
X076782Y057917D01*
X076434Y057917D01*
X076188Y057671D01*
X076188Y057324D01*
X076434Y057077D01*
X076782Y057077D01*
X077012Y057307D02*
X081052Y057307D01*
X080946Y057466D02*
X077028Y057466D01*
X077028Y057624D02*
X080865Y057624D01*
X080823Y057783D02*
X076916Y057783D01*
X076790Y058057D02*
X077048Y058315D01*
X077048Y058497D01*
X076609Y058497D01*
X076609Y058498D01*
X077048Y058498D01*
X077048Y058680D01*
X076790Y058937D01*
X076608Y058937D01*
X076426Y058937D01*
X076168Y058680D01*
X076168Y058498D01*
X076608Y058498D01*
X076608Y058937D01*
X076608Y058498D01*
X076608Y058498D01*
X076608Y058497D01*
X076608Y058497D01*
X076608Y058057D01*
X076426Y058057D01*
X076168Y058315D01*
X076168Y058497D01*
X076608Y058497D01*
X076608Y058057D01*
X076790Y058057D01*
X076833Y058100D02*
X080801Y058100D01*
X080801Y057942D02*
X065849Y057942D01*
X065849Y058100D02*
X066663Y058100D01*
X066284Y058259D02*
X065849Y058259D01*
X065849Y058417D02*
X066075Y058417D01*
X065917Y058576D02*
X065849Y058576D01*
X065849Y057783D02*
X069271Y057783D01*
X069168Y057680D02*
X069168Y057498D01*
X069608Y057498D01*
X069608Y057937D01*
X069426Y057937D01*
X069168Y057680D01*
X069168Y057624D02*
X065849Y057624D01*
X065849Y057466D02*
X069168Y057466D01*
X069168Y057497D02*
X069168Y057315D01*
X069426Y057057D01*
X069608Y057057D01*
X069608Y057497D01*
X069608Y057497D01*
X069608Y057057D01*
X069790Y057057D01*
X070048Y057315D01*
X070048Y057497D01*
X069609Y057497D01*
X069609Y057498D01*
X070048Y057498D01*
X070048Y057680D01*
X069790Y057937D01*
X069608Y057937D01*
X069608Y057498D01*
X069608Y057498D01*
X069608Y057497D01*
X069168Y057497D01*
X069176Y057307D02*
X065849Y057307D01*
X065849Y057149D02*
X069334Y057149D01*
X069608Y057149D02*
X069608Y057149D01*
X069608Y057307D02*
X069608Y057307D01*
X069608Y057466D02*
X069608Y057466D01*
X069608Y057624D02*
X069608Y057624D01*
X069608Y057783D02*
X069608Y057783D01*
X069608Y058057D02*
X069790Y058057D01*
X070048Y058315D01*
X070048Y058497D01*
X069609Y058497D01*
X069609Y058498D01*
X070048Y058498D01*
X070048Y058680D01*
X069790Y058937D01*
X069608Y058937D01*
X069426Y058937D01*
X069168Y058680D01*
X069168Y058498D01*
X069608Y058498D01*
X069608Y058937D01*
X069608Y058498D01*
X069608Y058498D01*
X069608Y058497D01*
X069608Y058497D01*
X069608Y058057D01*
X069426Y058057D01*
X069168Y058315D01*
X069168Y058497D01*
X069608Y058497D01*
X069608Y058057D01*
X069608Y058100D02*
X069608Y058100D01*
X069608Y058259D02*
X069608Y058259D01*
X069608Y058417D02*
X069608Y058417D01*
X069608Y058576D02*
X069608Y058576D01*
X069608Y058734D02*
X069608Y058734D01*
X069608Y058893D02*
X069608Y058893D01*
X069381Y058893D02*
X068224Y058893D01*
X068267Y059051D02*
X081611Y059051D01*
X081258Y058893D02*
X076835Y058893D01*
X076993Y058734D02*
X081082Y058734D01*
X080963Y058576D02*
X077048Y058576D01*
X077048Y058417D02*
X080873Y058417D01*
X080831Y058259D02*
X076991Y058259D01*
X076608Y058259D02*
X076608Y058259D01*
X076608Y058417D02*
X076608Y058417D01*
X076608Y058576D02*
X076608Y058576D01*
X076608Y058734D02*
X076608Y058734D01*
X076608Y058893D02*
X076608Y058893D01*
X076381Y058893D02*
X075835Y058893D01*
X075790Y058937D02*
X075608Y058937D01*
X075426Y058937D01*
X075168Y058680D01*
X075168Y058498D01*
X075608Y058498D01*
X075608Y058937D01*
X075608Y058498D01*
X075608Y058498D01*
X075608Y058497D01*
X075608Y058497D01*
X075608Y058057D01*
X075426Y058057D01*
X075168Y058315D01*
X075168Y058497D01*
X075608Y058497D01*
X075608Y058057D01*
X075790Y058057D01*
X076048Y058315D01*
X076048Y058497D01*
X075609Y058497D01*
X075609Y058498D01*
X076048Y058498D01*
X076048Y058680D01*
X075790Y058937D01*
X075608Y058893D02*
X075608Y058893D01*
X075608Y058734D02*
X075608Y058734D01*
X075608Y058576D02*
X075608Y058576D01*
X075608Y058417D02*
X075608Y058417D01*
X075608Y058259D02*
X075608Y058259D01*
X075608Y058100D02*
X075608Y058100D01*
X075383Y058100D02*
X074833Y058100D01*
X074790Y058057D02*
X075048Y058315D01*
X075048Y058497D01*
X074609Y058497D01*
X074609Y058498D01*
X075048Y058498D01*
X075048Y058680D01*
X074790Y058937D01*
X074608Y058937D01*
X074426Y058937D01*
X074168Y058680D01*
X074168Y058498D01*
X074608Y058498D01*
X074608Y058937D01*
X074608Y058498D01*
X074608Y058498D01*
X074608Y058497D01*
X074608Y058497D01*
X074608Y058057D01*
X074426Y058057D01*
X074168Y058315D01*
X074168Y058497D01*
X074608Y058497D01*
X074608Y058057D01*
X074790Y058057D01*
X074782Y057917D02*
X074434Y057917D01*
X074188Y057671D01*
X074188Y057324D01*
X074434Y057077D01*
X074782Y057077D01*
X075028Y057324D01*
X075028Y057671D01*
X074782Y057917D01*
X074916Y057783D02*
X075300Y057783D01*
X075188Y057671D02*
X075434Y057917D01*
X075782Y057917D01*
X076028Y057671D01*
X076028Y057324D01*
X075782Y057077D01*
X075434Y057077D01*
X075188Y057324D01*
X075188Y057671D01*
X075188Y057624D02*
X075028Y057624D01*
X075028Y057466D02*
X075188Y057466D01*
X075204Y057307D02*
X075012Y057307D01*
X074853Y057149D02*
X075363Y057149D01*
X075853Y057149D02*
X076363Y057149D01*
X076204Y057307D02*
X076012Y057307D01*
X076028Y057466D02*
X076188Y057466D01*
X076188Y057624D02*
X076028Y057624D01*
X075916Y057783D02*
X076300Y057783D01*
X076383Y058100D02*
X075833Y058100D01*
X075991Y058259D02*
X076225Y058259D01*
X076168Y058417D02*
X076048Y058417D01*
X076048Y058576D02*
X076168Y058576D01*
X076223Y058734D02*
X075993Y058734D01*
X075381Y058893D02*
X074835Y058893D01*
X074993Y058734D02*
X075223Y058734D01*
X075168Y058576D02*
X075048Y058576D01*
X075048Y058417D02*
X075168Y058417D01*
X075225Y058259D02*
X074991Y058259D01*
X074608Y058259D02*
X074608Y058259D01*
X074608Y058417D02*
X074608Y058417D01*
X074608Y058576D02*
X074608Y058576D01*
X074608Y058734D02*
X074608Y058734D01*
X074608Y058893D02*
X074608Y058893D01*
X074381Y058893D02*
X073835Y058893D01*
X073790Y058937D02*
X073608Y058937D01*
X073426Y058937D01*
X073168Y058680D01*
X073168Y058498D01*
X073608Y058498D01*
X073608Y058937D01*
X073608Y058498D01*
X073608Y058498D01*
X073608Y058497D01*
X073608Y058497D01*
X073608Y058057D01*
X073426Y058057D01*
X073168Y058315D01*
X073168Y058497D01*
X073608Y058497D01*
X073608Y058057D01*
X073790Y058057D01*
X074048Y058315D01*
X074048Y058497D01*
X073609Y058497D01*
X073609Y058498D01*
X074048Y058498D01*
X074048Y058680D01*
X073790Y058937D01*
X073608Y058893D02*
X073608Y058893D01*
X073608Y058734D02*
X073608Y058734D01*
X073608Y058576D02*
X073608Y058576D01*
X073608Y058417D02*
X073608Y058417D01*
X073608Y058259D02*
X073608Y058259D01*
X073608Y058100D02*
X073608Y058100D01*
X073383Y058100D02*
X072833Y058100D01*
X072790Y058057D02*
X073048Y058315D01*
X073048Y058497D01*
X072609Y058497D01*
X072609Y058498D01*
X073048Y058498D01*
X073048Y058680D01*
X072790Y058937D01*
X072608Y058937D01*
X072426Y058937D01*
X072168Y058680D01*
X072168Y058498D01*
X072608Y058498D01*
X072608Y058937D01*
X072608Y058498D01*
X072608Y058498D01*
X072608Y058497D01*
X072608Y058497D01*
X072608Y058057D01*
X072426Y058057D01*
X072168Y058315D01*
X072168Y058497D01*
X072608Y058497D01*
X072608Y058057D01*
X072790Y058057D01*
X072790Y057937D02*
X072608Y057937D01*
X072426Y057937D01*
X072168Y057680D01*
X072168Y057498D01*
X072608Y057498D01*
X072608Y057937D01*
X072608Y057498D01*
X072608Y057498D01*
X072608Y057497D01*
X072608Y057497D01*
X072608Y057057D01*
X072426Y057057D01*
X072168Y057315D01*
X072168Y057497D01*
X072608Y057497D01*
X072608Y057057D01*
X072790Y057057D01*
X073048Y057315D01*
X073048Y057497D01*
X072609Y057497D01*
X072609Y057498D01*
X073048Y057498D01*
X073048Y057680D01*
X072790Y057937D01*
X072945Y057783D02*
X073300Y057783D01*
X073188Y057671D02*
X073434Y057917D01*
X073782Y057917D01*
X074028Y057671D01*
X074028Y057324D01*
X073782Y057077D01*
X073434Y057077D01*
X073188Y057324D01*
X073188Y057671D01*
X073188Y057624D02*
X073048Y057624D01*
X073048Y057466D02*
X073188Y057466D01*
X073204Y057307D02*
X073040Y057307D01*
X072882Y057149D02*
X073363Y057149D01*
X073853Y057149D02*
X074363Y057149D01*
X074204Y057307D02*
X074012Y057307D01*
X074028Y057466D02*
X074188Y057466D01*
X074188Y057624D02*
X074028Y057624D01*
X073916Y057783D02*
X074300Y057783D01*
X074383Y058100D02*
X073833Y058100D01*
X073991Y058259D02*
X074225Y058259D01*
X074168Y058417D02*
X074048Y058417D01*
X074048Y058576D02*
X074168Y058576D01*
X074223Y058734D02*
X073993Y058734D01*
X073381Y058893D02*
X072835Y058893D01*
X072993Y058734D02*
X073223Y058734D01*
X073168Y058576D02*
X073048Y058576D01*
X073048Y058417D02*
X073168Y058417D01*
X073225Y058259D02*
X072991Y058259D01*
X072608Y058259D02*
X072608Y058259D01*
X072608Y058417D02*
X072608Y058417D01*
X072608Y058576D02*
X072608Y058576D01*
X072608Y058734D02*
X072608Y058734D01*
X072608Y058893D02*
X072608Y058893D01*
X072381Y058893D02*
X071835Y058893D01*
X071790Y058937D02*
X072048Y058680D01*
X072048Y058498D01*
X071609Y058498D01*
X071609Y058497D01*
X072048Y058497D01*
X072048Y058315D01*
X071790Y058057D01*
X071608Y058057D01*
X071608Y058497D01*
X071608Y058497D01*
X071608Y058057D01*
X071426Y058057D01*
X071168Y058315D01*
X071168Y058497D01*
X071608Y058497D01*
X071608Y058498D01*
X071608Y058937D01*
X071426Y058937D01*
X071168Y058680D01*
X071168Y058498D01*
X071608Y058498D01*
X071608Y058498D01*
X071608Y058937D01*
X071790Y058937D01*
X071608Y058893D02*
X071608Y058893D01*
X071608Y058734D02*
X071608Y058734D01*
X071608Y058576D02*
X071608Y058576D01*
X071608Y058417D02*
X071608Y058417D01*
X071608Y058259D02*
X071608Y058259D01*
X071608Y058100D02*
X071608Y058100D01*
X071608Y057937D02*
X071790Y057937D01*
X072048Y057680D01*
X072048Y057498D01*
X071609Y057498D01*
X071609Y057497D01*
X072048Y057497D01*
X072048Y057315D01*
X071790Y057057D01*
X071608Y057057D01*
X071608Y057497D01*
X071608Y057497D01*
X071608Y057057D01*
X071426Y057057D01*
X071168Y057315D01*
X071168Y057497D01*
X071608Y057497D01*
X071608Y057498D01*
X071608Y057937D01*
X071426Y057937D01*
X071168Y057680D01*
X071168Y057498D01*
X071608Y057498D01*
X071608Y057498D01*
X071608Y057937D01*
X071608Y057783D02*
X071608Y057783D01*
X071608Y057624D02*
X071608Y057624D01*
X071608Y057466D02*
X071608Y057466D01*
X071608Y057307D02*
X071608Y057307D01*
X071608Y057149D02*
X071608Y057149D01*
X071334Y057149D02*
X070882Y057149D01*
X070790Y057057D02*
X071048Y057315D01*
X071048Y057497D01*
X070609Y057497D01*
X070609Y057498D01*
X071048Y057498D01*
X071048Y057680D01*
X070790Y057937D01*
X070608Y057937D01*
X070426Y057937D01*
X070168Y057680D01*
X070168Y057498D01*
X070608Y057498D01*
X070608Y057937D01*
X070608Y057498D01*
X070608Y057498D01*
X070608Y057497D01*
X070608Y057497D01*
X070608Y057057D01*
X070426Y057057D01*
X070168Y057315D01*
X070168Y057497D01*
X070608Y057497D01*
X070608Y057057D01*
X070790Y057057D01*
X070608Y057149D02*
X070608Y057149D01*
X070608Y057307D02*
X070608Y057307D01*
X070608Y057466D02*
X070608Y057466D01*
X070608Y057624D02*
X070608Y057624D01*
X070608Y057783D02*
X070608Y057783D01*
X070608Y058057D02*
X070790Y058057D01*
X071048Y058315D01*
X071048Y058497D01*
X070609Y058497D01*
X070609Y058498D01*
X071048Y058498D01*
X071048Y058680D01*
X070790Y058937D01*
X070608Y058937D01*
X070426Y058937D01*
X070168Y058680D01*
X070168Y058498D01*
X070608Y058498D01*
X070608Y058937D01*
X070608Y058498D01*
X070608Y058498D01*
X070608Y058497D01*
X070608Y058497D01*
X070608Y058057D01*
X070426Y058057D01*
X070168Y058315D01*
X070168Y058497D01*
X070608Y058497D01*
X070608Y058057D01*
X070608Y058100D02*
X070608Y058100D01*
X070608Y058259D02*
X070608Y058259D01*
X070608Y058417D02*
X070608Y058417D01*
X070608Y058576D02*
X070608Y058576D01*
X070608Y058734D02*
X070608Y058734D01*
X070608Y058893D02*
X070608Y058893D01*
X070381Y058893D02*
X069835Y058893D01*
X069993Y058734D02*
X070223Y058734D01*
X070168Y058576D02*
X070048Y058576D01*
X070048Y058417D02*
X070168Y058417D01*
X070225Y058259D02*
X069991Y058259D01*
X069833Y058100D02*
X070383Y058100D01*
X070271Y057783D02*
X069945Y057783D01*
X070048Y057624D02*
X070168Y057624D01*
X070168Y057466D02*
X070048Y057466D01*
X070040Y057307D02*
X070176Y057307D01*
X070334Y057149D02*
X069882Y057149D01*
X069383Y058100D02*
X067299Y058100D01*
X067679Y058259D02*
X069225Y058259D01*
X069168Y058417D02*
X067888Y058417D01*
X068046Y058576D02*
X069168Y058576D01*
X069223Y058734D02*
X068137Y058734D01*
X068309Y059210D02*
X092353Y059210D01*
X092351Y059368D02*
X068311Y059368D01*
X068311Y059527D02*
X092351Y059527D01*
X092383Y059686D02*
X068279Y059686D01*
X068237Y059844D02*
X092426Y059844D01*
X092498Y060003D02*
X068164Y060003D01*
X068073Y060161D02*
X092590Y060161D01*
X092728Y060320D02*
X067934Y060320D01*
X067759Y060478D02*
X092903Y060478D01*
X094459Y060478D02*
X095104Y060478D01*
X095104Y060320D02*
X094634Y060320D01*
X094773Y060161D02*
X095104Y060161D01*
X095104Y060003D02*
X094864Y060003D01*
X094937Y059844D02*
X095104Y059844D01*
X095104Y059686D02*
X094979Y059686D01*
X095011Y059527D02*
X095104Y059527D01*
X095104Y059368D02*
X095011Y059368D01*
X095009Y059210D02*
X095104Y059210D01*
X095104Y059051D02*
X094967Y059051D01*
X094924Y058893D02*
X095104Y058893D01*
X095104Y058734D02*
X094837Y058734D01*
X094746Y058576D02*
X095104Y058576D01*
X095104Y058417D02*
X094588Y058417D01*
X094379Y058259D02*
X095104Y058259D01*
X095104Y058100D02*
X093999Y058100D01*
X093363Y058100D02*
X089961Y058100D01*
X089961Y057942D02*
X095104Y057942D01*
X095104Y057783D02*
X089940Y057783D01*
X089897Y057624D02*
X095104Y057624D01*
X095104Y057466D02*
X089817Y057466D01*
X089710Y057307D02*
X095104Y057307D01*
X095104Y057149D02*
X089552Y057149D01*
X088498Y056990D02*
X082264Y056990D01*
X082552Y057149D02*
X088211Y057149D01*
X088052Y057307D02*
X082710Y057307D01*
X082817Y057466D02*
X087946Y057466D01*
X087865Y057624D02*
X082897Y057624D01*
X082940Y057783D02*
X087823Y057783D01*
X087801Y057942D02*
X082961Y057942D01*
X082961Y058100D02*
X087801Y058100D01*
X087831Y058259D02*
X082932Y058259D01*
X082889Y058417D02*
X087873Y058417D01*
X087963Y058576D02*
X082799Y058576D01*
X082680Y058734D02*
X088082Y058734D01*
X088258Y058893D02*
X082505Y058893D01*
X082152Y059051D02*
X088611Y059051D01*
X089152Y059051D02*
X092396Y059051D01*
X092438Y058893D02*
X089505Y058893D01*
X089680Y058734D02*
X092525Y058734D01*
X092617Y058576D02*
X089799Y058576D01*
X089889Y058417D02*
X092775Y058417D01*
X092984Y058259D02*
X089932Y058259D01*
X089702Y054929D02*
X095104Y054929D01*
X095104Y054771D02*
X089646Y054771D01*
X089548Y054612D02*
X095104Y054612D01*
X095104Y054454D02*
X089385Y054454D01*
X088961Y054454D02*
X088801Y054454D01*
X088801Y054612D02*
X088961Y054612D01*
X088961Y054771D02*
X088801Y054771D01*
X088801Y054929D02*
X088961Y054929D01*
X088801Y055088D02*
X081961Y055088D01*
X081961Y055246D02*
X081801Y055246D01*
X081801Y055405D02*
X081961Y055405D01*
X081961Y055563D02*
X081801Y055563D01*
X081801Y055722D02*
X081961Y055722D01*
X081961Y055881D02*
X081801Y055881D01*
X081488Y055881D02*
X065849Y055881D01*
X065849Y056039D02*
X095104Y056039D01*
X095104Y056198D02*
X065849Y056198D01*
X065849Y056356D02*
X095104Y056356D01*
X095104Y056515D02*
X065849Y056515D01*
X065849Y056673D02*
X095104Y056673D01*
X088409Y053661D02*
X082353Y053661D01*
X082512Y053502D02*
X088250Y053502D01*
X088145Y053344D02*
X082618Y053344D01*
X082684Y053185D02*
X088079Y053185D01*
X088056Y053027D02*
X082706Y053027D01*
X082706Y052868D02*
X088056Y052868D01*
X088095Y052710D02*
X082668Y052710D01*
X082602Y052551D02*
X088160Y052551D01*
X088288Y052393D02*
X082474Y052393D01*
X082269Y052234D02*
X088494Y052234D01*
X081276Y055722D02*
X065849Y055722D01*
X065849Y055563D02*
X081155Y055563D01*
X081080Y055405D02*
X065849Y055405D01*
X065849Y055246D02*
X081044Y055246D01*
X076608Y058100D02*
X076608Y058100D01*
X074608Y058100D02*
X074608Y058100D01*
X072608Y058100D02*
X072608Y058100D01*
X072383Y058100D02*
X071833Y058100D01*
X071991Y058259D02*
X072225Y058259D01*
X072168Y058417D02*
X072048Y058417D01*
X072048Y058576D02*
X072168Y058576D01*
X072223Y058734D02*
X071993Y058734D01*
X071381Y058893D02*
X070835Y058893D01*
X070993Y058734D02*
X071223Y058734D01*
X071168Y058576D02*
X071048Y058576D01*
X071048Y058417D02*
X071168Y058417D01*
X071225Y058259D02*
X070991Y058259D01*
X070833Y058100D02*
X071383Y058100D01*
X071271Y057783D02*
X070945Y057783D01*
X071048Y057624D02*
X071168Y057624D01*
X071168Y057466D02*
X071048Y057466D01*
X071040Y057307D02*
X071176Y057307D01*
X071882Y057149D02*
X072334Y057149D01*
X072176Y057307D02*
X072040Y057307D01*
X072048Y057466D02*
X072168Y057466D01*
X072168Y057624D02*
X072048Y057624D01*
X071945Y057783D02*
X072271Y057783D01*
X072608Y057783D02*
X072608Y057783D01*
X072608Y057624D02*
X072608Y057624D01*
X072608Y057466D02*
X072608Y057466D01*
X072608Y057307D02*
X072608Y057307D01*
X072608Y057149D02*
X072608Y057149D01*
X056633Y044307D02*
X105342Y044307D01*
X105299Y044148D02*
X056792Y044148D01*
X056950Y043990D02*
X105261Y043990D01*
X105261Y043831D02*
X057109Y043831D01*
X057267Y043673D02*
X105261Y043673D01*
X105299Y043514D02*
X057426Y043514D01*
X056475Y044465D02*
X105421Y044465D01*
X105513Y044624D02*
X056316Y044624D01*
X056158Y044782D02*
X105661Y044782D01*
X105342Y043356D02*
X090234Y043356D01*
X090393Y043197D02*
X105422Y043197D01*
X105513Y043039D02*
X090551Y043039D01*
X090710Y042880D02*
X105662Y042880D01*
X105854Y042721D02*
X090869Y042721D01*
X091027Y042563D02*
X106188Y042563D01*
X106994Y042563D02*
X107702Y042563D01*
X107702Y042721D02*
X107328Y042721D01*
X107520Y042880D02*
X107702Y042880D01*
X107702Y043039D02*
X107669Y043039D01*
X107702Y042404D02*
X091186Y042404D01*
X091344Y042246D02*
X107702Y042246D01*
X107702Y042087D02*
X091503Y042087D01*
X091661Y041929D02*
X107702Y041929D01*
X107702Y041770D02*
X091820Y041770D01*
X091978Y041612D02*
X107702Y041612D01*
X107702Y041453D02*
X092137Y041453D01*
X092295Y041295D02*
X107702Y041295D01*
X107702Y041136D02*
X092454Y041136D01*
X092613Y040977D02*
X107702Y040977D01*
X107702Y040819D02*
X092771Y040819D01*
X092930Y040660D02*
X107702Y040660D01*
X107702Y040502D02*
X093088Y040502D01*
X093247Y040343D02*
X107702Y040343D01*
X107702Y040185D02*
X093405Y040185D01*
X093564Y040026D02*
X107702Y040026D01*
X107702Y039868D02*
X093722Y039868D01*
X093881Y039709D02*
X107702Y039709D01*
X107702Y039551D02*
X094039Y039551D01*
X094198Y039392D02*
X107702Y039392D01*
X107702Y039233D02*
X094357Y039233D01*
X094515Y039075D02*
X107702Y039075D01*
X107702Y038916D02*
X094674Y038916D01*
X094832Y038758D02*
X107702Y038758D01*
X107702Y038599D02*
X094991Y038599D01*
X095149Y038441D02*
X107702Y038441D01*
X107702Y038282D02*
X095308Y038282D01*
X095466Y038124D02*
X107702Y038124D01*
X107702Y037965D02*
X095625Y037965D01*
X095783Y037807D02*
X107702Y037807D01*
X107702Y037648D02*
X095942Y037648D01*
X096101Y037489D02*
X107702Y037489D01*
X107702Y037331D02*
X096259Y037331D01*
X096418Y037172D02*
X107702Y037172D01*
X107702Y037014D02*
X096576Y037014D01*
X096735Y036855D02*
X107702Y036855D01*
X107702Y036697D02*
X096893Y036697D01*
X097052Y036538D02*
X107702Y036538D01*
X107702Y036380D02*
X097210Y036380D01*
X097369Y036221D02*
X107702Y036221D01*
X107702Y036063D02*
X097527Y036063D01*
X097686Y035904D02*
X107702Y035904D01*
X107702Y035746D02*
X097844Y035746D01*
X098003Y035587D02*
X107702Y035587D01*
X107702Y035428D02*
X098162Y035428D01*
X098320Y035270D02*
X107702Y035270D01*
X107702Y035111D02*
X098479Y035111D01*
X098637Y034953D02*
X107702Y034953D01*
X107702Y034794D02*
X098796Y034794D01*
X098954Y034636D02*
X107702Y034636D01*
X107702Y034477D02*
X099113Y034477D01*
X099271Y034319D02*
X107702Y034319D01*
X107702Y034160D02*
X099430Y034160D01*
X099588Y034002D02*
X107702Y034002D01*
X107702Y033843D02*
X099747Y033843D01*
X099906Y033684D02*
X107702Y033684D01*
X107702Y033526D02*
X100064Y033526D01*
X100223Y033367D02*
X107702Y033367D01*
X107702Y033209D02*
X100381Y033209D01*
X100540Y033050D02*
X107702Y033050D01*
X107702Y032892D02*
X100698Y032892D01*
X100857Y032733D02*
X107702Y032733D01*
X107702Y032575D02*
X101015Y032575D01*
X101174Y032416D02*
X107702Y032416D01*
X107702Y032258D02*
X101332Y032258D01*
X101491Y032099D02*
X107702Y032099D01*
X107702Y031940D02*
X101650Y031940D01*
X101808Y031782D02*
X107702Y031782D01*
X107702Y031623D02*
X101967Y031623D01*
X102125Y031465D02*
X107702Y031465D01*
X107702Y031306D02*
X102284Y031306D01*
X102442Y031148D02*
X107702Y031148D01*
X107702Y030989D02*
X102601Y030989D01*
X102324Y030672D02*
X097799Y030672D01*
X097793Y030656D02*
X097924Y030973D01*
X097924Y032583D01*
X097793Y032900D01*
X097550Y033143D01*
X097233Y033274D01*
X096889Y033274D01*
X096572Y033143D01*
X096329Y032900D01*
X096198Y032583D01*
X096198Y030973D01*
X096329Y030656D01*
X096572Y030413D01*
X096889Y030282D01*
X097233Y030282D01*
X097550Y030413D01*
X097793Y030656D01*
X097865Y030831D02*
X102165Y030831D01*
X102007Y030989D02*
X097924Y030989D01*
X097924Y031148D02*
X101848Y031148D01*
X101690Y031306D02*
X097924Y031306D01*
X097924Y031465D02*
X101531Y031465D01*
X101373Y031623D02*
X097924Y031623D01*
X097924Y031782D02*
X101214Y031782D01*
X101056Y031940D02*
X097924Y031940D01*
X097924Y032099D02*
X100897Y032099D01*
X100739Y032258D02*
X097924Y032258D01*
X097924Y032416D02*
X100580Y032416D01*
X100421Y032575D02*
X097924Y032575D01*
X097862Y032733D02*
X100263Y032733D01*
X100104Y032892D02*
X097796Y032892D01*
X097642Y033050D02*
X099946Y033050D01*
X099787Y033209D02*
X097390Y033209D01*
X096732Y033209D02*
X089722Y033209D01*
X089722Y033367D02*
X099629Y033367D01*
X099470Y033526D02*
X089722Y033526D01*
X089722Y033684D02*
X099312Y033684D01*
X099153Y033843D02*
X089722Y033843D01*
X089722Y034002D02*
X098995Y034002D01*
X098836Y034160D02*
X089722Y034160D01*
X089722Y034319D02*
X098677Y034319D01*
X098519Y034477D02*
X089722Y034477D01*
X089722Y034636D02*
X098360Y034636D01*
X098202Y034794D02*
X089722Y034794D01*
X089722Y034953D02*
X098043Y034953D01*
X097885Y035111D02*
X089722Y035111D01*
X089722Y035270D02*
X097726Y035270D01*
X097568Y035428D02*
X089722Y035428D01*
X089722Y035587D02*
X097409Y035587D01*
X097251Y035746D02*
X089722Y035746D01*
X089722Y035904D02*
X097092Y035904D01*
X096933Y036063D02*
X089722Y036063D01*
X089722Y036221D02*
X096775Y036221D01*
X096616Y036380D02*
X089722Y036380D01*
X089722Y036538D02*
X096458Y036538D01*
X096299Y036697D02*
X089652Y036697D01*
X089628Y036720D02*
X089722Y036627D01*
X089722Y029794D01*
X089628Y029700D01*
X082095Y029700D01*
X082002Y029794D01*
X082002Y036627D01*
X082095Y036720D01*
X089628Y036720D01*
X093763Y039233D02*
X076982Y039233D01*
X076982Y039075D02*
X093921Y039075D01*
X094080Y038916D02*
X076982Y038916D01*
X076982Y038758D02*
X094238Y038758D01*
X094397Y038599D02*
X076982Y038599D01*
X076982Y038441D02*
X094555Y038441D01*
X094714Y038282D02*
X076982Y038282D01*
X076982Y038124D02*
X094872Y038124D01*
X095031Y037965D02*
X076982Y037965D01*
X076982Y037807D02*
X095189Y037807D01*
X095348Y037648D02*
X076982Y037648D01*
X076982Y037489D02*
X095507Y037489D01*
X095665Y037331D02*
X076982Y037331D01*
X076982Y037172D02*
X095824Y037172D01*
X095982Y037014D02*
X076982Y037014D01*
X076982Y036855D02*
X096141Y036855D01*
X093604Y039392D02*
X076982Y039392D01*
X076982Y039551D02*
X093446Y039551D01*
X093287Y039709D02*
X076982Y039709D01*
X076982Y039868D02*
X093128Y039868D01*
X092970Y040026D02*
X076982Y040026D01*
X076982Y040185D02*
X092811Y040185D01*
X092653Y040343D02*
X076982Y040343D01*
X076982Y040502D02*
X092494Y040502D01*
X092336Y040660D02*
X076982Y040660D01*
X076982Y040819D02*
X092177Y040819D01*
X092019Y040977D02*
X076982Y040977D01*
X076982Y041136D02*
X091860Y041136D01*
X091702Y041295D02*
X076982Y041295D01*
X076982Y041453D02*
X091543Y041453D01*
X091384Y041612D02*
X076982Y041612D01*
X076982Y041770D02*
X091226Y041770D01*
X091067Y041929D02*
X076982Y041929D01*
X076982Y042087D02*
X090909Y042087D01*
X090750Y042246D02*
X076982Y042246D01*
X076900Y042404D02*
X090592Y042404D01*
X082072Y036697D02*
X076982Y036697D01*
X076982Y036538D02*
X082002Y036538D01*
X082002Y036380D02*
X076982Y036380D01*
X076982Y036221D02*
X082002Y036221D01*
X082002Y036063D02*
X076982Y036063D01*
X076982Y035904D02*
X082002Y035904D01*
X082002Y035746D02*
X076982Y035746D01*
X076982Y035587D02*
X082002Y035587D01*
X082002Y035428D02*
X076920Y035428D01*
X082002Y035270D02*
X064028Y035270D01*
X064103Y035401D02*
X063931Y035103D01*
X063688Y034859D01*
X063390Y034687D01*
X063058Y034598D01*
X062714Y034598D01*
X062381Y034687D01*
X062083Y034859D01*
X061840Y035103D01*
X061668Y035401D01*
X061579Y035733D01*
X061579Y036077D01*
X061668Y036409D01*
X061840Y036707D01*
X062083Y036951D01*
X062381Y037123D01*
X062714Y037212D01*
X063058Y037212D01*
X063390Y037123D01*
X063688Y036951D01*
X063931Y036707D01*
X064103Y036409D01*
X064192Y036077D01*
X064192Y035733D01*
X064103Y035401D01*
X064111Y035428D02*
X069324Y035428D01*
X069262Y035587D02*
X064153Y035587D01*
X064192Y035746D02*
X069262Y035746D01*
X069262Y035904D02*
X064192Y035904D01*
X064192Y036063D02*
X069262Y036063D01*
X069262Y036221D02*
X064154Y036221D01*
X064111Y036380D02*
X069262Y036380D01*
X069262Y036538D02*
X064029Y036538D01*
X063937Y036697D02*
X069262Y036697D01*
X069262Y036855D02*
X063783Y036855D01*
X063579Y037014D02*
X069262Y037014D01*
X069262Y037172D02*
X063205Y037172D01*
X062567Y037172D02*
X046072Y037172D01*
X046231Y037014D02*
X062193Y037014D01*
X061988Y036855D02*
X046389Y036855D01*
X046548Y036697D02*
X061834Y036697D01*
X061742Y036538D02*
X046706Y036538D01*
X046865Y036380D02*
X061660Y036380D01*
X061618Y036221D02*
X047023Y036221D01*
X047182Y036063D02*
X061579Y036063D01*
X061579Y035904D02*
X047340Y035904D01*
X047499Y035746D02*
X061579Y035746D01*
X061618Y035587D02*
X047658Y035587D01*
X047816Y035428D02*
X061660Y035428D01*
X061743Y035270D02*
X047975Y035270D01*
X048133Y035111D02*
X061835Y035111D01*
X061990Y034953D02*
X048292Y034953D01*
X048450Y034794D02*
X062196Y034794D01*
X062574Y034636D02*
X048609Y034636D01*
X048767Y034477D02*
X082002Y034477D01*
X082002Y034319D02*
X048926Y034319D01*
X049084Y034160D02*
X082002Y034160D01*
X082002Y034002D02*
X049243Y034002D01*
X049402Y033843D02*
X082002Y033843D01*
X082002Y033684D02*
X049560Y033684D01*
X049719Y033526D02*
X082002Y033526D01*
X082002Y033367D02*
X049877Y033367D01*
X050036Y033209D02*
X082002Y033209D01*
X082002Y033050D02*
X050194Y033050D01*
X050353Y032892D02*
X082002Y032892D01*
X082002Y032733D02*
X050511Y032733D01*
X050670Y032575D02*
X082002Y032575D01*
X082002Y032416D02*
X050828Y032416D01*
X050987Y032258D02*
X082002Y032258D01*
X082002Y032099D02*
X051146Y032099D01*
X051304Y031940D02*
X082002Y031940D01*
X082002Y031782D02*
X051463Y031782D01*
X051621Y031623D02*
X074445Y031623D01*
X074322Y031465D02*
X051780Y031465D01*
X051938Y031306D02*
X074184Y031306D01*
X074026Y031148D02*
X052097Y031148D01*
X051469Y030672D02*
X044575Y030672D01*
X044575Y030665D02*
X044575Y031375D01*
X044481Y031469D01*
X043845Y031469D01*
X043875Y031499D01*
X044481Y031499D01*
X044575Y031593D01*
X044575Y032375D01*
X044481Y032469D01*
X043699Y032469D01*
X043606Y032375D01*
X043606Y031823D01*
X043595Y031813D01*
X043595Y031955D01*
X043119Y031955D01*
X043119Y032012D01*
X043595Y032012D01*
X043595Y032332D01*
X043583Y032378D01*
X043559Y032419D01*
X043530Y032448D01*
X043640Y032558D01*
X043699Y032499D01*
X044481Y032499D01*
X044575Y032593D01*
X044575Y033199D01*
X044948Y033572D01*
X045071Y033695D01*
X045071Y034445D01*
X045071Y034619D01*
X044948Y034742D01*
X044193Y034742D01*
X044397Y034859D01*
X044640Y035103D01*
X044812Y035401D01*
X044901Y035733D01*
X044901Y036077D01*
X044812Y036409D01*
X044640Y036707D01*
X044397Y036951D01*
X044239Y037042D01*
X044350Y037042D01*
X045007Y036385D01*
X045047Y036288D01*
X045168Y036167D01*
X045326Y036102D01*
X045497Y036102D01*
X045655Y036167D01*
X045776Y036288D01*
X045798Y036343D01*
X051650Y030492D01*
X044748Y030492D01*
X044671Y030569D01*
X044575Y030665D01*
X044575Y030831D02*
X051311Y030831D01*
X051152Y030989D02*
X044575Y030989D01*
X044575Y031148D02*
X050994Y031148D01*
X050835Y031306D02*
X044575Y031306D01*
X044485Y031465D02*
X050677Y031465D01*
X050518Y031623D02*
X044575Y031623D01*
X044575Y031782D02*
X050360Y031782D01*
X050201Y031940D02*
X044575Y031940D01*
X044575Y032099D02*
X050043Y032099D01*
X049884Y032258D02*
X044575Y032258D01*
X044534Y032416D02*
X049725Y032416D01*
X049567Y032575D02*
X044557Y032575D01*
X044575Y032733D02*
X049408Y032733D01*
X049250Y032892D02*
X044575Y032892D01*
X044575Y033050D02*
X049091Y033050D01*
X048933Y033209D02*
X044585Y033209D01*
X044744Y033367D02*
X048774Y033367D01*
X048616Y033526D02*
X044902Y033526D01*
X045061Y033684D02*
X048457Y033684D01*
X048299Y033843D02*
X045071Y033843D01*
X045071Y034002D02*
X048140Y034002D01*
X047981Y034160D02*
X045071Y034160D01*
X045071Y034319D02*
X047823Y034319D01*
X047664Y034477D02*
X045071Y034477D01*
X045054Y034636D02*
X047506Y034636D01*
X047347Y034794D02*
X044284Y034794D01*
X044490Y034953D02*
X047189Y034953D01*
X047030Y035111D02*
X044645Y035111D01*
X044736Y035270D02*
X046872Y035270D01*
X046713Y035428D02*
X044819Y035428D01*
X044862Y035587D02*
X046555Y035587D01*
X046396Y035746D02*
X044901Y035746D01*
X044901Y035904D02*
X046237Y035904D01*
X046079Y036063D02*
X044901Y036063D01*
X044862Y036221D02*
X045114Y036221D01*
X045009Y036380D02*
X044820Y036380D01*
X044853Y036538D02*
X044738Y036538D01*
X044695Y036697D02*
X044646Y036697D01*
X044536Y036855D02*
X044492Y036855D01*
X044378Y037014D02*
X044287Y037014D01*
X045279Y037965D02*
X069262Y037965D01*
X069262Y037807D02*
X045438Y037807D01*
X045596Y037648D02*
X069262Y037648D01*
X069262Y037489D02*
X045755Y037489D01*
X045914Y037331D02*
X069262Y037331D01*
X069262Y038124D02*
X045121Y038124D01*
X045042Y038203D02*
X045042Y038203D01*
X044962Y038282D02*
X069262Y038282D01*
X069262Y038441D02*
X044289Y038441D01*
X044291Y038599D02*
X069262Y038599D01*
X069262Y038758D02*
X044233Y038758D01*
X044056Y038916D02*
X069262Y038916D01*
X069262Y039075D02*
X042571Y039075D01*
X041400Y039868D02*
X037972Y039868D01*
X038131Y039709D02*
X041242Y039709D01*
X041083Y039551D02*
X038289Y039551D01*
X037326Y040026D02*
X041559Y040026D01*
X047160Y039233D02*
X069262Y039233D01*
X063936Y035111D02*
X082002Y035111D01*
X082002Y034953D02*
X063781Y034953D01*
X063575Y034794D02*
X082002Y034794D01*
X082002Y034636D02*
X063197Y034636D01*
X056098Y030196D02*
X073074Y030196D01*
X072916Y030038D02*
X056257Y030038D01*
X056415Y029879D02*
X072757Y029879D01*
X072599Y029721D02*
X056574Y029721D01*
X056732Y029562D02*
X072440Y029562D01*
X072282Y029404D02*
X056891Y029404D01*
X057049Y029245D02*
X072123Y029245D01*
X071965Y029087D02*
X062814Y029087D01*
X062308Y029087D02*
X057208Y029087D01*
X057366Y028928D02*
X062177Y028928D01*
X062131Y028770D02*
X057525Y028770D01*
X057684Y028611D02*
X062146Y028611D01*
X055940Y030355D02*
X073233Y030355D01*
X073392Y030514D02*
X055781Y030514D01*
X055622Y030672D02*
X073550Y030672D01*
X073709Y030831D02*
X055464Y030831D01*
X055267Y030989D02*
X073867Y030989D01*
X074495Y030514D02*
X082002Y030514D01*
X082002Y030672D02*
X074653Y030672D01*
X074812Y030831D02*
X082002Y030831D01*
X082002Y030989D02*
X075027Y030989D01*
X075121Y031148D02*
X082002Y031148D01*
X082002Y031306D02*
X075141Y031306D01*
X075101Y031465D02*
X082002Y031465D01*
X082002Y031623D02*
X074978Y031623D01*
X074336Y030355D02*
X082002Y030355D01*
X082002Y030196D02*
X074177Y030196D01*
X074019Y030038D02*
X082002Y030038D01*
X082002Y029879D02*
X073860Y029879D01*
X073702Y029721D02*
X082075Y029721D01*
X075380Y025916D02*
X044575Y025916D01*
X044575Y026074D02*
X075222Y026074D01*
X075063Y026233D02*
X044575Y026233D01*
X044668Y026391D02*
X074905Y026391D01*
X074746Y026550D02*
X044826Y026550D01*
X044985Y026709D02*
X046751Y026709D01*
X046590Y026867D02*
X045144Y026867D01*
X045302Y027026D02*
X046551Y027026D01*
X047072Y026709D02*
X074588Y026709D01*
X074429Y026867D02*
X047233Y026867D01*
X045018Y028135D02*
X044575Y028135D01*
X044575Y027977D02*
X044859Y027977D01*
X044701Y027818D02*
X044575Y027818D01*
X044575Y027660D02*
X044601Y027660D01*
X044601Y027501D02*
X044484Y027501D01*
X044575Y027343D02*
X044601Y027343D01*
X043606Y027977D02*
X043119Y027977D01*
X043062Y027977D02*
X042003Y027977D01*
X041845Y027818D02*
X042586Y027818D01*
X042586Y027660D02*
X041686Y027660D01*
X041528Y027501D02*
X042434Y027501D01*
X042275Y027343D02*
X041369Y027343D01*
X041211Y027184D02*
X042117Y027184D01*
X041958Y027026D02*
X041052Y027026D01*
X041483Y026550D02*
X038376Y026550D01*
X038218Y026391D02*
X041324Y026391D01*
X041165Y026233D02*
X038059Y026233D01*
X037901Y026074D02*
X041007Y026074D01*
X040848Y025916D02*
X037742Y025916D01*
X037584Y025757D02*
X040690Y025757D01*
X040531Y025599D02*
X037425Y025599D01*
X037267Y025440D02*
X040373Y025440D01*
X040214Y025282D02*
X037108Y025282D01*
X036950Y025123D02*
X040056Y025123D01*
X039897Y024965D02*
X036791Y024965D01*
X036632Y024806D02*
X039739Y024806D01*
X039580Y024647D02*
X036474Y024647D01*
X036315Y024489D02*
X039421Y024489D01*
X039263Y024330D02*
X036157Y024330D01*
X035998Y024172D02*
X039104Y024172D01*
X038946Y024013D02*
X035840Y024013D01*
X035681Y023855D02*
X038787Y023855D01*
X038629Y023696D02*
X035523Y023696D01*
X035364Y023538D02*
X038470Y023538D01*
X038312Y023379D02*
X035206Y023379D01*
X035047Y023221D02*
X038153Y023221D01*
X037995Y023062D02*
X034888Y023062D01*
X034730Y022904D02*
X037836Y022904D01*
X037677Y022745D02*
X034571Y022745D01*
X034453Y023221D02*
X032797Y023221D01*
X032845Y023062D02*
X032638Y023062D01*
X032686Y022904D02*
X032480Y022904D01*
X032527Y022745D02*
X032321Y022745D01*
X032369Y022586D02*
X032163Y022586D01*
X032210Y022428D02*
X032004Y022428D01*
X031852Y022269D02*
X031846Y022269D01*
X031693Y022111D02*
X031687Y022111D01*
X031535Y021952D02*
X031529Y021952D01*
X031376Y021794D02*
X031370Y021794D01*
X031218Y021635D02*
X031212Y021635D01*
X031059Y021477D02*
X031053Y021477D01*
X030901Y021318D02*
X030894Y021318D01*
X030742Y021160D02*
X030736Y021160D01*
X030583Y021001D02*
X030577Y021001D01*
X030425Y020842D02*
X030419Y020842D01*
X032329Y021952D02*
X036721Y021952D01*
X036831Y022111D02*
X032487Y022111D01*
X032646Y022269D02*
X037202Y022269D01*
X037360Y022428D02*
X032804Y022428D01*
X032963Y022586D02*
X037519Y022586D01*
X038612Y021635D02*
X039313Y021635D01*
X039155Y021477D02*
X038732Y021477D01*
X038929Y021318D02*
X038996Y021318D01*
X038770Y021794D02*
X039472Y021794D01*
X039630Y021952D02*
X038929Y021952D01*
X039087Y022111D02*
X039789Y022111D01*
X039947Y022269D02*
X039246Y022269D01*
X039404Y022428D02*
X040106Y022428D01*
X040264Y022586D02*
X039563Y022586D01*
X039721Y022745D02*
X040423Y022745D01*
X040581Y022904D02*
X039880Y022904D01*
X040038Y023062D02*
X040740Y023062D01*
X040899Y023221D02*
X040197Y023221D01*
X040356Y023379D02*
X041057Y023379D01*
X041216Y023538D02*
X040514Y023538D01*
X040673Y023696D02*
X041374Y023696D01*
X041476Y023855D02*
X040831Y023855D01*
X040990Y024013D02*
X042606Y024013D01*
X042606Y023855D02*
X042146Y023855D01*
X042229Y023696D02*
X042606Y023696D01*
X042661Y023538D02*
X042241Y023538D01*
X042193Y023379D02*
X042610Y023379D01*
X042606Y023221D02*
X042058Y023221D01*
X041843Y023062D02*
X042606Y023062D01*
X042606Y022904D02*
X041684Y022904D01*
X041526Y022745D02*
X042606Y022745D01*
X042612Y022586D02*
X041367Y022586D01*
X041209Y022428D02*
X042659Y022428D01*
X042606Y022269D02*
X041050Y022269D01*
X040892Y022111D02*
X042606Y022111D01*
X042606Y021952D02*
X040733Y021952D01*
X040575Y021794D02*
X042606Y021794D01*
X044062Y021794D02*
X044119Y021794D01*
X044119Y021952D02*
X044062Y021952D01*
X044062Y022111D02*
X044119Y022111D01*
X044119Y022269D02*
X044062Y022269D01*
X044062Y022428D02*
X044119Y022428D01*
X044550Y022428D02*
X052923Y022428D01*
X052880Y022586D02*
X044569Y022586D01*
X044575Y022745D02*
X052861Y022745D01*
X052861Y022904D02*
X044575Y022904D01*
X044575Y023062D02*
X052876Y023062D01*
X052919Y023221D02*
X044575Y023221D01*
X044571Y023379D02*
X052972Y023379D01*
X053063Y023538D02*
X044520Y023538D01*
X044575Y023696D02*
X053175Y023696D01*
X053333Y023855D02*
X044575Y023855D01*
X044575Y024013D02*
X053578Y024013D01*
X052980Y022269D02*
X044595Y022269D01*
X044595Y021955D02*
X044595Y021635D01*
X044575Y021318D02*
X079978Y021318D01*
X080137Y021160D02*
X044575Y021160D01*
X044575Y021001D02*
X080295Y021001D01*
X080454Y020842D02*
X044575Y020842D01*
X044575Y020684D02*
X080612Y020684D01*
X080771Y020525D02*
X044508Y020525D01*
X044575Y020367D02*
X080929Y020367D01*
X081088Y020208D02*
X046394Y020208D01*
X046471Y020050D02*
X081246Y020050D01*
X081405Y019891D02*
X046463Y019891D01*
X046371Y019733D02*
X081563Y019733D01*
X081722Y019574D02*
X044557Y019574D01*
X044575Y019733D02*
X045851Y019733D01*
X045829Y020208D02*
X044575Y020208D01*
X044534Y019416D02*
X081881Y019416D01*
X082039Y019257D02*
X044575Y019257D01*
X044575Y019098D02*
X082198Y019098D01*
X082356Y018940D02*
X044575Y018940D01*
X044575Y018781D02*
X082515Y018781D01*
X090473Y018623D02*
X044575Y018623D01*
X044486Y018464D02*
X090632Y018464D01*
X090790Y018306D02*
X044575Y018306D01*
X044575Y018147D02*
X090949Y018147D01*
X091107Y017989D02*
X044575Y017989D01*
X044575Y017830D02*
X091266Y017830D01*
X091424Y017672D02*
X044575Y017672D01*
X044496Y017513D02*
X091583Y017513D01*
X091742Y017354D02*
X044575Y017354D01*
X044575Y017196D02*
X091900Y017196D01*
X092059Y017037D02*
X044575Y017037D01*
X044575Y016879D02*
X092217Y016879D01*
X092376Y016720D02*
X044575Y016720D01*
X044544Y016562D02*
X092534Y016562D01*
X092693Y016403D02*
X044547Y016403D01*
X044575Y016245D02*
X092851Y016245D01*
X093010Y016086D02*
X044575Y016086D01*
X044575Y015928D02*
X100068Y015928D01*
X101337Y014659D02*
X044595Y014659D01*
X044501Y014501D02*
X101495Y014501D01*
X101651Y014342D02*
X063188Y014342D01*
X063571Y014184D02*
X101662Y014184D01*
X101759Y014025D02*
X063779Y014025D01*
X064192Y012915D02*
X087937Y012915D01*
X087818Y012757D02*
X064154Y012757D01*
X064112Y012598D02*
X087781Y012598D01*
X087805Y012440D02*
X064030Y012440D01*
X063939Y012281D02*
X087821Y012281D01*
X087821Y012123D02*
X063786Y012123D01*
X063583Y011964D02*
X087821Y011964D01*
X090896Y008318D02*
X106646Y008318D01*
X106616Y008330D02*
X106703Y008294D01*
X106793Y008270D01*
X106853Y008262D01*
X106853Y008892D01*
X106223Y008892D01*
X106231Y008832D01*
X106255Y008742D01*
X106291Y008655D01*
X106338Y008574D01*
X106395Y008500D01*
X106461Y008434D01*
X106535Y008377D01*
X106616Y008330D01*
X106619Y008225D02*
X106619Y007595D01*
X107249Y007595D01*
X107241Y007655D01*
X107217Y007745D01*
X107181Y007832D01*
X107135Y007913D01*
X107078Y007987D01*
X107011Y008054D01*
X106937Y008111D01*
X106856Y008157D01*
X106769Y008193D01*
X106679Y008217D01*
X106619Y008225D01*
X106619Y008159D02*
X106459Y008159D01*
X106459Y008225D02*
X106400Y008217D01*
X106309Y008193D01*
X106223Y008157D01*
X106141Y008111D01*
X106067Y008054D01*
X106001Y007987D01*
X105944Y007913D01*
X105897Y007832D01*
X105861Y007745D01*
X105837Y007655D01*
X105829Y007595D01*
X106459Y007595D01*
X106459Y008225D01*
X106459Y008000D02*
X106619Y008000D01*
X106619Y007842D02*
X106459Y007842D01*
X106459Y007683D02*
X106619Y007683D01*
X106619Y007525D02*
X107702Y007525D01*
X107702Y007683D02*
X107234Y007683D01*
X107176Y007842D02*
X107702Y007842D01*
X107702Y008000D02*
X107064Y008000D01*
X106852Y008159D02*
X107702Y008159D01*
X107702Y008318D02*
X107220Y008318D01*
X107250Y008330D02*
X107331Y008377D01*
X107405Y008434D01*
X107471Y008500D01*
X107528Y008574D01*
X107575Y008655D01*
X107611Y008742D01*
X107635Y008832D01*
X107643Y008892D01*
X107013Y008892D01*
X107013Y009052D01*
X106853Y009052D01*
X106853Y009682D01*
X106793Y009674D01*
X106703Y009650D01*
X106616Y009614D01*
X106535Y009567D01*
X106461Y009510D01*
X106395Y009444D01*
X106338Y009370D01*
X106291Y009289D01*
X106255Y009202D01*
X106231Y009112D01*
X106223Y009052D01*
X106853Y009052D01*
X106853Y008892D01*
X107013Y008892D01*
X107013Y008262D01*
X107073Y008270D01*
X107163Y008294D01*
X107250Y008330D01*
X107013Y008318D02*
X106853Y008318D01*
X106853Y008476D02*
X107013Y008476D01*
X107013Y008635D02*
X106853Y008635D01*
X106853Y008793D02*
X107013Y008793D01*
X107013Y008952D02*
X107702Y008952D01*
X107643Y009052D02*
X107635Y009112D01*
X107611Y009202D01*
X107575Y009289D01*
X107528Y009370D01*
X107471Y009444D01*
X107405Y009510D01*
X107331Y009567D01*
X107250Y009614D01*
X107163Y009650D01*
X107073Y009674D01*
X107013Y009682D01*
X107013Y009052D01*
X107643Y009052D01*
X107635Y009110D02*
X107702Y009110D01*
X107702Y009269D02*
X107583Y009269D01*
X107484Y009427D02*
X107702Y009427D01*
X107702Y009586D02*
X107299Y009586D01*
X107013Y009586D02*
X106853Y009586D01*
X106853Y009427D02*
X107013Y009427D01*
X107013Y009269D02*
X106853Y009269D01*
X106853Y009110D02*
X107013Y009110D01*
X106853Y008952D02*
X104665Y008952D01*
X104657Y009110D02*
X106231Y009110D01*
X106283Y009269D02*
X104592Y009269D01*
X104460Y009427D02*
X106382Y009427D01*
X106567Y009586D02*
X103704Y009586D01*
X103546Y009744D02*
X107702Y009744D01*
X107702Y009903D02*
X103387Y009903D01*
X103229Y010061D02*
X107702Y010061D01*
X107702Y010220D02*
X103070Y010220D01*
X102911Y010379D02*
X107702Y010379D01*
X107702Y010537D02*
X102753Y010537D01*
X102594Y010696D02*
X107702Y010696D01*
X107702Y010854D02*
X102436Y010854D01*
X102277Y011013D02*
X107702Y011013D01*
X107702Y011171D02*
X097282Y011171D01*
X090819Y008159D02*
X106226Y008159D01*
X106014Y008000D02*
X104402Y008000D01*
X104567Y007842D02*
X105903Y007842D01*
X105845Y007683D02*
X104650Y007683D01*
X104675Y007366D02*
X105840Y007366D01*
X105893Y007208D02*
X104625Y007208D01*
X104517Y007049D02*
X105996Y007049D01*
X106886Y006891D02*
X107702Y006891D01*
X107702Y007049D02*
X107082Y007049D01*
X107185Y007208D02*
X107702Y007208D01*
X107702Y007366D02*
X107239Y007366D01*
X107447Y008476D02*
X107702Y008476D01*
X107702Y008635D02*
X107563Y008635D01*
X107625Y008793D02*
X107702Y008793D01*
X106419Y008476D02*
X104420Y008476D01*
X104575Y008635D02*
X106303Y008635D01*
X106241Y008793D02*
X104641Y008793D01*
X104128Y008000D02*
X103990Y008000D01*
X103990Y007842D02*
X104128Y007842D01*
X103716Y008000D02*
X090682Y008000D01*
X090604Y007049D02*
X103601Y007049D01*
X103990Y007049D02*
X104128Y007049D01*
X104128Y007208D02*
X103990Y007208D01*
X103990Y007366D02*
X104128Y007366D01*
X103697Y005939D02*
X090863Y005939D01*
X090704Y005781D02*
X103541Y005781D01*
X104673Y005305D02*
X106225Y005305D01*
X106307Y004671D02*
X035911Y004671D01*
X036011Y004512D02*
X089808Y004512D01*
X089798Y004510D02*
X089552Y004368D01*
X089352Y004168D01*
X089211Y003923D01*
X089138Y003649D01*
X089138Y003366D01*
X089211Y003093D01*
X089352Y002848D01*
X089552Y002648D01*
X089798Y002506D01*
X090071Y002433D01*
X090354Y002433D01*
X090627Y002506D01*
X090873Y002648D01*
X091073Y002848D01*
X091214Y003093D01*
X091287Y003366D01*
X091287Y003649D01*
X091214Y003923D01*
X091073Y004168D01*
X090873Y004368D01*
X090627Y004510D01*
X090354Y004583D01*
X090071Y004583D01*
X089798Y004510D01*
X089538Y004354D02*
X082257Y004354D01*
X082186Y004395D02*
X081913Y004468D01*
X081630Y004468D01*
X081357Y004395D01*
X081111Y004253D01*
X080911Y004053D01*
X080770Y003808D01*
X080697Y003534D01*
X080697Y003251D01*
X080770Y002978D01*
X080911Y002733D01*
X081111Y002533D01*
X081357Y002391D01*
X081630Y002318D01*
X081913Y002318D01*
X082186Y002391D01*
X082432Y002533D01*
X082632Y002733D01*
X082773Y002978D01*
X082846Y003251D01*
X082846Y003534D01*
X082773Y003808D01*
X082632Y004053D01*
X082432Y004253D01*
X082186Y004395D01*
X082489Y004195D02*
X089380Y004195D01*
X089277Y004037D02*
X082641Y004037D01*
X082733Y003878D02*
X089199Y003878D01*
X089156Y003720D02*
X082797Y003720D01*
X082839Y003561D02*
X089138Y003561D01*
X089138Y003403D02*
X082846Y003403D01*
X082845Y003244D02*
X089170Y003244D01*
X089215Y003086D02*
X082802Y003086D01*
X082744Y002927D02*
X089307Y002927D01*
X089432Y002769D02*
X082652Y002769D01*
X082509Y002610D02*
X089618Y002610D01*
X090002Y002451D02*
X082291Y002451D01*
X081252Y002451D02*
X078991Y002451D01*
X078886Y002391D02*
X079132Y002533D01*
X079332Y002733D01*
X079473Y002978D01*
X079546Y003251D01*
X079546Y003534D01*
X079473Y003808D01*
X079332Y004053D01*
X079132Y004253D01*
X078886Y004395D01*
X078613Y004468D01*
X078330Y004468D01*
X078057Y004395D01*
X077811Y004253D01*
X077611Y004053D01*
X077470Y003808D01*
X077397Y003534D01*
X077397Y003251D01*
X077470Y002978D01*
X077611Y002733D01*
X077811Y002533D01*
X078057Y002391D01*
X078330Y002318D01*
X078613Y002318D01*
X078886Y002391D01*
X079209Y002610D02*
X081034Y002610D01*
X080891Y002769D02*
X079352Y002769D01*
X079444Y002927D02*
X080799Y002927D01*
X080741Y003086D02*
X079502Y003086D01*
X079545Y003244D02*
X080698Y003244D01*
X080697Y003403D02*
X079546Y003403D01*
X079539Y003561D02*
X080704Y003561D01*
X080746Y003720D02*
X079497Y003720D01*
X079433Y003878D02*
X080811Y003878D01*
X080902Y004037D02*
X079341Y004037D01*
X079189Y004195D02*
X081054Y004195D01*
X081286Y004354D02*
X078957Y004354D01*
X077986Y004354D02*
X036066Y004354D01*
X036084Y004085D02*
X035355Y004085D01*
X035355Y003356D01*
X035434Y003366D01*
X035537Y003394D01*
X035635Y003434D01*
X035727Y003488D01*
X035812Y003553D01*
X035887Y003628D01*
X035952Y003713D01*
X036005Y003805D01*
X036046Y003903D01*
X036074Y004006D01*
X036084Y004085D01*
X036078Y004037D02*
X077602Y004037D01*
X077511Y003878D02*
X036036Y003878D01*
X035956Y003720D02*
X077446Y003720D01*
X077404Y003561D02*
X035820Y003561D01*
X035558Y003403D02*
X077397Y003403D01*
X077398Y003244D02*
X012791Y003244D01*
X012791Y003086D02*
X077441Y003086D01*
X077499Y002927D02*
X012753Y002927D01*
X012703Y002769D02*
X077591Y002769D01*
X077734Y002610D02*
X012612Y002610D01*
X012479Y002451D02*
X077952Y002451D01*
X077754Y004195D02*
X035355Y004195D01*
X035355Y004037D02*
X035195Y004037D01*
X035195Y003878D02*
X035355Y003878D01*
X035355Y003720D02*
X035195Y003720D01*
X035195Y003561D02*
X035355Y003561D01*
X035355Y003403D02*
X035195Y003403D01*
X035745Y004830D02*
X103877Y004830D01*
X106443Y004512D02*
X090617Y004512D01*
X090887Y004354D02*
X106747Y004354D01*
X106853Y004354D02*
X107013Y004354D01*
X107119Y004354D02*
X107702Y004354D01*
X107702Y004512D02*
X107423Y004512D01*
X107559Y004671D02*
X107702Y004671D01*
X107702Y004830D02*
X107637Y004830D01*
X107672Y004988D02*
X107702Y004988D01*
X107013Y004988D02*
X106853Y004988D01*
X106853Y004830D02*
X107013Y004830D01*
X107013Y004671D02*
X106853Y004671D01*
X106853Y004512D02*
X107013Y004512D01*
X107702Y004195D02*
X091045Y004195D01*
X091148Y004037D02*
X107702Y004037D01*
X107702Y003878D02*
X091226Y003878D01*
X091269Y003720D02*
X107702Y003720D01*
X107702Y003561D02*
X091287Y003561D01*
X091287Y003403D02*
X107702Y003403D01*
X107702Y003244D02*
X107019Y003244D01*
X107339Y003086D02*
X107702Y003086D01*
X107702Y002927D02*
X107527Y002927D01*
X107673Y002769D02*
X107702Y002769D01*
X106164Y003244D02*
X091255Y003244D01*
X091210Y003086D02*
X105843Y003086D01*
X105656Y002927D02*
X091118Y002927D01*
X090993Y002769D02*
X105510Y002769D01*
X105418Y002610D02*
X090807Y002610D01*
X090423Y002451D02*
X105340Y002451D01*
X105298Y002293D02*
X012279Y002293D01*
X010433Y005464D02*
X000684Y005464D01*
X000684Y005622D02*
X010274Y005622D01*
X010193Y005781D02*
X000684Y005781D01*
X000684Y005939D02*
X010132Y005939D01*
X010132Y006098D02*
X000684Y006098D01*
X000684Y006256D02*
X010142Y006256D01*
X010208Y006415D02*
X000684Y006415D01*
X000684Y006574D02*
X010310Y006574D01*
X010477Y006732D02*
X000684Y006732D01*
X000684Y006891D02*
X011169Y006891D01*
X011327Y007049D02*
X000685Y007049D01*
X000685Y007208D02*
X011486Y007208D01*
X011644Y007366D02*
X000685Y007366D01*
X000685Y007525D02*
X011820Y007525D01*
X012131Y007683D02*
X011329Y007683D01*
X011480Y007842D02*
X011972Y007842D01*
X011900Y008000D02*
X011562Y008000D01*
X011599Y008159D02*
X011855Y008159D01*
X011855Y008318D02*
X010973Y008318D01*
X010973Y008476D02*
X010813Y008476D01*
X010813Y008318D02*
X000685Y008318D01*
X000685Y008476D02*
X010219Y008476D01*
X010296Y008635D02*
X000685Y008635D01*
X000685Y008793D02*
X010438Y008793D01*
X010813Y008793D02*
X010973Y008793D01*
X010973Y008635D02*
X010813Y008635D01*
X010813Y008159D02*
X010973Y008159D01*
X010973Y008000D02*
X010813Y008000D01*
X010813Y007842D02*
X010973Y007842D01*
X010973Y007683D02*
X010813Y007683D01*
X010457Y007683D02*
X000685Y007683D01*
X000685Y007842D02*
X010306Y007842D01*
X010225Y008000D02*
X000685Y008000D01*
X000685Y008159D02*
X010187Y008159D01*
X011348Y008793D02*
X012116Y008793D01*
X011959Y008635D02*
X011490Y008635D01*
X011568Y008476D02*
X011894Y008476D01*
X015422Y006891D02*
X018735Y006891D01*
X018745Y007049D02*
X017977Y007049D01*
X018134Y007208D02*
X018819Y007208D01*
X019041Y007366D02*
X018199Y007366D01*
X018032Y007842D02*
X017989Y007885D01*
X017809Y007960D01*
X017446Y007049D02*
X015580Y007049D01*
X017594Y004988D02*
X000684Y004988D01*
X000684Y003244D02*
X001394Y003244D01*
X001073Y003086D02*
X000684Y003086D01*
X000684Y002927D02*
X000886Y002927D01*
X000740Y002769D02*
X000684Y002769D01*
X018991Y006415D02*
X077767Y006415D01*
X077821Y006574D02*
X022506Y006574D01*
X022624Y006732D02*
X077924Y006732D01*
X078552Y006256D02*
X080041Y006256D01*
X080041Y006183D02*
X079406Y006183D01*
X079414Y006122D01*
X079438Y006031D01*
X079474Y005944D01*
X079522Y005862D01*
X079579Y005787D01*
X079646Y005720D01*
X079721Y005663D01*
X079802Y005616D01*
X079890Y005580D01*
X079981Y005555D01*
X080042Y005547D01*
X080042Y006183D01*
X080201Y006183D01*
X080201Y005547D01*
X080262Y005555D01*
X080353Y005580D01*
X080441Y005616D01*
X080522Y005663D01*
X080597Y005720D01*
X080664Y005787D01*
X080721Y005862D01*
X080769Y005944D01*
X080805Y006031D01*
X080829Y006122D01*
X080837Y006183D01*
X080202Y006183D01*
X080202Y006343D01*
X080837Y006343D01*
X080829Y006404D01*
X080805Y006495D01*
X080769Y006582D01*
X080721Y006664D01*
X080664Y006739D01*
X080597Y006805D01*
X080522Y006863D01*
X080441Y006910D01*
X080353Y006946D01*
X080262Y006971D01*
X080201Y006979D01*
X080201Y006343D01*
X080042Y006343D01*
X080042Y006979D01*
X079981Y006971D01*
X079890Y006946D01*
X079802Y006910D01*
X079721Y006863D01*
X079646Y006805D01*
X079579Y006739D01*
X079522Y006664D01*
X079474Y006582D01*
X079438Y006495D01*
X079414Y006404D01*
X079406Y006343D01*
X080041Y006343D01*
X080041Y006183D01*
X080042Y006098D02*
X080201Y006098D01*
X080202Y006256D02*
X081691Y006256D01*
X081692Y006415D02*
X081851Y006415D01*
X081851Y006574D02*
X081692Y006574D01*
X081692Y006732D02*
X081851Y006732D01*
X081851Y006891D02*
X081692Y006891D01*
X081419Y006891D02*
X080474Y006891D01*
X080669Y006732D02*
X081224Y006732D01*
X081121Y006574D02*
X080772Y006574D01*
X080826Y006415D02*
X081067Y006415D01*
X081070Y006098D02*
X080823Y006098D01*
X080766Y005939D02*
X081127Y005939D01*
X081235Y005781D02*
X080658Y005781D01*
X080452Y005622D02*
X081441Y005622D01*
X082308Y005781D02*
X089721Y005781D01*
X089562Y005939D02*
X082416Y005939D01*
X082473Y006098D02*
X089495Y006098D01*
X081373Y007842D02*
X080520Y007842D01*
X080679Y008000D02*
X081214Y008000D01*
X081127Y008159D02*
X080766Y008159D01*
X080821Y008318D02*
X081072Y008318D01*
X081072Y008476D02*
X080821Y008476D01*
X080796Y008635D02*
X081097Y008635D01*
X081163Y008793D02*
X080730Y008793D01*
X080593Y008952D02*
X081300Y008952D01*
X080201Y006891D02*
X080042Y006891D01*
X080042Y006732D02*
X080201Y006732D01*
X080201Y006574D02*
X080042Y006574D01*
X080042Y006415D02*
X080201Y006415D01*
X080201Y005939D02*
X080042Y005939D01*
X080042Y005781D02*
X080201Y005781D01*
X080201Y005622D02*
X080042Y005622D01*
X079791Y005622D02*
X078802Y005622D01*
X078551Y005622D02*
X078392Y005622D01*
X078392Y005781D02*
X078551Y005781D01*
X078551Y005939D02*
X078392Y005939D01*
X078392Y006098D02*
X078551Y006098D01*
X079008Y005781D02*
X079585Y005781D01*
X079477Y005939D02*
X079116Y005939D01*
X079173Y006098D02*
X079420Y006098D01*
X079417Y006415D02*
X079176Y006415D01*
X079122Y006574D02*
X079471Y006574D01*
X079574Y006732D02*
X079019Y006732D01*
X078824Y006891D02*
X079769Y006891D01*
X062188Y011964D02*
X044292Y011964D01*
X044495Y012123D02*
X061985Y012123D01*
X061832Y012281D02*
X044648Y012281D01*
X044739Y012440D02*
X061741Y012440D01*
X061659Y012598D02*
X044821Y012598D01*
X044863Y012757D02*
X061617Y012757D01*
X061579Y012915D02*
X044901Y012915D01*
X044901Y013074D02*
X061579Y013074D01*
X061579Y013232D02*
X044901Y013232D01*
X044861Y013391D02*
X061619Y013391D01*
X061661Y013549D02*
X044819Y013549D01*
X044735Y013708D02*
X061745Y013708D01*
X061836Y013867D02*
X044644Y013867D01*
X044488Y014025D02*
X061992Y014025D01*
X062200Y014184D02*
X044280Y014184D01*
X044119Y014501D02*
X044062Y014501D01*
X044062Y014659D02*
X044119Y014659D01*
X044119Y014818D02*
X044062Y014818D01*
X044062Y015135D02*
X044119Y015135D01*
X044119Y015293D02*
X044062Y015293D01*
X044062Y015452D02*
X044119Y015452D01*
X043586Y014818D02*
X043575Y014818D01*
X043575Y014659D02*
X043586Y014659D01*
X043680Y014501D02*
X043483Y014501D01*
X043292Y014342D02*
X029543Y014342D01*
X029831Y014501D02*
X030318Y014501D01*
X030159Y014659D02*
X029989Y014659D01*
X029006Y014342D02*
X028623Y014342D01*
X027996Y014818D02*
X024056Y014818D01*
X023989Y014885D02*
X023809Y014960D01*
X023614Y014960D01*
X023481Y014904D01*
X023573Y014997D01*
X023614Y014980D01*
X023809Y014980D01*
X023989Y015054D01*
X024127Y015192D01*
X024202Y015372D01*
X024202Y015567D01*
X024127Y015747D01*
X023989Y015885D01*
X023809Y015960D01*
X023614Y015960D01*
X023434Y015885D01*
X023296Y015747D01*
X023222Y015567D01*
X023222Y015372D01*
X023261Y015278D01*
X022624Y014642D01*
X022574Y014642D01*
X022451Y014519D01*
X022312Y014379D01*
X022283Y014391D01*
X022101Y014391D01*
X021933Y014321D01*
X021805Y014193D01*
X021735Y014025D01*
X021735Y013843D01*
X021805Y013675D01*
X021933Y013547D01*
X022101Y013477D01*
X022283Y013477D01*
X022451Y013547D01*
X022579Y013675D01*
X022649Y013843D01*
X022649Y014025D01*
X023504Y014025D01*
X023434Y014054D02*
X023614Y013980D01*
X023809Y013980D01*
X023989Y014054D01*
X024127Y014192D01*
X024202Y014372D01*
X024202Y014567D01*
X024127Y014747D01*
X023989Y014885D01*
X024070Y015135D02*
X028313Y015135D01*
X028412Y015293D02*
X024169Y015293D01*
X024202Y015452D02*
X028459Y015452D01*
X028525Y015611D02*
X024184Y015611D01*
X024105Y015769D02*
X028658Y015769D01*
X028860Y015928D02*
X023886Y015928D01*
X023537Y015928D02*
X017886Y015928D01*
X017809Y015960D02*
X017989Y015885D01*
X018127Y015747D01*
X018202Y015567D01*
X018202Y015372D01*
X018177Y015313D01*
X018848Y014642D01*
X018971Y014519D01*
X018971Y014469D01*
X019064Y014376D01*
X019101Y014391D01*
X019283Y014391D01*
X019451Y014321D01*
X019579Y014193D01*
X019649Y014025D01*
X021735Y014025D01*
X021735Y013867D02*
X019649Y013867D01*
X019649Y013843D02*
X019649Y014025D01*
X019583Y014184D02*
X021801Y014184D01*
X021983Y014342D02*
X019401Y014342D01*
X018971Y014501D02*
X022433Y014501D01*
X022642Y014659D02*
X018831Y014659D01*
X018672Y014818D02*
X022800Y014818D01*
X022959Y014976D02*
X018514Y014976D01*
X018355Y015135D02*
X023117Y015135D01*
X023254Y015293D02*
X018197Y015293D01*
X018202Y015452D02*
X023222Y015452D01*
X023240Y015611D02*
X018184Y015611D01*
X018105Y015769D02*
X023318Y015769D01*
X023553Y014976D02*
X028154Y014976D01*
X027837Y014659D02*
X024163Y014659D01*
X024202Y014501D02*
X027679Y014501D01*
X027520Y014342D02*
X024189Y014342D01*
X024119Y014184D02*
X027362Y014184D01*
X027203Y014025D02*
X023919Y014025D01*
X023434Y014054D02*
X023296Y014192D01*
X023284Y014222D01*
X022798Y014222D01*
X022748Y014222D01*
X022620Y014094D01*
X022649Y014025D01*
X022649Y013867D02*
X027044Y013867D01*
X026886Y013708D02*
X022593Y013708D01*
X022453Y013549D02*
X026727Y013549D01*
X023305Y014184D02*
X022710Y014184D01*
X021931Y013549D02*
X019453Y013549D01*
X019451Y013547D02*
X019579Y013675D01*
X019649Y013843D01*
X019593Y013708D02*
X021791Y013708D01*
X019451Y013547D02*
X019283Y013477D01*
X019101Y013477D01*
X018933Y013547D01*
X018805Y013675D01*
X018735Y013843D01*
X018735Y014025D01*
X018760Y014086D01*
X018649Y014197D01*
X018649Y014197D01*
X018624Y014222D01*
X018139Y014222D01*
X018127Y014192D01*
X017989Y014054D01*
X017809Y013980D01*
X017614Y013980D01*
X017434Y014054D01*
X017296Y014192D01*
X017222Y014372D01*
X017222Y014567D01*
X017296Y014747D01*
X017434Y014885D01*
X017614Y014960D01*
X017809Y014960D01*
X017989Y014885D01*
X018127Y014747D01*
X018171Y014642D01*
X018254Y014642D01*
X017885Y015011D01*
X017809Y014980D01*
X017614Y014980D01*
X017434Y015054D01*
X017296Y015192D01*
X017222Y015372D01*
X017222Y015567D01*
X017296Y015747D01*
X017434Y015885D01*
X017614Y015960D01*
X017809Y015960D01*
X017537Y015928D02*
X013304Y015928D01*
X013145Y015769D02*
X017318Y015769D01*
X017240Y015611D02*
X013021Y015611D01*
X013021Y015452D02*
X017222Y015452D01*
X017254Y015293D02*
X013021Y015293D01*
X013021Y015135D02*
X017353Y015135D01*
X017367Y014818D02*
X013021Y014818D01*
X013021Y014976D02*
X017920Y014976D01*
X018056Y014818D02*
X018078Y014818D01*
X018163Y014659D02*
X018237Y014659D01*
X018119Y014184D02*
X018662Y014184D01*
X018735Y014025D02*
X017919Y014025D01*
X017504Y014025D02*
X011101Y014025D01*
X010943Y013867D02*
X018735Y013867D01*
X018791Y013708D02*
X010784Y013708D01*
X010626Y013549D02*
X018931Y013549D01*
X017305Y014184D02*
X013022Y014184D01*
X013143Y014342D02*
X017234Y014342D01*
X017222Y014501D02*
X013171Y014501D01*
X013127Y014659D02*
X017260Y014659D01*
X012601Y014818D02*
X011894Y014818D01*
X012053Y014976D02*
X012601Y014976D01*
X012601Y015135D02*
X012211Y015135D01*
X012370Y015293D02*
X012601Y015293D01*
X012601Y015452D02*
X012528Y015452D01*
X012495Y014659D02*
X011736Y014659D01*
X011577Y014501D02*
X012451Y014501D01*
X012479Y014342D02*
X011419Y014342D01*
X011260Y014184D02*
X012600Y014184D01*
X019343Y007366D02*
X020041Y007366D01*
X020101Y007391D02*
X019933Y007321D01*
X019805Y007193D01*
X019735Y007025D01*
X019735Y006843D01*
X019805Y006675D01*
X019933Y006547D01*
X020101Y006477D01*
X020283Y006477D01*
X020451Y006547D01*
X020579Y006675D01*
X020649Y006843D01*
X020649Y007025D01*
X020579Y007193D01*
X020451Y007321D01*
X020283Y007391D01*
X020101Y007391D01*
X020343Y007366D02*
X020480Y007366D01*
X020564Y007208D02*
X020638Y007208D01*
X020639Y007049D02*
X020745Y007049D01*
X020735Y006891D02*
X020649Y006891D01*
X020603Y006732D02*
X020781Y006732D01*
X020906Y006574D02*
X020477Y006574D01*
X019906Y006574D02*
X019477Y006574D01*
X019603Y006732D02*
X019781Y006732D01*
X019735Y006891D02*
X019649Y006891D01*
X019639Y007049D02*
X019745Y007049D01*
X019819Y007208D02*
X019564Y007208D01*
X043062Y019574D02*
X043119Y019574D01*
X043119Y019733D02*
X043062Y019733D01*
X043062Y019891D02*
X043119Y019891D01*
X043119Y020050D02*
X043062Y020050D01*
X043062Y020208D02*
X043119Y020208D01*
X043119Y020367D02*
X043062Y020367D01*
X044062Y021635D02*
X044119Y021635D01*
X044481Y024499D02*
X044575Y024593D01*
X044575Y025375D01*
X044481Y025469D01*
X043699Y025469D01*
X043606Y025375D01*
X043606Y024593D01*
X043699Y024499D01*
X044481Y024499D01*
X044575Y024647D02*
X076649Y024647D01*
X076490Y024806D02*
X044575Y024806D01*
X044575Y024965D02*
X076331Y024965D01*
X076173Y025123D02*
X044575Y025123D01*
X044575Y025282D02*
X076014Y025282D01*
X075856Y025440D02*
X044510Y025440D01*
X044575Y025599D02*
X075697Y025599D01*
X075539Y025757D02*
X044575Y025757D01*
X043671Y025440D02*
X043538Y025440D01*
X043526Y025453D02*
X043485Y025476D01*
X043439Y025489D01*
X043119Y025489D01*
X043119Y025012D01*
X043595Y025012D01*
X043595Y025332D01*
X043583Y025378D01*
X043559Y025419D01*
X043526Y025453D01*
X043575Y025599D02*
X043606Y025599D01*
X043606Y025757D02*
X043575Y025757D01*
X043575Y025916D02*
X043606Y025916D01*
X043606Y026074D02*
X043575Y026074D01*
X043575Y026233D02*
X043606Y026233D01*
X043062Y025489D02*
X042742Y025489D01*
X042696Y025476D01*
X042655Y025453D01*
X042622Y025419D01*
X042598Y025378D01*
X042586Y025332D01*
X042586Y025012D01*
X043062Y025012D01*
X043062Y024955D01*
X043119Y024955D01*
X043119Y025012D01*
X043062Y025012D01*
X043062Y025489D01*
X043062Y025440D02*
X043119Y025440D01*
X043119Y025282D02*
X043062Y025282D01*
X043062Y025123D02*
X043119Y025123D01*
X043119Y024965D02*
X043606Y024965D01*
X043595Y025123D02*
X043606Y025123D01*
X043595Y025282D02*
X043606Y025282D01*
X043595Y024806D02*
X043606Y024806D01*
X043595Y024647D02*
X043606Y024647D01*
X043119Y024647D02*
X043062Y024647D01*
X043062Y024489D02*
X043119Y024489D01*
X043062Y024479D02*
X043062Y024955D01*
X042586Y024955D01*
X042586Y024635D01*
X042598Y024589D01*
X042622Y024548D01*
X042655Y024515D01*
X042696Y024491D01*
X042742Y024479D01*
X043062Y024479D01*
X043062Y024806D02*
X043119Y024806D01*
X043062Y024965D02*
X041941Y024965D01*
X042099Y025123D02*
X042586Y025123D01*
X042586Y025282D02*
X042258Y025282D01*
X042417Y025440D02*
X042643Y025440D01*
X042606Y025599D02*
X042575Y025599D01*
X042586Y024806D02*
X041782Y024806D01*
X041624Y024647D02*
X042586Y024647D01*
X042705Y024489D02*
X041465Y024489D01*
X041307Y024330D02*
X042606Y024330D01*
X042606Y024172D02*
X041148Y024172D01*
X037465Y026233D02*
X035809Y026233D01*
X035651Y026074D02*
X037307Y026074D01*
X037148Y025916D02*
X035492Y025916D01*
X035334Y025757D02*
X036990Y025757D01*
X036831Y025599D02*
X035175Y025599D01*
X035017Y025440D02*
X036673Y025440D01*
X036514Y025282D02*
X034858Y025282D01*
X034700Y025123D02*
X036356Y025123D01*
X036197Y024965D02*
X034541Y024965D01*
X034382Y024806D02*
X036039Y024806D01*
X035880Y024647D02*
X034224Y024647D01*
X034065Y024489D02*
X035721Y024489D01*
X035563Y024330D02*
X033907Y024330D01*
X033748Y024172D02*
X035404Y024172D01*
X035246Y024013D02*
X033590Y024013D01*
X033431Y023855D02*
X035087Y023855D01*
X034929Y023696D02*
X033273Y023696D01*
X033114Y023538D02*
X034770Y023538D01*
X034612Y023379D02*
X032956Y023379D01*
X035321Y026339D02*
X035321Y026895D01*
X042536Y034109D01*
X042536Y033564D01*
X042616Y033484D01*
X042536Y033404D01*
X042536Y032564D01*
X042651Y032448D01*
X042622Y032419D01*
X042598Y032378D01*
X042586Y032332D01*
X042586Y032012D01*
X043062Y032012D01*
X043062Y031955D01*
X042586Y031955D01*
X042586Y031653D01*
X038724Y027792D01*
X036948Y027792D01*
X036774Y027792D01*
X035321Y026339D01*
X035321Y026391D02*
X035374Y026391D01*
X035321Y026550D02*
X035533Y026550D01*
X035691Y026709D02*
X035321Y026709D01*
X035321Y026867D02*
X035850Y026867D01*
X036008Y027026D02*
X035452Y027026D01*
X035611Y027184D02*
X036167Y027184D01*
X036325Y027343D02*
X035769Y027343D01*
X035928Y027501D02*
X036484Y027501D01*
X036642Y027660D02*
X036086Y027660D01*
X036245Y027818D02*
X038751Y027818D01*
X038909Y027977D02*
X036403Y027977D01*
X036562Y028135D02*
X039068Y028135D01*
X039226Y028294D02*
X036720Y028294D01*
X036879Y028453D02*
X039385Y028453D01*
X039544Y028611D02*
X037037Y028611D01*
X037196Y028770D02*
X039702Y028770D01*
X039861Y028928D02*
X037355Y028928D01*
X037513Y029087D02*
X040019Y029087D01*
X040178Y029245D02*
X037672Y029245D01*
X037830Y029404D02*
X040336Y029404D01*
X040495Y029562D02*
X037989Y029562D01*
X038147Y029721D02*
X040653Y029721D01*
X040812Y029879D02*
X038306Y029879D01*
X038464Y030038D02*
X040970Y030038D01*
X041129Y030196D02*
X038623Y030196D01*
X038781Y030355D02*
X041288Y030355D01*
X041446Y030514D02*
X038940Y030514D01*
X039099Y030672D02*
X041605Y030672D01*
X041763Y030831D02*
X039257Y030831D01*
X039416Y030989D02*
X041922Y030989D01*
X042080Y031148D02*
X039574Y031148D01*
X039733Y031306D02*
X042239Y031306D01*
X042397Y031465D02*
X039891Y031465D01*
X040050Y031623D02*
X042556Y031623D01*
X042586Y031782D02*
X040208Y031782D01*
X040367Y031940D02*
X042586Y031940D01*
X042586Y032099D02*
X040525Y032099D01*
X040684Y032258D02*
X042586Y032258D01*
X042620Y032416D02*
X040842Y032416D01*
X041001Y032575D02*
X042536Y032575D01*
X042536Y032733D02*
X041160Y032733D01*
X041318Y032892D02*
X042536Y032892D01*
X042536Y033050D02*
X041477Y033050D01*
X041635Y033209D02*
X042536Y033209D01*
X042536Y033367D02*
X041794Y033367D01*
X041952Y033526D02*
X042573Y033526D01*
X042536Y033684D02*
X042111Y033684D01*
X042269Y033843D02*
X042536Y033843D01*
X042536Y034002D02*
X042428Y034002D01*
X043561Y032416D02*
X043647Y032416D01*
X043606Y032258D02*
X043595Y032258D01*
X043595Y032099D02*
X043606Y032099D01*
X043595Y031940D02*
X043606Y031940D01*
X042606Y030989D02*
X042516Y030989D01*
X042606Y030831D02*
X042357Y030831D01*
X042199Y030672D02*
X042606Y030672D01*
X042685Y030514D02*
X042040Y030514D01*
X041881Y030355D02*
X042606Y030355D01*
X042606Y030196D02*
X041723Y030196D01*
X041564Y030038D02*
X042606Y030038D01*
X042606Y029879D02*
X041406Y029879D01*
X041247Y029721D02*
X042606Y029721D01*
X042495Y029562D02*
X041089Y029562D01*
X040930Y029404D02*
X042336Y029404D01*
X042178Y029245D02*
X040772Y029245D01*
X040613Y029087D02*
X042019Y029087D01*
X041861Y028928D02*
X040455Y028928D01*
X040296Y028770D02*
X041702Y028770D01*
X041544Y028611D02*
X040137Y028611D01*
X039979Y028453D02*
X041385Y028453D01*
X041226Y028294D02*
X039820Y028294D01*
X039662Y028135D02*
X041068Y028135D01*
X040909Y027977D02*
X039503Y027977D01*
X039345Y027818D02*
X040583Y027818D01*
X040395Y027660D02*
X039186Y027660D01*
X039028Y027501D02*
X040351Y027501D01*
X040379Y027343D02*
X036919Y027343D01*
X036761Y027184D02*
X038417Y027184D01*
X038258Y027026D02*
X036602Y027026D01*
X036444Y026867D02*
X038100Y026867D01*
X037941Y026709D02*
X036285Y026709D01*
X036126Y026550D02*
X037782Y026550D01*
X037624Y026391D02*
X035968Y026391D01*
X038535Y026709D02*
X041641Y026709D01*
X041800Y026867D02*
X038694Y026867D01*
X042162Y028135D02*
X042586Y028135D01*
X042586Y028012D02*
X043062Y028012D01*
X043062Y028489D01*
X042742Y028489D01*
X042696Y028476D01*
X042655Y028453D01*
X042622Y028419D01*
X042598Y028378D01*
X042586Y028332D01*
X042586Y028012D01*
X042586Y028294D02*
X042320Y028294D01*
X042479Y028453D02*
X042655Y028453D01*
X043062Y028453D02*
X043119Y028453D01*
X043119Y028294D02*
X043062Y028294D01*
X043062Y028135D02*
X043119Y028135D01*
X043595Y028135D02*
X043606Y028135D01*
X043595Y028294D02*
X043606Y028294D01*
X043683Y028453D02*
X043526Y028453D01*
X043575Y028611D02*
X043606Y028611D01*
X043606Y028770D02*
X043575Y028770D01*
X043575Y028928D02*
X043606Y028928D01*
X043586Y029654D02*
X043575Y029665D01*
X043575Y030321D01*
X043586Y030310D01*
X043586Y030012D01*
X044062Y030012D01*
X044062Y029955D01*
X043586Y029955D01*
X043586Y029654D01*
X043575Y029721D02*
X043586Y029721D01*
X043575Y029879D02*
X043586Y029879D01*
X043575Y030038D02*
X043586Y030038D01*
X043575Y030196D02*
X043586Y030196D01*
X044062Y029879D02*
X044119Y029879D01*
X044119Y029721D02*
X044062Y029721D01*
X044062Y029562D02*
X044119Y029562D01*
X044567Y029562D02*
X046445Y029562D01*
X046286Y029404D02*
X044546Y029404D01*
X044575Y029245D02*
X046128Y029245D01*
X045969Y029087D02*
X044575Y029087D01*
X044575Y028928D02*
X045811Y028928D01*
X045652Y028770D02*
X044575Y028770D01*
X044575Y028611D02*
X045494Y028611D01*
X045335Y028453D02*
X044497Y028453D01*
X044575Y028294D02*
X045176Y028294D01*
X044595Y029721D02*
X046603Y029721D01*
X046762Y029879D02*
X044595Y029879D01*
X044595Y030038D02*
X046920Y030038D01*
X044726Y030514D02*
X051628Y030514D01*
X045920Y036221D02*
X045709Y036221D01*
X072592Y028611D02*
X103084Y028611D01*
X103101Y028676D02*
X103031Y028414D01*
X103031Y028142D01*
X103101Y027880D01*
X103237Y027646D01*
X103429Y027454D01*
X103664Y027318D01*
X103925Y027248D01*
X104197Y027248D01*
X104459Y027318D01*
X104694Y027454D01*
X104885Y027646D01*
X105021Y027880D01*
X105091Y028142D01*
X105091Y028414D01*
X105021Y028676D01*
X104885Y028910D01*
X104694Y029102D01*
X104459Y029238D01*
X104197Y029308D01*
X103925Y029308D01*
X103664Y029238D01*
X103429Y029102D01*
X103237Y028910D01*
X103101Y028676D01*
X103156Y028770D02*
X072751Y028770D01*
X072909Y028928D02*
X103255Y028928D01*
X103413Y029087D02*
X073068Y029087D01*
X073226Y029245D02*
X103691Y029245D01*
X103437Y029721D02*
X107702Y029721D01*
X107702Y029879D02*
X103596Y029879D01*
X103676Y030038D02*
X107702Y030038D01*
X107702Y030196D02*
X103721Y030196D01*
X103721Y030355D02*
X107702Y030355D01*
X107702Y030514D02*
X103678Y030514D01*
X103600Y030672D02*
X107702Y030672D01*
X107702Y030831D02*
X103442Y030831D01*
X102444Y030514D02*
X097650Y030514D01*
X097409Y030355D02*
X102401Y030355D01*
X102401Y030196D02*
X089722Y030196D01*
X089722Y030038D02*
X102446Y030038D01*
X102526Y029879D02*
X089722Y029879D01*
X089648Y029721D02*
X102685Y029721D01*
X103042Y028453D02*
X091542Y028453D01*
X091701Y028294D02*
X103031Y028294D01*
X103033Y028135D02*
X091859Y028135D01*
X092018Y027977D02*
X103075Y027977D01*
X103137Y027818D02*
X092176Y027818D01*
X092335Y027660D02*
X103229Y027660D01*
X103381Y027501D02*
X092493Y027501D01*
X092652Y027343D02*
X103621Y027343D01*
X103294Y027026D02*
X107702Y027026D01*
X107702Y027184D02*
X092810Y027184D01*
X092969Y027026D02*
X102828Y027026D01*
X102547Y026867D02*
X093127Y026867D01*
X093286Y026709D02*
X102395Y026709D01*
X102330Y026550D02*
X093445Y026550D01*
X093603Y026391D02*
X102281Y026391D01*
X102281Y026233D02*
X093762Y026233D01*
X093920Y026074D02*
X102301Y026074D01*
X102367Y025916D02*
X094079Y025916D01*
X093451Y025440D02*
X091650Y025440D01*
X091808Y025282D02*
X093610Y025282D01*
X093768Y025123D02*
X091967Y025123D01*
X092125Y024965D02*
X093927Y024965D01*
X094085Y024806D02*
X092284Y024806D01*
X092442Y024647D02*
X094244Y024647D01*
X094403Y024489D02*
X092601Y024489D01*
X092760Y024330D02*
X094561Y024330D01*
X094720Y024172D02*
X092918Y024172D01*
X093077Y024013D02*
X094878Y024013D01*
X095037Y023855D02*
X093235Y023855D01*
X093394Y023696D02*
X095195Y023696D01*
X095354Y023538D02*
X093552Y023538D01*
X093293Y025599D02*
X091491Y025599D01*
X091333Y025757D02*
X093134Y025757D01*
X092976Y025916D02*
X091174Y025916D01*
X091016Y026074D02*
X092817Y026074D01*
X092659Y026233D02*
X090857Y026233D01*
X090699Y026391D02*
X092500Y026391D01*
X092341Y026550D02*
X090540Y026550D01*
X090381Y026709D02*
X092183Y026709D01*
X092024Y026867D02*
X090223Y026867D01*
X090064Y027026D02*
X091866Y027026D01*
X091707Y027184D02*
X089906Y027184D01*
X089747Y027343D02*
X091549Y027343D01*
X091390Y027501D02*
X089589Y027501D01*
X089430Y027660D02*
X091232Y027660D01*
X089722Y030355D02*
X093896Y030355D01*
X093903Y030352D02*
X094219Y030352D01*
X094510Y030473D01*
X094733Y030696D01*
X094854Y030987D01*
X094854Y032569D01*
X094733Y032860D01*
X094510Y033083D01*
X094219Y033204D01*
X093903Y033204D01*
X093612Y033083D01*
X093389Y032860D01*
X093268Y032569D01*
X093268Y030987D01*
X093389Y030696D01*
X093612Y030473D01*
X093903Y030352D01*
X094226Y030355D02*
X096713Y030355D01*
X096472Y030514D02*
X094551Y030514D01*
X094710Y030672D02*
X096323Y030672D01*
X096257Y030831D02*
X094789Y030831D01*
X094854Y030989D02*
X096198Y030989D01*
X096198Y031148D02*
X094854Y031148D01*
X094854Y031306D02*
X096198Y031306D01*
X096198Y031465D02*
X094854Y031465D01*
X094854Y031623D02*
X096198Y031623D01*
X096198Y031782D02*
X094854Y031782D01*
X094854Y031940D02*
X096198Y031940D01*
X096198Y032099D02*
X094854Y032099D01*
X094854Y032258D02*
X096198Y032258D01*
X096198Y032416D02*
X094854Y032416D01*
X094852Y032575D02*
X096198Y032575D01*
X096260Y032733D02*
X094786Y032733D01*
X094702Y032892D02*
X096326Y032892D01*
X096480Y033050D02*
X094543Y033050D01*
X093579Y033050D02*
X089722Y033050D01*
X089722Y032892D02*
X093420Y032892D01*
X093336Y032733D02*
X089722Y032733D01*
X089722Y032575D02*
X093270Y032575D01*
X093268Y032416D02*
X089722Y032416D01*
X089722Y032258D02*
X093268Y032258D01*
X093268Y032099D02*
X089722Y032099D01*
X089722Y031940D02*
X093268Y031940D01*
X093268Y031782D02*
X089722Y031782D01*
X089722Y031623D02*
X093268Y031623D01*
X093268Y031465D02*
X089722Y031465D01*
X089722Y031306D02*
X093268Y031306D01*
X093268Y031148D02*
X089722Y031148D01*
X089722Y030989D02*
X093268Y030989D01*
X093333Y030831D02*
X089722Y030831D01*
X089722Y030672D02*
X093412Y030672D01*
X093571Y030514D02*
X089722Y030514D01*
X103575Y026867D02*
X107702Y026867D01*
X107702Y026709D02*
X103727Y026709D01*
X103793Y026550D02*
X107702Y026550D01*
X107702Y026391D02*
X103841Y026391D01*
X103841Y026233D02*
X107702Y026233D01*
X107702Y026074D02*
X103821Y026074D01*
X103755Y025916D02*
X107702Y025916D01*
X107702Y025757D02*
X103643Y025757D01*
X103459Y025599D02*
X107702Y025599D01*
X107702Y027343D02*
X104501Y027343D01*
X104741Y027501D02*
X107702Y027501D01*
X107702Y027660D02*
X104893Y027660D01*
X104985Y027818D02*
X107702Y027818D01*
X107702Y027977D02*
X105047Y027977D01*
X105089Y028135D02*
X107702Y028135D01*
X107702Y028294D02*
X105091Y028294D01*
X105081Y028453D02*
X107702Y028453D01*
X107702Y028611D02*
X105038Y028611D01*
X104967Y028770D02*
X107702Y028770D01*
X107702Y028928D02*
X104868Y028928D01*
X104709Y029087D02*
X107702Y029087D01*
X107702Y029245D02*
X104431Y029245D01*
X107702Y029404D02*
X073385Y029404D01*
X073543Y029562D02*
X107702Y029562D01*
X107013Y005622D02*
X106853Y005622D01*
X106853Y005464D02*
X107013Y005464D01*
X062583Y014342D02*
X043897Y014342D01*
X014371Y027501D02*
X014356Y027501D01*
X014282Y027660D02*
X014241Y027660D01*
X014033Y036855D02*
X014004Y036855D01*
X014041Y037014D02*
X014192Y037014D01*
X014350Y037172D02*
X014018Y037172D01*
X018262Y040026D02*
X018303Y040026D01*
X018303Y040185D02*
X018262Y040185D01*
X018262Y040343D02*
X018303Y040343D01*
X018303Y040502D02*
X018262Y040502D01*
X018262Y040660D02*
X018303Y040660D01*
X018303Y040819D02*
X018262Y040819D01*
X017123Y041136D02*
X017082Y041136D01*
X017082Y041295D02*
X017123Y041295D01*
X017123Y041453D02*
X017082Y041453D01*
X017082Y041612D02*
X017123Y041612D01*
X017123Y041770D02*
X017082Y041770D01*
X017082Y041929D02*
X017123Y041929D01*
X016630Y041929D02*
X014305Y041929D01*
X014147Y041770D02*
X016623Y041770D01*
X016623Y041612D02*
X013988Y041612D01*
X013829Y041453D02*
X016623Y041453D01*
X016623Y041295D02*
X013671Y041295D01*
X013512Y041136D02*
X016690Y041136D01*
X017350Y042404D02*
X014781Y042404D01*
X014939Y042563D02*
X017333Y042563D01*
X017333Y042721D02*
X015098Y042721D01*
X015256Y042880D02*
X017333Y042880D01*
X017333Y043039D02*
X015415Y043039D01*
X015573Y043197D02*
X017333Y043197D01*
X017333Y043356D02*
X015732Y043356D01*
X015891Y043514D02*
X017333Y043514D01*
X017333Y043673D02*
X016049Y043673D01*
X016208Y043831D02*
X017333Y043831D01*
X017333Y043990D02*
X016366Y043990D01*
X016525Y044148D02*
X017346Y044148D01*
X001418Y042563D02*
X000691Y042563D01*
X000691Y042721D02*
X001084Y042721D01*
X000892Y042880D02*
X000691Y042880D01*
X000691Y043039D02*
X000743Y043039D01*
M02*
