%
M48
M72
T01C0.0236
T02C0.0240
T03C0.0315
T04C0.0320
T05C0.0394
T06C0.0400
T07C0.0433
T08C0.0472
T09C0.0594
T10C0.0630
T11C0.0709
T12C0.0713
T13C0.0720
T14C0.0752
T15C0.0820
T16C0.0827
T17C0.0866
T18C0.0930
T19C0.1102
T20C0.1180
T21C0.1181
T22C0.1190
T23C0.1200
T24C0.1654
T25C0.1700
%
T01
X69922Y36007
X72022Y36007
X74022Y36007
X76172Y36007
X76172Y37957
X76172Y40007
X69922Y39957
X69922Y37957
X82812Y36110
X84962Y36110
X86962Y36110
X89062Y36110
X89062Y34160
X89062Y32160
X82812Y32110
X82812Y34160
X85189Y26242
X87239Y26242
X89189Y26242
X89189Y24092
X89189Y22092
X89189Y19992
X87239Y19992
X85239Y19992
T02
X93261Y16632
X88211Y12582
X95311Y10082
X95811Y10582
X97161Y10832
X102011Y14282
X102011Y14782
X101911Y17532
X74711Y31282
X62561Y28732
X53711Y29882
X46911Y27032
X41811Y23582
X38561Y21082
X37111Y20382
X37061Y21832
X34261Y20382
X31961Y19932
X30811Y19032
X28611Y19932
X30111Y21982
X40711Y27482
X46111Y19982
X25961Y12882
X16211Y18182
X18411Y18732
X18061Y19582
X12811Y14482
X10211Y13432
X13961Y27332
X17011Y30882
X17511Y31232
X18011Y31182
X16761Y32282
X20011Y30882
X20161Y35682
X13611Y37032
X37111Y39732
X37561Y39182
X41311Y36732
X43661Y37982
X43861Y38532
X42211Y39132
X42211Y39632
X45411Y36532
X67961Y47582
X70361Y50282
X72711Y53182
X74511Y53182
T03
X23712Y15470
X23712Y14470
X17712Y14470
X17712Y15470
X17712Y8470
X17712Y7470
X17712Y5470
X17712Y4470
X23712Y4470
X23712Y5470
T04
X25078Y19561
X27078Y19561
X22257Y19561
X20257Y19561
X20257Y22561
X20257Y23561
X22257Y23561
X22257Y22561
X25078Y22561
X27078Y22561
X27078Y23561
X25078Y23561
X42350Y43358
X43350Y43358
X45200Y43358
X46200Y43358
X47950Y43258
X48950Y43258
X50903Y43258
X51903Y43258
X69608Y57497
X70608Y57497
X71608Y57497
X72608Y57497
X73608Y57497
X74608Y57497
X75608Y57497
X76608Y57497
X76608Y58497
X75608Y58497
X74608Y58497
X73608Y58497
X72608Y58497
X71608Y58497
X70608Y58497
X69608Y58497
T05
X22192Y13934
X19192Y13934
X19192Y6934
X20192Y6934
X21192Y6934
X22192Y6934
T06
X19463Y40398
X18283Y40398
X17103Y40398
X17103Y41578
X18283Y41578
X19463Y41578
T07
X43090Y33984
X44090Y33984
X44090Y32984
X43090Y32984
X43090Y31984
X44090Y31984
X44090Y30984
X43090Y30984
X43090Y29984
X43090Y28984
X44090Y28984
X44090Y29984
X44090Y27984
X43090Y27984
X43090Y26984
X43090Y25984
X44090Y25984
X44090Y26984
X44090Y24984
X43090Y24984
X43090Y23984
X44090Y23984
X44090Y22984
X43090Y22984
X43090Y21984
X43090Y20984
X44090Y20984
X44090Y21984
X44090Y19984
X43090Y19984
X43090Y18984
X43090Y17984
X44090Y17984
X44090Y18984
X44090Y16984
X43090Y16984
X43090Y15984
X44090Y15984
X44090Y14984
X43090Y14984
T08
X103061Y26278
X103061Y30278
T09
X104059Y8972
X104059Y7476
X104059Y5429
T10
X10108Y39811
X8454Y39811
T11
X11762Y39811
X12547Y8246
X10893Y8246
X10893Y6080
X12547Y6080
T12
X106539Y7515
X106933Y8972
T13
X90213Y8548
X90213Y6378
X81772Y6263
X80122Y6263
X78472Y6263
X78472Y8433
X80122Y8433
X81772Y8433
T14
X106933Y5074
T15
X98061Y24778
X104061Y28278
T16
X33901Y29208
X32051Y27988
X26933Y29208
X25083Y27988
T17
X29275Y15165
X30775Y15165
X32275Y15165
X33775Y15165
X35275Y15165
X35275Y4165
X32275Y4165
X29275Y4165
X94061Y31778
X97061Y31778
T18
X88881Y52966
X88881Y55132
X81881Y55132
X81881Y52966
T19
X62901Y35897
X43614Y35897
X43614Y13066
X62862Y13066
T20
X18283Y43278
T21
X11762Y42685
X8454Y42685
X26933Y26885
X33901Y26885
X11720Y3206
T22
X78472Y3393
X81772Y3393
X90213Y3508
T23
X88881Y58006
X81881Y58006
T24
X62886Y35905
X43594Y35905
X43594Y13070
X62886Y13070
T25
X1821Y1982
X54191Y22832
X37058Y43674
X22491Y43674
X1821Y43832
X66981Y59392
X93681Y59392
X106591Y43832
X106591Y1982
M30
